<svg version="1.1" id="Layer_2_00000017493228917983023270000018190045204828518277_" xmlns="http://www.w3.org/2000/svg" xmlns:xlink="http://www.w3.org/1999/xlink" x="0" y="0" viewBox="0 0 1440 568" style="enable-background:new 0 0 1440 568" xml:space="preserve"><style>.st3{fill:#f53754}.st5{fill:#ef5a6d}</style><defs><path id="SVGID_1_" d="M0 0h1440v568H0z"/></defs><clipPath id="SVGID_00000183231547866787871770000000634021494806157219_"><use xlink:href="#SVGID_1_" style="overflow:visible"/></clipPath><g id="Layer_1-2" style="clip-path:url(#SVGID_00000183231547866787871770000000634021494806157219_)"><path style="fill:#ed1a3b" d="M0 0h1440v568H0z"/><g style="opacity:.8"><path class="st3" d="M143.8 98h-31C88.9 294.6-2.7 363.8-202.7 363.8v30.8c84.6 0 156.8 7.6 156.8 106.7v441.4c0 118.8 70.6 213.2 199.1 213.2 50.4 0 94.1-8 125.8-40.8-3.3-4.4-12.9-18.4-15.9-23.1-17.9 13.3-32.4 26.4-53.5 27.1-40.8 1.1-65.8-36.4-65.8-112.6V394.7h137.9v-30.8h-138V98z"/><path d="M345.3 168.8v.1h4v-.1h-4zm0-260.9v260.9h4V-92.1h-4zM132.1 156.4c0-38.1 11.5-65.4 29.2-86.9s41.8-37.1 67-51.5c25.1-14.4 51.5-27.6 73.5-44.2 22-16.7 39.8-36.9 47.5-65.5l-3.9-1.1c-7.5 27.4-24.5 47-46.1 63.3-21.7 16.4-47.6 29.4-73 43.9C201 29.1 176.4 45 158.2 67c-18.3 22.1-30.1 50.4-30.1 89.4h4zm110.6 121.3c-28 0-55.6-7.7-76.2-26.6-20.5-18.9-34.4-49.1-34.4-94.7h-4c0 46.5 14.1 77.9 35.7 97.7 21.5 19.8 50.2 27.6 78.9 27.6v-4zm102.6-108.8c0 56.6-47.2 108.9-102.7 108.9v4c57.9 0 106.7-54.3 106.7-112.9h-4zm142.4 32.3-.1.1 2.8 2.9.1-.1-2.8-2.9zm119.4 106.4c-38.9 0-67.8-5.8-87-21.5-19.1-15.7-29-41.7-29-83.4h-4c0 42.2 10.1 69.7 30.5 86.5 20.3 16.7 50.4 22.5 89.5 22.5v-4.1zm2 24.9v-22.9h-4v22.9h4zm-264.1 2h262.1v-4H345v4zm-2-89.6v87.6h4v-87.6h-4zM154.9 340c31.1 0 70.9-9.8 107-26.5 36-16.6 68.6-40.1 84.8-67.7l-3.5-2c-15.7 26.5-47.4 49.6-83.1 66.1-35.7 16.4-74.9 26.1-105.3 26.1l.1 4zM-31.3 175.9C-31.3 278.6 62 340 154.9 340v-4c-91.5 0-182.2-60.4-182.2-160.1h-4zm214-180.4C136.3 11.6 82.8 25.8 41 51.3 20.1 64.1 2 79.7-10.8 100c-12.9 20.3-20.4 45-20.4 75.9h4c0-30.2 7.4-54.2 19.8-73.8C5 82.5 22.5 67.3 43.1 54.7 84.3 29.5 137.1 15.5 184-.8l-1.3-3.7zm162.6-158c-1.5 54.3-22.2 86.7-52.3 109.1-30.3 22.5-70.2 34.9-110.3 48.9L184-.7c39.8-13.9 80.4-26.5 111.4-49.5 31.1-23.1 52.4-56.7 53.9-112.1l-4-.2zM264-245.3c27.6-1 48.2 6.1 61.7 20 13.6 13.9 20.4 35.1 19.6 62.8l4 .1c.8-28.4-6.2-50.8-20.7-65.7-14.6-15-36.4-22.2-64.7-21.2l.1 4zm-109 30.5c25.1-13.3 63.7-28.8 109-30.5l-.1-4c-46.1 1.7-85.3 17.5-110.7 31l1.8 3.5zm-19.4 12.5c2.9-2.5 7.7-5.7 11.9-8.2 2.1-1.3 3.9-2.3 5.3-3.1.7-.4 1.2-.7 1.6-.9.2-.1.3-.2.4-.2l.1-.1-1-1.8-1-1.8-.1.1c-.1.1-.2.1-.5.2-.4.2-1 .5-1.6.9-1.4.8-3.3 1.9-5.4 3.2-4.2 2.5-9.2 5.8-12.4 8.6l2.7 3.1zm35.8 52.5c-.6-24.5-15.3-45.4-36.2-55.7l-1.8 3.6c19.7 9.7 33.4 29.3 34 52.2l4-.1zm-64.1 65.7c36.3-.8 64.9-30.3 64.1-65.7l-4 .1c.8 33.2-26 60.8-60.2 61.6l.1 4zM40-146.6c.9 35.5 31.1 63.3 67.4 62.5l-.1-4c-34.2.8-62.5-25.5-63.3-58.6l-4 .1zm17.4-45c-11.2 11.8-17.9 27.7-17.4 45l4-.1c-.5-16.1 5.8-31.1 16.3-42.1l-2.9-2.8zm4.5-4.5c-1.6 1.4-3.2 3-4.5 4.6l3 2.6c1.2-1.4 2.7-2.9 4.2-4.2l-2.7-3zm63.4-34.7c-12.1 4.3-24.5 9.2-35.6 14.9-11.1 5.7-20.9 12.2-27.9 19.9l3 2.7c6.5-7.2 15.9-13.5 26.8-19.1 10.9-5.6 23.1-10.4 35.1-14.7l-1.4-3.7zM304.8-269c-71.7 0-133.4 19.6-179.6 38.2l1.5 3.7c46-18.6 107.1-38 178.1-38v-3.9zM491-101.3c0-67.3-26.2-109.4-62.8-134.5-36.5-25.1-83-33.1-123.3-33.1v4c39.9 0 85.5 8 121.1 32.4 35.4 24.3 61.1 65.1 61.1 131.2h3.9zm0 304v-304h-4v304h4zM347.3-92.1h2l-3.9-.5 1.9.5zm141.8 294.7h2v-4.7l-3.4 3.3 1.4 1.4zm118 107h2v-2h-2v2zm0 22.9v2h2v-2h-2zm-262.1 0h-2v2h2v-2zm0-87.6h2v-7.3l-3.7 6.3 1.7 1zM183.4-2.7l.7 1.9-.7-1.9zm163.9-159.8 2 .1-2-.1zm-83.4-84.8-.1-2 .1 2zm-109.8 30.7-.9-1.8.9 1.8zm-19.8 12.8-1.3-1.5-2.3 2 2.7 1.3.9-1.8zm35.1 54h2-2zM42-146.7l2-.1-2 .1zm16.9-43.5 1.5 1.4-1.5-1.4zm4.3-4.4 1.3 1.5.1-.1.1-.1-1.5-1.3zm62.8-34.3.7 1.9-.7-1.9zm363 431.6h-2v4.7l3.4-3.3-1.4-1.4z" style="opacity:.6;fill:#ef5a6d;enable-background:new"/><path class="st3" d="M1220.9-197H941.3v25.3c107.9 0 143 52.6 96.2 151.2L902.2 263 764.3-26.1c-40.4-83.5-66.2-145.6 54.5-145.6V-197H470.4v25.3c35.1 0 62.4 20.2 76.8 50.7l272.4 565.1-6.4 15.2C711.9 672.8 607 732.7 568.7 606c-11.3-33-43.4-56.8-81.1-56.8-47.2 0-89.9 36.8-89.9 82.8 0 43.5 27.1 77.9 71.9 91.3 27.7 8.3 58.4 6.8 81.4 6.1 147.1-3.5 216.4-114.2 280.1-249.6l238.2-507.6c35.1-73.4 87.6-143.8 151.3-143.8v-25.3l.3-.1zM1515.1 344.3c-23.2-25.1-74.9-42.3-115.4-42.3-94.2 1-138.1 69.3-155.9 148.8V312.1h-231.3v20.4c69.3-.2 103.2 22 104.6 88.7v312.5c0 74.5-35.5 94.8-104.6 94.8V849h335.8v-20.4c-69.1 0-104.6-20.4-104.6-94.8V603.3c0-58 6.2-159.8 44.2-215.7 37.6-55.3 78.1-63.6 89.6-65.2 30.9-4.2 46.2 2 60.1 13.5-21.7 11.3-36.4 33.5-36.4 59.1 0 37.1 30.8 67.1 68.8 67.1s68.8-30 68.8-67.1c.3-20.3-9-38.4-23.7-50.7z"/><path class="st5" d="M962.2 713.5c-44.8 0-78.1-6.6-100.3-24.9-22.1-18.2-33.6-48.2-33.6-96.3h-4c0 48.6 11.6 80.2 35 99.4 23.3 19.2 57.9 25.8 102.8 25.8l.1-4zm2 28.5v-26.5h-4V742h4zM526 744h436.2v-4H526v4zm-2-28.5V742h4v-26.5h-4zm135.9-123.1c0 48.1-11.5 78.2-33.6 96.3-22.2 18.2-55.5 24.9-100.3 24.9v4c44.9 0 79.5-6.6 102.8-25.8 23.4-19.2 35-50.8 35-99.4h-3.9zm0-653v653h4v-653h-4zM526-160.5c44.7.2 77.4 3.5 99.4 17.4 21.7 13.8 33.2 38.3 34.5 82.5l4-.1c-1.3-44.8-13.1-71-36.3-85.8-23-14.7-56.9-17.8-101.5-18l-.1 4zm-2-28.5v26.5h4V-189h-4zm302.4-2H526v4h300.4v-4zm2 783.4V-189h-4v781.3l4 .1zm133.8 123.1h2v-2h-2v2zm0 26.5v2h2v-2h-2zM526 742h-2v2h2v-2zm0-26.5v-2h-2v2h2zM661.9-60.6h2v-.1l-2 .1zM526-162.5h-2v2h2v-2zm0-26.5v-2h-2v2h2zm300.4 0h2v-2h-2v2zM1425.9 86c0 85.1-14.6 170.1-43.9 233.8-29.3 63.7-73.1 105.5-131.3 105.5v4c60.5 0 105.3-43.5 134.9-107.8 29.6-64.3 44.3-150 44.3-235.5h-4zm-175.2-339.3c57.5 0 101.3 41.8 130.8 105.5C1411-84.1 1425.9.9 1425.9 86h4c0-85.5-15-171.1-44.8-235.5-29.8-64.3-74.6-107.8-134.4-107.8v4zM1076.8 86c0-85.1 14.6-170.1 43.8-233.8 29.2-63.7 72.6-105.5 130.1-105.5v-4c-59.8 0-104.3 43.5-133.8 107.8C1087.4-85.2 1072.8.4 1072.8 86h4zm173.9 339.3c-57.5 0-100.9-41.8-130.1-105.5-29.2-63.7-43.8-148.7-43.8-233.8h-4c0 85.5 14.7 171.1 44.1 235.5 29.4 64.3 73.9 107.8 133.8 107.8v-4zM1617 86c0-89.2-30.5-178.4-91.6-245.4-61.1-67-152.8-111.6-274.7-111.6v4c120.9 0 211.4 44.2 271.8 110.3C1582.8-90.6 1613-2.3 1613 86h4zm-366.3 357c122 0 213.6-44.6 274.7-111.6 61.1-67 91.6-156.2 91.6-245.4h-4c0 88.3-30.2 176.6-90.6 242.7-60.3 66.1-150.9 110.3-271.8 110.3v4zM884.3 86c0 89.2 30.5 178.4 91.6 245.4 61.1 67 152.8 111.6 274.7 111.6v-4c-120.9 0-211.4-44.2-271.8-110.3-60.4-66.2-90.6-154.4-90.6-242.7h-3.9zm366.4-357c-122 0-213.6 44.6-274.7 111.6-61.2 67-91.7 156.2-91.7 245.4h4c0-88.3 30.2-176.6 90.6-242.7 60.3-66.1 150.9-110.3 271.8-110.3v-4z"/></g></g></svg>