<?xml version="1.0" encoding="UTF-8"?>
<svg id="Layer_1" xmlns="http://www.w3.org/2000/svg" xmlns:xlink="http://www.w3.org/1999/xlink" version="1.1" viewBox="0 0 795 630">
  <!-- Generator: Adobe Illustrator 29.0.1, SVG Export Plug-In . SVG Version: 2.1.0 Build 192)  -->
  <defs>
    <style>
      .st0 {
        fill: #586dff;
      }

      .st0, .st1, .st2, .st3, .st4, .st5, .st6, .st7, .st8, .st9, .st10, .st11, .st12, .st13, .st14, .st15, .st16, .st17, .st18, .st19, .st20, .st21, .st22, .st23, .st24, .st25, .st26, .st27, .st28, .st29, .st30, .st31, .st32, .st33, .st34, .st35, .st36, .st37, .st38, .st39, .st40, .st41, .st42, .st43 {
        fill-rule: evenodd;
      }

      .st1 {
        fill: url(#linear-gradient21);
      }

      .st2 {
        fill: url(#linear-gradient20);
      }

      .st3 {
        fill: url(#linear-gradient22);
      }

      .st4 {
        fill: url(#linear-gradient23);
      }

      .st5 {
        fill: url(#linear-gradient19);
      }

      .st6 {
        fill: url(#linear-gradient14);
      }

      .st7 {
        fill: url(#linear-gradient11);
      }

      .st8 {
        fill: url(#linear-gradient16);
      }

      .st9 {
        fill: url(#linear-gradient17);
      }

      .st10 {
        fill: url(#linear-gradient12);
      }

      .st11 {
        fill: url(#linear-gradient13);
      }

      .st12 {
        fill: url(#linear-gradient18);
      }

      .st13 {
        fill: #c7dcff;
      }

      .st44 {
        fill: #3f699d;
      }

      .st14 {
        fill: #528be1;
      }

      .st15 {
        fill: #dae8ff;
      }

      .st16, .st45, .st46 {
        fill: #fff;
      }

      .st47 {
        fill: url(#linear-gradient9);
      }

      .st48 {
        fill: url(#linear-gradient6);
      }

      .st49 {
        fill: url(#linear-gradient8);
      }

      .st50, .st42 {
        fill: #092965;
      }

      .st17 {
        fill: #b8d1f8;
      }

      .st18, .st24, .st51, .st52, .st29, .st30, .st53, .st38, .st54 {
        isolation: isolate;
      }

      .st18, .st24, .st52, .st29, .st30, .st38 {
        mix-blend-mode: multiply;
      }

      .st18, .st38 {
        fill: #a9aac4;
      }

      .st55 {
        fill: url(#linear-gradient10);
      }

      .st19 {
        fill: #dce9ff;
      }

      .st56 {
        fill: #adccff;
      }

      .st20 {
        fill: #051b4d;
      }

      .st21 {
        fill: #528ce2;
      }

      .st22 {
        fill: #91b2f0;
      }

      .st23 {
        fill: #2c3652;
      }

      .st24 {
        fill: url(#linear-gradient15);
      }

      .st57 {
        stroke: #dde7f9;
        stroke-width: 1.1px;
      }

      .st57, .st52, .st58, .st59, .st60 {
        fill: none;
      }

      .st25 {
        fill: #ffbbb0;
      }

      .st45 {
        display: none;
      }

      .st26 {
        fill: #30334f;
      }

      .st27 {
        fill: #ac6a5a;
      }

      .st52 {
        stroke: #d8d8d8;
      }

      .st52, .st59, .st60 {
        stroke-width: .7px;
      }

      .st28 {
        fill: #bdcce6;
      }

      .st58 {
        stroke-miterlimit: 4;
        stroke-width: .7px;
      }

      .st58, .st59 {
        stroke: #30334f;
      }

      .st61, .st53, .st43 {
        fill: #80b1ff;
      }

      .st29 {
        fill: #828eb7;
      }

      .st30 {
        fill: #0d3677;
      }

      .st53 {
        opacity: .5;
      }

      .st31 {
        fill: url(#linear-gradient);
      }

      .st32 {
        fill: url(#linear-gradient1);
      }

      .st33 {
        fill: url(#linear-gradient2);
      }

      .st34 {
        fill: url(#linear-gradient4);
      }

      .st35 {
        fill: url(#linear-gradient5);
      }

      .st36 {
        fill: url(#linear-gradient3);
      }

      .st37 {
        fill: #477fcc;
      }

      .st38, .st54 {
        opacity: .2;
      }

      .st54 {
        fill: url(#linear-gradient7);
      }

      .st39 {
        fill: #181e36;
      }

      .st40 {
        fill: #c47770;
      }

      .st41 {
        fill: #4a5cd8;
      }

      .st60 {
        stroke: #1c478a;
      }
    </style>
    <linearGradient id="linear-gradient" x1="-116" y1="77.5" x2="-115.7" y2="78.2" gradientTransform="translate(-5060.4 -4830.9) rotate(-180) scale(48.7 -65.4)" gradientUnits="userSpaceOnUse">
      <stop offset="0" stop-color="#15539e"/>
      <stop offset="1" stop-color="#092965"/>
    </linearGradient>
    <linearGradient id="linear-gradient1" x1="-120.4" y1="77" x2="-119.7" y2="77.3" gradientTransform="translate(-9205.4 -3620.2) rotate(-180) scale(81.4 -50.4)" gradientUnits="userSpaceOnUse">
      <stop offset="0" stop-color="#15539e"/>
      <stop offset="1" stop-color="#092965"/>
    </linearGradient>
    <linearGradient id="linear-gradient2" x1="-124.3" y1="79.2" x2="-125" y2="79.4" gradientTransform="translate(-33866.7 -29622.7) rotate(-180) scale(273.8 -376.5)" gradientUnits="userSpaceOnUse">
      <stop offset="0" stop-color="#4f6fce"/>
      <stop offset="1" stop-color="#3b3b5d"/>
    </linearGradient>
    <linearGradient id="linear-gradient3" x1="-124.5" y1="79.1" x2="-125.4" y2="79.3" gradientTransform="translate(-41373.3 -22728.1) rotate(-180) scale(333.1 -291.4)" gradientUnits="userSpaceOnUse">
      <stop offset="0" stop-color="#c0e1ff"/>
      <stop offset="1" stop-color="#fff"/>
    </linearGradient>
    <linearGradient id="linear-gradient4" x1="-107" y1="79.9" x2="-106.8" y2="80.5" gradientTransform="translate(-1623.4 -4090.5) rotate(-165) scale(27 -45.7)" gradientUnits="userSpaceOnUse">
      <stop offset="0" stop-color="#56a1ff"/>
      <stop offset="1" stop-color="#5187dc"/>
    </linearGradient>
    <linearGradient id="linear-gradient5" x1="-107" y1="79.9" x2="-106.8" y2="80.5" gradientTransform="translate(-1532.9 -4143) rotate(-165) scale(27 -45.7)" gradientUnits="userSpaceOnUse">
      <stop offset="0" stop-color="#56a1ff"/>
      <stop offset="1" stop-color="#5187dc"/>
    </linearGradient>
    <linearGradient id="linear-gradient6" x1="-199.3" y1="84.1" x2="-199.7" y2="84.2" gradientTransform="translate(1329.9 1743.7) rotate(90) scale(7.2 12.6)" gradientUnits="userSpaceOnUse">
      <stop offset="0" stop-color="#4f6fce"/>
      <stop offset="1" stop-color="#3b3b5d"/>
    </linearGradient>
    <linearGradient id="linear-gradient7" x1="-119.6" y1="77.1" x2="-120.2" y2="77.3" gradientTransform="translate(-9245.6 -3213.5) rotate(-180) scale(80.4 -47.4)" gradientUnits="userSpaceOnUse">
      <stop offset="0" stop-color="#364d83" stop-opacity=".6"/>
      <stop offset="1" stop-color="#b2c4ff"/>
    </linearGradient>
    <linearGradient id="linear-gradient8" x1="-109.6" y1="55" x2="-110.9" y2="55.1" gradientTransform="translate(-2529 -453) rotate(-180) scale(26.4 -12.6)" gradientUnits="userSpaceOnUse">
      <stop offset="0" stop-color="#4f6fce"/>
      <stop offset="1" stop-color="#3b3b5d"/>
    </linearGradient>
    <linearGradient id="linear-gradient9" x1="-131.4" y1="79.3" x2="-132.2" y2="79.5" gradientTransform="translate(10920.5 13587) rotate(90) scale(102 133.2)" gradientUnits="userSpaceOnUse">
      <stop offset="0" stop-color="#4f6fce"/>
      <stop offset="1" stop-color="#3b3b5d"/>
    </linearGradient>
    <linearGradient id="linear-gradient10" x1="-130.5" y1="79" x2="-131.3" y2="79.4" gradientTransform="translate(10358.4 15784.7) rotate(90) scale(119.4 126.6)" gradientUnits="userSpaceOnUse">
      <stop offset="0" stop-color="#c0e1ff"/>
      <stop offset="1" stop-color="#fff"/>
    </linearGradient>
    <linearGradient id="linear-gradient11" x1="-134.3" y1="78.4" x2="-134.7" y2="78.8" gradientTransform="translate(8872.6 -8326) scale(63.2 107.7)" gradientUnits="userSpaceOnUse">
      <stop offset="0" stop-color="#c0e1ff"/>
      <stop offset="1" stop-color="#fff"/>
    </linearGradient>
    <linearGradient id="linear-gradient12" x1="-106.8" y1="80" x2="-106.6" y2="80.6" gradientTransform="translate(-1458.8 -4047) rotate(-165) scale(26.3 -44.4)" gradientUnits="userSpaceOnUse">
      <stop offset="0" stop-color="#56a1ff"/>
      <stop offset="1" stop-color="#5187dc"/>
    </linearGradient>
    <linearGradient id="linear-gradient13" x1="-114.2" y1="78.3" x2="-114.1" y2="79" gradientTransform="translate(-4439.8 -9424.3) rotate(-180) scale(42.5 -124.6)" gradientUnits="userSpaceOnUse">
      <stop offset="0" stop-color="#15539e"/>
      <stop offset="1" stop-color="#092965"/>
    </linearGradient>
    <linearGradient id="linear-gradient14" x1="-78.1" y1="73.9" x2="-78.2" y2="73.6" gradientTransform="translate(-413.9 -1091.9) rotate(-180) scale(10.5 -18.3)" gradientUnits="userSpaceOnUse">
      <stop offset="0" stop-color="#30334f"/>
      <stop offset="1" stop-color="#181e36"/>
    </linearGradient>
    <linearGradient id="linear-gradient15" x1="94.8" y1="56.9" x2="94.4" y2="56.8" gradientTransform="translate(625 70.3) rotate(-180) scale(2.3 -3.6)" gradientUnits="userSpaceOnUse">
      <stop offset="0" stop-color="#fff"/>
      <stop offset="1" stop-color="#e6e6e6"/>
    </linearGradient>
    <linearGradient id="linear-gradient16" x1="-136" y1="89.2" x2="-135.8" y2="87.6" gradientTransform="translate(6459.3 2763.6) rotate(60) scale(36.4 44.4)" gradientUnits="userSpaceOnUse">
      <stop offset="0" stop-color="#bfd5ff"/>
      <stop offset="1" stop-color="#8493f2"/>
    </linearGradient>
    <linearGradient id="linear-gradient17" x1="-137.3" y1="84.8" x2="-137.3" y2="85.8" gradientTransform="translate(7912.4 1471.3) rotate(60) scale(33.4 68.5)" gradientUnits="userSpaceOnUse">
      <stop offset="0" stop-color="#6f49e5"/>
      <stop offset="1" stop-color="#a265e9"/>
    </linearGradient>
    <linearGradient id="linear-gradient18" x1="-133.3" y1="84.6" x2="-133.6" y2="84.3" gradientTransform="translate(10083.2 2871.5) rotate(60) scale(51.7 83)" gradientUnits="userSpaceOnUse">
      <stop offset="0" stop-color="#334a98"/>
      <stop offset="1" stop-color="#2f76ff"/>
    </linearGradient>
    <linearGradient id="linear-gradient19" x1="-137" y1="84.9" x2="-137.4" y2="85.5" gradientTransform="translate(7912.5 1442.5) rotate(60) scale(33.4 68.5)" gradientUnits="userSpaceOnUse">
      <stop offset="0" stop-color="#334a98"/>
      <stop offset="1" stop-color="#2f76ff"/>
    </linearGradient>
    <linearGradient id="linear-gradient20" x1="-134.3" y1="92.5" x2="-133.9" y2="91.7" gradientTransform="translate(6090.2 4154.2) rotate(60) scale(44.5 31.4)" gradientUnits="userSpaceOnUse">
      <stop offset="0" stop-color="#bfd5ff"/>
      <stop offset="1" stop-color="#8493f2"/>
    </linearGradient>
    <linearGradient id="linear-gradient21" x1="-138.9" y1="89.7" x2="-139.5" y2="90.8" gradientTransform="translate(5418.2 2117.9) rotate(60) scale(27.9 36.7)" gradientUnits="userSpaceOnUse">
      <stop offset="0" stop-color="#e1e9fe"/>
      <stop offset="1" stop-color="#c5d5fd"/>
    </linearGradient>
    <linearGradient id="linear-gradient22" x1="-131.7" y1="86.1" x2="-131.3" y2="84.5" gradientTransform="translate(10010.7 5193.9) rotate(60) scale(67.2 67.9)" gradientUnits="userSpaceOnUse">
      <stop offset="0" stop-color="#bfd5ff"/>
      <stop offset="1" stop-color="#8493f2"/>
    </linearGradient>
    <linearGradient id="linear-gradient23" x1="-132.9" y1="86.3" x2="-133.2" y2="85.9" gradientTransform="translate(8243.7 3763) rotate(60) scale(50.5 58.1)" gradientUnits="userSpaceOnUse">
      <stop offset="0" stop-color="#e1e9fe"/>
      <stop offset="1" stop-color="#c5d5fd"/>
    </linearGradient>
  </defs>
  <g class="st51">
    <g id="Layer_11" data-name="Layer_1">
      <g id="SEO-Optimization-Prebuild">
        <rect id="Rectangle" class="st45" x="-694" y="-122" width="1440" height="900"/>
        <path id="Path-245" class="st23" d="M795,435.4V6L32.3,371.8c-14.4,6.9-20.5,24.2-13.6,38.7,2.5,5.3,6.6,9.6,11.6,12.6l323.9,187.2c29.4,17,65.5,17.9,95.7,2.4l345-177.2h.1Z"/>
        <g id="SEO-Optimization">
          <g id="graphic-1">
            <g id="Group-75-Copy-4">
              <polygon id="Path-232" class="st37" points="509.5 267.2 473.9 287.2 473.9 119.4 509.5 98.4 509.5 267.2"/>
              <polygon id="Path-233" class="st21" points="473.9 287.2 439.9 267.1 439.9 99.8 473.9 119.4 473.9 287.2"/>
              <polygon id="Path-234" class="st43" points="473.9 119.4 509.5 98.4 476.1 79.2 439.9 99.8 473.9 119.4"/>
            </g>
            <g id="Group-75-Copy-2">
              <polygon id="Path-2321" class="st37" points="570.2 302.5 534.5 322.6 534.5 188.9 570.2 168 570.2 302.5"/>
              <polygon id="Path-2331" class="st21" points="534.5 322.6 500.5 302.4 500.5 169.4 534.5 188.9 534.5 322.6"/>
              <polygon id="Path-2341" class="st43" points="534.5 188.9 570.2 168 536.8 148.7 500.5 169.4 534.5 188.9"/>
            </g>
            <g id="Group-75-Copy">
              <polygon id="Path-2322" class="st37" points="633.4 339.8 597.8 359.9 597.8 278.7 633.4 257.7 633.4 339.8"/>
              <polygon id="Path-2332" class="st21" points="597.8 359.9 563.7 339.7 563.7 259.1 597.8 278.7 597.8 359.9"/>
              <polygon id="Path-2342" class="st43" points="597.8 278.7 633.4 257.7 600 238.4 563.7 259.1 597.8 278.7"/>
            </g>
            <g id="Group-75">
              <polygon id="Path-2323" class="st37" points="697.1 377.1 661.5 397.2 661.5 294.3 697.1 273.4 697.1 377.1"/>
              <polygon id="Path-2333" class="st21" points="661.5 397.2 627.5 377 627.5 274.8 661.5 294.3 661.5 397.2"/>
              <polygon id="Path-2343" class="st43" points="661.5 294.3 697.1 273.4 663.8 254.1 627.5 274.8 661.5 294.3"/>
            </g>
          </g>
          <g id="woman-sit-with-laptop">
            <g id="Group">
              <path id="Path-91" class="st20" d="M560.3,315.1c.9,1.6,0,4.4-2.5,8.4-3.8,6-7.4,8.1-11.3,8.6-4,.5-1.1-6.2,1.8-9.2,2-2,3.7-5.2,5.2-9.7l6.8,1.8h0Z"/>
              <path id="Path-72" class="st25" d="M555.5,299.8l-2.6,14.8c-2.6,5.3-4.6,8.6-6,10.1-2,2.3,2.9,4,6,1.9,2-1.4,4.3-4.6,7-9.8l4.2-14.9-8.6-2.2h0Z"/>
              <path id="Path-94" class="st20" d="M539.8,298c0,2.2-1,4-3.2,5.6-3.3,2.4-6,1.6-8.9,3.1s-11.5.4-12.2-2.7,9.9-3.9,10.6-4.3c.5-.2,5-.8,13.7-1.8h0Z"/>
              <path id="Path-72-Copy" class="st25" d="M541,285.2l-7.5,9.6c-1.2,1.5-2.8,2.7-4.6,3.4-3,1.1-5.3,1.9-7,2.2-3.2.6-2.6,3.3,1.8,4.4,2.5.6,6,.1,10.6-1.5,1.6-.6,3.1-1.5,4.2-2.7l.7-.7h0l8.4-8.7-6.6-5.9h0Z"/>
              <path id="Path-54" class="st26" d="M597,184.4c-4.5-.8-4.1-10.4,2.7-9.4,5.3,0,9.2-3.9,14,1.3s3.3,16.5,3.9,23.3c.6,6.7-1,6.6-5.2,8.3s-21.7,1.6-18-7.5,1.9-11.9,2.5-16h0Z"/>
              <path id="Path-65" class="st31" d="M594.7,239.5c-16.1,6.1-25.9,12.4-29.3,18.9s-7,20.5-10.6,42.2c3,4.1,6.8,5.3,11.5,3.5l14.5-44.1,22.6-13.2-8.7-7.3Z"/>
              <path id="Path-65-Copy" class="st18" d="M594.7,239.5c-16.1,6.1-25.9,12.4-29.3,18.9s-7,20.5-10.6,42.2c3,4.1,6.8,5.3,11.5,3.5l14.5-44.1,22.6-13.2-8.7-7.3Z"/>
              <g id="Path-52">
                <g id="Mask">
                  <path id="path-5" class="st0" d="M614.1,205.5c-1.6-1-6.7-1.7-11.5-2.6-1.6-.3-3.2-.9-4.6-1-2.2-.3-4.7.6-6.4,1.8s0,2.4-.9,7.4c-.8,5-2.6,10.8-1.5,13.9.7,2.1,1.9,3.5,3.5,4.4,0,5.7.6,9.4,2,11.2,2.1,2.7,13.9,7.6,19.5,4.5s-.5-8.7,1.9-16.7,7.1-12.4,6.3-16.1c-.7-3.8-5.7-5.1-8.2-6.8h0Z"/>
                </g>
                <path class="st18" d="M624.2,211.9c-4.9,2.9-8.1,6.9-9.4,12-2,7.6-5.7,7.8-10,7s-7.8-2.2-13.7-1.6c-5.9.6-2.2,2.7,2.1,2.2s6.6,0,10.7,1.7c4.1,1.6,7.7,1.6,10.1-.9-.7,4.5,0,7.5-9,9s11.6,14.6,17.2.9c3.7-9.1,4.4-19.2,2.1-30.3h0Z"/>
              </g>
              <path id="Path-64" class="st32" d="M619.5,244.5c1.3,8.4-.2,14.8-4.6,19.4-4.3,4.5-19.2,7.2-44.7,7.8l-20.4,21.1c-3.2,1.2-7-.3-11.3-4.5,10.7-15.1,18.6-24.7,23.8-28.9,5.2-4.1,18.9-9.7,41.1-16.7l16,1.8h.1Z"/>
              <path id="Path-77" class="st30" d="M605.3,241.3c-2.2.8-2.9,2.9-1.9,6.3,1.4,5.2,2.7,5.1,3.7,3.8s1.9-5.9.5-8c-.9-1.4-1.7-2.1-2.3-2.1Z"/>
              <g id="Group-8">
                <g id="Path-97">
                  <g id="Mask1">
                    <path id="path-8" class="st25" d="M601.7,199.6c0,1.7,0,2.8-.4,3.2-1.1-.4-2.2.3-3.2,2.1-1.5,2.8-2,5.8-1.2,8.5.9,2.8,5.3,3.9,9.3,1.6,5.5-3.2,5.5-9.8,5-10.4s-2.8-.5.6-11.8c2.2-7.5-1.1-5.3-10,6.7h0Z"/>
                  </g>
                  <path class="st38" d="M609.7,194.4s-1.6,8.7-8.5,8.3-1.6-4.5-.8-5.1c.8-.7,9.3-3.2,9.3-3.2Z"/>
                </g>
                <path id="Path-38" class="st25" d="M598.1,180.8c-.8,1.1-1.2,3.4-1.2,6.9,0,5.3-.5,12.5,3.7,12.7,4.2.1,6.8-1,9-3.8,1.5-1.9,2.2-3.1,2.2-3.6,1.3-.3,2.1-.9,2.3-1.9.3-1.4-.5-2.8-2.5-2.8s-8.6.9-11.2-7c-.5.2-.9.2-1.2.2s-.7-.3-1-.6h0Z"/>
              </g>
              <g id="Group-35">
                <path id="Path-157-Copy" class="st42" d="M573.7,238.1l33.9,19.6c.6.3.8,1.1.4,1.6,0,.2-.3.3-.4.4l-20,11.6c-.9.5-2,.5-3,0l-34-19.5c-.6-.3-.8-1.1-.4-1.6,0-.2.3-.3.4-.4l20.1-11.6c.9-.5,2.1-.5,3,0h0Z"/>
                <path id="Path-157" class="st16" d="M573.7,236.9l33.9,19.6c.6.3.8,1.1.4,1.6,0,.2-.3.3-.4.4l-20,11.6c-.9.5-2,.5-3,0l-34-19.5c-.6-.3-.8-1.1-.4-1.6,0-.2.3-.3.4-.4l20.1-11.6c.9-.5,2.1-.5,3,0h0Z"/>
                <path id="Path-158-Copy" class="st17" d="M586.8,270.5l-6.7-23.5c-.3-1.1-1-2-2-2.5l-31.8-17.9c-.2-.1-.5,0-.7,0l-.4.3c-.4.3-.5.8-.4,1.2l5.8,21.7h0l35.4,21.1.7-.4h.1Z"/>
                <path id="Path-158" class="st19" d="M586.1,271l-6.6-23.4c-.3-1.1-1-2-2-2.5l-31.9-17.9c-.3-.2-.6,0-.8.2v.4l5.3,22.6h0l36,20.5h0Z"/>
                <ellipse id="Oval" class="st50" cx="563.4" cy="249.4" rx="1.2" ry="1.8" transform="translate(-46.6 336.5) rotate(-32)"/>
              </g>
              <path id="Path-62" class="st25" d="M605.3,241.3c-8.7,1.8-13.9,2.7-15.4,2.7s-7.6.5-10.2,2l2.4,8c1.5-.3,3.1-1.3,4.6-2.8,1.1-1.2,2.2-1.9,3.2-1.9h19.2c.3-2.9,0-5-.5-6.3-.6-1.3-1.7-1.8-3.3-1.6h0Z"/>
              <g id="Group-36">
                <g id="Group-37">
                  <path id="Path-6" class="st30" d="M579.3,234.9c-.3,3.4.2,4.9,1.3,4.6s1.8-1.7,1.9-4.2l-3.2-.3h0Z"/>
                  <path id="Path-2" class="st25" d="M577.5,230.2l-13.1,6.6,5.8,3.2,11.1-2.4c2-2,2.2-3.8.4-5.5s-3.1-2.4-4.2-1.9h0Z"/>
                  <path id="Path-60" class="st0" d="M593.2,203c-.9.1-1.8.7-2.7,1.7-1,1.1-3,9.2-6,24.2l-7.6,1.6c3.5,2,4.8,5,3.8,9,4.5-.7,7.3-1.5,8.4-2.6.8-.8,5-10,6.1-22.3.2-2.7-.4-6.6-2-11.5h0Z"/>
                </g>
              </g>
              <path id="Path-57" class="st0" d="M620.3,208.9c3.4,2.8,5.2,6.2,5.2,10.2,0,6-2.9,24.7-4.1,26.3-.8,1.1-5.7,3.3-14.6,6.6,1.9-3.4,1.4-7-1.3-10.7,2-.7,5-1.7,9.1-3,.7-7.6,1.4-14.2,2.1-19.8.7-5.5,1.9-8.8,3.8-9.7h-.2Z"/>
            </g>
            <g id="graphic-3">
              <path id="Path-98" class="st13" d="M549.7,185.3v30.2c0,1.6.8,3,2.2,3.8l36.4,21.1c.7.4,1.6.2,2-.5,0-.2.2-.5.2-.7v-30.1c0-1.6-.8-3-2.2-3.8l-36.4-21.2c-.7-.4-1.6-.2-2,.5,0,.2-.2.5-.2.7Z"/>
              <polygon id="Rectangle-Copy-16" class="st14" points="553.1 190.9 557.2 193.3 557.2 214.3 553.1 212 553.1 190.9"/>
              <polygon id="Rectangle-Copy-15" class="st14" points="560.5 195.3 564.6 197.6 564.6 218.4 560.5 216.1 560.5 195.3"/>
              <polygon id="Rectangle-Copy-14" class="st14" points="567.8 199.1 571.9 201.5 571.9 222.5 567.8 220.2 567.8 199.1"/>
              <polygon id="Rectangle-Copy-13" class="st14" points="575.1 203.2 579.2 205.5 579.2 226.6 575.1 224.3 575.1 203.2"/>
              <polygon id="Rectangle-Copy-12" class="st14" points="582.4 207 586.5 209.4 586.5 229.8 582.4 227.5 582.4 207"/>
              <polygon id="Rectangle1" class="st16" points="553.1 203.8 557.2 206.1 557.2 217.8 553.1 215.5 553.1 203.8"/>
              <polygon id="Rectangle-Copy-8" class="st16" points="560.5 213.8 564.6 216.1 564.6 221.9 560.5 219.6 560.5 213.8"/>
              <polygon id="Rectangle-Copy-10" class="st16" points="567.8 212 571.9 214.3 571.9 226 567.8 223.7 567.8 212"/>
              <polygon id="Rectangle-Copy-9" class="st16" points="575.1 212.6 579.2 214.9 579.2 230.1 575.1 227.8 575.1 212.6"/>
              <polygon id="Rectangle-Copy-11" class="st16" points="582.4 210.5 586.5 212.9 586.5 233.4 582.4 231 582.4 210.5"/>
            </g>
          </g>
          <g id="mac">
            <g>
              <path id="Path-521" class="st43" d="M209.3,333.5l-9.4,29c-4.5,14,1.3,29.2,14,36.6l46.7,27.2c5.6,3.3,12.6,3.3,18.3,0l49.2-28.5c3.7-2.2,5-6.9,2.8-10.7-.7-1.2-1.6-2.1-2.8-2.8l-45.9-27.1c-12.5-7.4-18.2-22.4-13.9-36.2l6.9-22.1h0l-65.8,34.4v.2Z"/>
              <g id="Path-53">
                <path id="Mask2" class="st19" d="M211.8,333.2l-9.4,28.2c-4.7,14.1,1.2,29.6,14.2,37l44.6,25.4c5.6,3.2,12.4,3.2,17.9,0l50.1-28.3c3.7-2.1,5.1-6.9,3-10.6-.7-1.2-1.7-2.2-2.9-2.9l-43.4-25.1c-12.7-7.3-18.6-22.6-14.1-36.5l6.8-21.3h0l-66.8,34.1h0Z"/>
                <path id="Combined-Shape" class="st28" d="M278.6,299.1l-4.5,2.3-64.1,37-7.7,23.1c-2.4,7.3-2,15,.8,21.7l69.9-40.3c-3.1-6.9-3.7-14.8-1.3-22.4l6.8-21.3h.1Z"/>
              </g>
              <g id="Group-3-Copy">
                <path id="Path-2-Copy" class="st23" d="M383.6,32.7l5.9,2.9c3.3,1.6,5.3,5.1,5.1,8.8l-13.7,189.5c-.7,9.3-5.6,17.7-13.4,22.8l-232.4,152.5c-3.8,2.5-8.6,2.8-12.6.9l-4.9-2.3c-2.7-1.3-4.5-4-4.5-7.1v-198.4c0-10.7,5.7-20.5,14.9-25.9L376.2,32.9c2.2-1.3,5-1.4,7.3-.3h.1Z"/>
                <path id="Path-2-Copy-4" class="st16" d="M395,42.9l-.3,198c0,10.6-5.7,20.4-14.9,25.8l-247.4,143.9c-3.7,2.2-8.5.9-10.7-2.8-.7-1.2-1.1-2.5-1.1-3.9v-197.1c0-10.6,5.6-20.4,14.8-25.8L383.2,36.1c3.7-2.2,8.5-.9,10.7,2.8.7,1.2,1.1,2.6,1.1,3.9h0Z"/>
              </g>
            </g>
            <g id="Rectangle2">
              <g id="Mask3">
                <path id="path-11" class="st33" d="M387.6,37.6l-254.6,149.3c-5.3,3.1-9.6,10.3-9.6,16.1v203.3c0,5.8,4.3,8,9.6,4.9l254.6-149.3c5.3-3.1,9.6-10.3,9.6-16.1V42.5c0-5.8-4.3-8-9.6-4.9Z"/>
              </g>
              <polygon class="st36" points="423.2 195.2 90.1 388.3 90.1 486.5 423.2 293.4 423.2 195.2"/>
              <polygon id="Path-21" class="st15" points="343.3 79.2 388.4 52.4 388.4 203.2 343.3 228.2 343.3 79.2"/>
            </g>
            <polygon id="Path-103" class="st16" points="140.8 197.4 388.4 52.4 388.4 202.9 140.8 343.7 140.8 197.4"/>
            <path id="Combined-Shape1" class="st22" d="M388.4,52.4l-30.4,17.8v149.6h.8l29.6-16.8V52.4Z"/>
            <g id="Graphic">
              <path id="Path-981" class="st23" d="M238.8,157.5v61.2c0,3.2-1.7,6.1-4.4,7.7l-73.7,42.8c-1.4.8-3.2.3-4.1-1.1-.3-.5-.4-1-.4-1.5v-61c0-3.2,1.7-6.1,4.4-7.7l73.7-43c1.4-.8,3.2-.3,4.1,1.1.3.5.4,1,.4,1.5h0Z"/>
              <path id="Path-152" class="st46" d="M175.6,208.6l19.9-11.4v-2l-19.8,11.4v2.1h0ZM172.9,207.3v9.1l-6.7,3.9v-9.2l6.7-3.8ZM193.3,203.5v2c-.1,0-17.7,10.1-17.7,10.1v-2l17.7-10.1Z"/>
              <path id="Path-152-Copy-4" class="st46" d="M175.6,225.8l19.9-11.4v-2l-19.8,11.4v2.1h0ZM172.9,224.5v9.1l-6.7,3.9v-9.2l6.7-3.8ZM193.3,220.7v2c-.1,0-17.7,10.1-17.7,10.1v-2l17.7-10.1Z"/>
              <path id="Path-152-Copy-5" class="st46" d="M175.6,241.8l19.9-11.4v-2l-19.8,11.4v2.1h0ZM172.9,240.6v9.1l-6.7,3.9v-9.2l6.7-3.8ZM193.3,236.7v2c-.1,0-17.7,10.1-17.7,10.1v-2l17.7-10.1Z"/>
              <g id="Group-42">
                <path id="Oval-Copy-17" class="st34" d="M209,221.6c-7.2-1.9-10.4-13.3-7.2-25.3s11.6-20.2,18.8-18.2c1.2.3,3.3.7,6.4,1,2.2,10.1,2.5,18.2.9,24.3-1.4,5.4-4.8,11.9-10.1,19.5-4.3-.4-7.2-.9-8.7-1.3h0Z"/>
                <g id="Path-236">
                  <ellipse id="Mask4" class="st56" cx="222.2" cy="201.2" rx="22.5" ry="13.2" transform="translate(-26.7 368.1) rotate(-76)"/>
                  <path id="Path-237" class="st46" d="M226,200.3l-5,22.6c-5.2,1.1-9.1-1.5-11.7-7.8-1.8-4.7-1.8-10.5,0-17.5l16.7,2.6h0Z"/>
                </g>
              </g>
            </g>
            <g id="Graphic1">
              <path id="Path-982" class="st23" d="M329.4,104.9v61.2c0,3.2-1.7,6.1-4.4,7.7l-73.7,42.8c-1.4.8-3.2.3-4.1-1.1-.3-.5-.4-1-.4-1.5v-61c0-3.2,1.7-6.1,4.4-7.7l73.7-43c1.4-.8,3.2-.3,4.1,1.1.3.5.4,1,.4,1.5Z"/>
              <path id="Path-1521" class="st46" d="M266.1,156l19.9-11.4v-2l-19.8,11.4v2.1h-.1ZM263.4,154.7v9.1l-6.7,3.9v-9.2l6.7-3.8ZM283.8,150.9v2c-.1,0-17.7,10.1-17.7,10.1v-2l17.7-10.1Z"/>
              <path id="Path-152-Copy-41" class="st46" d="M266.1,173.2l19.9-11.4v-2l-19.8,11.4v2.1h-.1ZM263.4,172v9.1l-6.7,3.9v-9.2l6.7-3.8ZM283.8,168.1v2c-.1,0-17.7,10.1-17.7,10.1v-2l17.7-10.1Z"/>
              <path id="Path-152-Copy-51" class="st46" d="M266.1,189.2l19.9-11.4v-2l-19.8,11.4v2.1h-.1ZM263.4,188v9.1l-6.7,3.9v-9.2l6.7-3.8ZM283.8,184.2v2c-.1,0-17.7,10.1-17.7,10.1v-2l17.7-10.1Z"/>
              <g id="Group-421">
                <path id="Oval-Copy-171" class="st35" d="M299.5,169c-7.2-1.9-10.4-13.3-7.2-25.3,3.2-12,11.6-20.2,18.8-18.2,1.2.3,3.3.7,6.4,1,2.2,10.1,2.5,18.2.9,24.3-1.4,5.4-4.8,11.9-10.1,19.5-4.3-.4-7.2-.9-8.7-1.3h0Z"/>
                <g id="Path-2361">
                  <ellipse id="Mask5" class="st56" cx="312.6" cy="148.5" rx="22.5" ry="13.2" transform="translate(92.9 415.9) rotate(-76)"/>
                  <path id="Path-2371" class="st46" d="M316.5,147.7l-5,22.6c-5.2,1.1-9.1-1.5-11.7-7.8-1.8-4.7-1.8-10.5,0-17.5l16.7,2.6h0Z"/>
                </g>
              </g>
            </g>
            <path id="Path-22" class="st57" d="M159,321.7l172.9-97.7c1.9-1.1,3.1-3.2,3-5.4l-.8-31.4c0-1-.9-1.8-1.8-1.8s-.6,0-.9.2l-172.1,101c-1.8,1.1-3,3-3,5.2v28.3c0,1,.8,1.8,1.8,1.8s.6,0,.9-.2h0Z"/>
            <ellipse id="Oval1" class="st48" cx="269.1" cy="307.5" rx="6.3" ry="3.6" transform="translate(-106.5 468.4) rotate(-72)"/>
          </g>
          <g id="web-development-copy">
            <g id="man-with-lup">
              <ellipse id="Oval-Copy-24" class="st54" cx="407" cy="449.1" rx="40.2" ry="23.7"/>
              <path id="Path-229" class="st43" d="M437.1,368.3l-44.3-132.5c-.2-.6-.9-1-1.5-.8h0l-22.1,9.4c-.6.2-.9.9-.7,1.5l43.3,139.2h0c3.6,7.6,9.9,9.4,18.7,5.7,8.8-3.8,11-11.2,6.7-22.4h-.1Z"/>
              <ellipse id="Oval2" class="st49" cx="380.5" cy="241" rx="13.2" ry="6.3" transform="translate(-65.1 175.6) rotate(-24)"/>
              <g id="Group1">
                <g id="Oval3">
                  <path id="Mask6" class="st19" d="M358.4,207.3l15.8-5.7,11.9,32.7c1.2,3.4-.5,7.2-3.9,8.5l-3.4,1.2c-3.4,1.2-7.2-.5-8.5-3.9l-11.9-32.7h0Z"/>
                  <path id="Path-23" class="st18" d="M361.9,216.8l2.9,8c3.3,0,6.3-.7,9.1-1.9,2.8-1.3,4.8-3.3,5.9-6.1l-2.1-5.6-15.8,5.6Z"/>
                </g>
                <ellipse id="Oval-Copy" class="st47" cx="344.6" cy="155.4" rx="66.6" ry="51" transform="translate(131.7 467.8) rotate(-80)"/>
                <ellipse id="Oval4" class="st61" cx="358.4" cy="154.8" rx="66.6" ry="51" transform="translate(143.7 480.9) rotate(-80)"/>
                <g id="Oval-Copy-3">
                  <g id="Mask7">
                    <ellipse id="path-20" class="st44" cx="358.5" cy="155.4" rx="56.4" ry="43.2" transform="translate(143.2 481.5) rotate(-80)"/>
                  </g>
                  <g id="Rectangle3">
                    <g>
                      <g id="Mask8">
                        <ellipse id="path-23" class="st55" cx="334.9" cy="153.5" rx="63.3" ry="59.7" transform="translate(141.7 467.2) rotate(-83)"/>
                      </g>
                      <path id="Combined-Shape2" class="st7" d="M363.3,101c20.8,6.8,33.2,33.3,28.2,61.9-3.9,22-17,39.2-32.8,45.7-20.8-6.8-33.2-33.3-28.2-61.9,3.8-21.8,16.8-38.9,32.3-45.6l.4-.2h.1Z"/>
                      <g id="Group-47-Copy">
                        <g>
                          <path id="Path-983" class="st43" d="M348.2,93.8v59.3c0,3.1-1.7,6-4.3,7.5l-72,41.5c-1.4.8-3.2.3-3.9-1.1-.3-.4-.4-.9-.4-1.4v-59.1c0-3.1,1.6-6,4.3-7.5l72-41.7c1.4-.8,3.2-.3,4,1.1.3.4.4.9.4,1.4h-.1Z"/>
                          <path id="Path-1522" class="st46" d="M286.4,143.3l19.4-11.1v-1.9l-19.3,11v2h-.1ZM283.8,142.1v8.9l-6.5,3.7v-8.9l6.5-3.7ZM303.7,138.3v1.9c-.1,0-17.3,9.8-17.3,9.8v-1.9l17.3-9.8Z"/>
                          <path id="Path-152-Copy-42" class="st46" d="M286.4,160l19.4-11.1v-1.9l-19.3,11v2h-.1ZM283.8,158.8v8.9l-6.5,3.7v-8.9l6.5-3.7ZM303.7,155v1.9c-.1,0-17.3,9.8-17.3,9.8v-1.9l17.3-9.8Z"/>
                          <path id="Path-152-Copy-52" class="st46" d="M286.4,175.5l19.4-11.1v-1.9l-19.3,11v2h-.1ZM283.8,174.3v8.9l-6.5,3.7v-8.9l6.5-3.7ZM303.7,170.6v1.9c-.1,0-17.3,9.8-17.3,9.8v-1.9l17.3-9.8Z"/>
                          <g id="Group-422">
                            <path id="Oval-Copy-172" class="st10" d="M319.1,155.9c-7-1.9-10.2-12.9-7.1-24.5,3.1-11.7,11.4-19.6,18.4-17.7,1.2.3,3.2.6,6.2,1,2.1,9.8,2.4,17.7.8,23.5-1.4,5.3-4.7,11.6-9.9,18.9-4.2-.4-7-.8-8.5-1.2h.1Z"/>
                            <g id="Path-160">
                              <g id="Mask9">
                                <ellipse id="path-27" class="st56" cx="330.9" cy="135.8" rx="21.9" ry="13.2" transform="translate(114.1 420.3) rotate(-75)"/>
                              </g>
                              <path class="st16" d="M318.6,126.8l14.6,9.6-9.7,23c-5-3.3-7.5-8.7-7.5-16.3s.9-13,2.5-16.3h.1Z"/>
                            </g>
                          </g>
                        </g>
                      </g>
                      <rect id="Rectangle4" class="st53" x="358" width="77.7" height="219.7"/>
                    </g>
                  </g>
                  <path id="Path-217" class="st57" d="M347.5,172l-.2,27.5c0,1.5-.8,3-2.2,3.7l-161.2,91.3c-.8.4-1.8.2-2.2-.6-.1-.2-.2-.5-.2-.8v-25.3c0-1.5.8-3,2.2-3.7l161.4-93.4c.8-.4,1.8-.2,2.2.6.1.3.2.5.2.8h0Z"/>
                </g>
              </g>
              <g id="man-1-copy-2">
                <path id="Path-11" class="st26" d="M431.9,443.4c.2,1.3.3,2.2.3,2.9,0,1-1.7,2.5-5,2.3-3.4-.3-6.2-3.4-6.5-3.7-.3-.3.3-2.9-1.7-3.6s-2.4.7-5.6-1.4c-3.3-2.1-3.1-7.6-1.3-8.9,1.2-.9,7.9,3.3,19.9,12.5h0Z"/>
                <path id="Path-12" class="st26" d="M408.2,458.5c.4,1,.5,2,.5,3.1,0,1.6-3.2,2.5-7.1,2.5s-2.4-1.6-5-2.1-2.3,1.2-6.1,1.2-9-.8-9.8-4.7c-.5-2.6,8.6-2.6,27.3,0h.2Z"/>
                <path id="Path-10" class="st39" d="M430.9,432.7c.7,1.5,1.1,5,1.3,10.6-.5,2.3-2.3,3.3-5.3,2.9-4.6-.6-3.7-2.7-10.5-6.2-6.9-3.5-6.4-8.1-4.6-9.2s4.1-1.8,9.8-.2c3.8,1.1,7,1.8,9.4,2.1h0Z"/>
                <path id="Path-9" class="st39" d="M394.9,447.3c-.9,2.3-3.2,3.8-6.9,4.4-5.5.9-8.4,3.2-7.9,5.5s3.3,5,9.4,4.4,7.4,0,10.5.3,6.8.3,8.3-2.2c.4-2,.4-4.4,0-7.4-.6-4.4-1.5-4.8-1.5-6.3s-4-.6-12,1.2h.1Z"/>
                <path id="Path-15" class="st40" d="M394.7,270.3c-.6,1.3-1.1,2.2-1.6,2.6-.7.7.1,1.6.9,1.6s.8-1.4.8-4.2h0Z"/>
                <path id="Path-8" class="st11" d="M390.7,334.6c-1.7,2.7-1.2,9.5-1.4,15.5-.4,13.7.9,30,.9,33.2,0,4.6,2.1,37.6,2.1,45.2s.3,11.2.8,18.4c6.1,3,11.2,2.9,15.3-.3-.9-41.6-1.3-63.7-1.3-66.2s.2-4.5.5-5.9c3.5,15.5,5.2,24.3,5.2,26.4s1.8,12.9,5.5,32.4c2.2,2,4.7,2.7,7.5,2.2,2.7-.5,4.7-1.6,6-3.1-.8-19.3-2.4-31.3-4.5-35.9-.5-9-2.8-33.3-2.8-39.3s2.8-17.4-.7-27.6-27.4-4-32.9,4.8l-.2.2Z"/>
                <path id="Path-17" class="st60" d="M393.8,333.4c-1.8,1.5-.7,52.4-.7,62.6s1.1,23.6,3.3,50.4"/>
                <ellipse id="Oval5" class="st58" cx="394" cy="269.1" rx="3" ry="2" transform="translate(16.3 560.7) rotate(-72)"/>
                <path id="Path-7" class="st42" d="M422.6,324.2c.6,0,.9.8.9,2.3,0,2.2-2.4,5-4.9,6.7-2.4,1.6-9.6,3.5-20.9,2.4-3.8-.7-5.9-2.8-6.4-6.2l31.3-5.1h0Z"/>
                <path id="Rectangle5" class="st26" d="M397.9,265.6h-2.3c-.3,0-.6.3-.6.6h0c0,.3.3.6.6.6h2.3c.3,0,.6-.3.6-.6h0c0-.3-.3-.6-.6-.6Z"/>
                <path id="Path-3" class="st27" d="M398,260.8c-1.9,3.6-2.8,6.1-2.8,7.5,0,2.2-1.4,2.1-1.4,5s-.2,8.8,1.4,10.2c1,.9,2.9,1.2,5.7.7.4,3,.4,4.9,0,5.6s-1,1.3-1.7,1.7c5.5-.4,9-.9,10.6-1.7s2.1-2.2,1.8-4.2c-.6,0-.9-.1-.9-.6v-5.6c.6-8.3-.1-13.6-2.1-15.9s-5.5-3.1-10.6-2.6h0Z"/>
                <path id="Path" class="st27" d="M383.3,282.8c0-1.6-3.5-8.6-10.5-21.1-.4,13.8.8,22.7,3.7,26.7,4.5-2.1,6.8-4,6.8-5.6Z"/>
                <path id="Path-231" class="st27" d="M428.7,309c.7,7.4-.8,12.4-4.8,15.2l-2.3-15.9,7.1.7h0Z"/>
                <path id="Path-230" class="st0" d="M421.4,288.4c3.1,4,5.9,10.6,8.2,19.8-.7,2.4-2.7,3.6-6.1,3.6l-2.1-23.4Z"/>
                <g id="Path-40">
                  <g id="Mask10">
                    <path id="path-30" class="st0" d="M397.3,292.8c-1.7-1.1-2.8-1.8-3.4-2.1-1.6-.7-9.3-10.6-9.9-10.3-1.9.9-7.4,3.3-8.6,9.4,6.3,7.9,11.2,14.1,14.9,18.7,2.4,3.2.5,15.2,0,18.5-.3,2.2.4,4,2.2,5.5,6.4,2.6,14.3,2.4,23.5-.6,4.1-1.6,6.6-3.8,7.7-6.5.7-1.6.7-5.2,0-11,1.2-8.5.8-19.2-1.2-23.7s-5.9-6-9.8-4.3c-.6.3-1-.3-1.1-1.7l-14.3,8.1h0Z"/>
                  </g>
                  <path id="Path-20" class="st52" d="M425.5,293.4c-6.2,8.9-17.7,14.1-34.8,15.6"/>
                </g>
                <g id="Path-19">
                  <g id="Mask11">
                    <path id="path-32" class="st26" d="M405.1,273.6c1.1,0,3,.2,1.5,4-1.5,3.7,2.7,5.9,4,5.4s5.7-7.1,8-8.9c1.5-1.2,1.4-3.4-.3-6.8,1.3-3.5.4-6-2.7-7.5-4.7-2.3-12.3-6.4-15.5-5.5-2.2.6-3,1.4-2.4,2.4-3.5,1.6-4.3,3.3-2.5,5.1,1.8,1.8,4.4,3,7.6,3.6-2.2,1.2-3.1,2.6-2.7,4.1.6,2.2,1.2,4.9,0,6.7-1.2,1.9-5.8,1.7-6.2,0-.6,1.3-.4,5.3-.2,6.3.2.9-.6,2.4,3.7,2.4s2.6-4.2,3.9-7.2,2.8-4,3.9-4h0Z"/>
                  </g>
                  <path class="st6" d="M402.7,265.2c7.2,1,8.4,5.3,3.9,13-6.9,11.5-2.6-2.3-6.1-3.8-2.3-.9-2.3-4.3,0-10l2.2.7h0Z"/>
                </g>
                <path id="Path-5" class="st41" d="M410.8,284c.2.8-1,1.5-3.6,2.1-3.8,1-7,2.2-8.6,4.6l-1.6,2.1c8.3-2.1,13.2-3.7,14.6-4.9,2.1-1.7.5-2.7.5-2.7l-1.3-1.3h0Z"/>
                <path id="Path-13" class="st29" d="M409.2,343.7v3c-3.9,1.3-8,1.4-12.2.6v-2.6c2.9.1,5.1.1,6.5,0s3.3-.4,5.7-1Z"/>
                <path id="Path-14" class="st29" d="M407.5,374.5l.9-15.9c1.5-.3,2.8-.7,3.7-1.3,1-.6,2.2-1.6,3.5-3.1.3,5.8-.1,10.9-1.2,15.4-1.7,6.7-4.6,13.7-4.2,17.4l-2.8-12.5h.1Z"/>
                <line id="Path-16" class="st59" x1="392.5" y1="267.6" x2="404.3" y2="273"/>
                <line id="Path-18" class="st60" x1="410.5" y1="372.5" x2="419.8" y2="434.4"/>
                <path id="Path-4" class="st60" d="M416.3,338.8c2.2,10.4.6,16.8-4.9,19.3"/>
                <path id="Path-42" class="st27" d="M403.2,274.5c1.2-1.4,2.3-1.9,3.1-1.4,1.3.7,1.8,2.6,0,5-1.2,1.6-2.4,1.8-3.6.5l.5-4.1Z"/>
                <path id="Path-42-Copy" class="st24" d="M403.4,275.3c.6-.8,1.1-1,1.5-.8.6.4.9,1.4,0,2.7-.6.9-1.2,1-1.8.3l.2-2.2h0Z"/>
              </g>
            </g>
          </g>
          <g id="graphic-2">
            <g id="Group-72">
              <path id="Combined-Shape3" class="st8" d="M598,421.8l4.6-8.4v28c.3,5-2.2,10.1-7.5,14.3l-32.8-23.1,32.7-13.4c1.1.9,2,1.8,2.9,2.7h0Z"/>
              <path id="Combined-Shape4" class="st9" d="M562.5,432.6l-40-2.5c.8-5.2,4.6-10.2,11.4-14.2,15.6-9,41-8.9,56.8.1,1.7,1,3.2,2,4.5,3.1l-32.7,13.4h0Z"/>
              <polygon id="Combined-Shape-Copy-14" class="st12" points="562.5 432.6 522.4 430.1 522.5 401.4 595.3 390.4 595.2 419.2 562.5 432.6"/>
              <path id="Combined-Shape-Copy-8" class="st5" d="M562.6,403.9l-40-2.5c.8-5.2,4.6-10.2,11.4-14.2,15.6-9,41-8.9,56.8.1,1.7,1,3.2,2,4.5,3.1l-32.7,13.4h0Z"/>
              <polygon id="Combined-Shape-Copy-9" class="st2" points="595.3 426.8 595.3 445.9 562.5 432.6 562.5 413.4 595.3 426.8"/>
              <path id="Combined-Shape-Copy-7" class="st1" d="M595.3,400c9.9,8,10,18.8,0,26.8l-32.8-13.3,32.7-13.4h0Z"/>
              <path id="Combined-Shape5" class="st3" d="M524.6,430.3l37.8,2.3,22.9,9.3c2-.8,4-1.7,5.8-2.8s2.9-1.8,4.1-2.8v19.3c-1.3,1-2.7,1.9-4.2,2.8-15.6,9-41,8.9-56.8-.1-8.9-5.1-12.8-11.9-11.9-18.5v-19.3c-.4,3.3.3,6.6,2.2,9.7h.1Z"/>
              <path id="Combined-Shape-Copy-6" class="st4" d="M522.5,420.6l40,2.5,32.8,13.3c-1.2,1-2.6,1.9-4.1,2.8-15.6,9-41,8.9-56.8-.1-8.9-5.1-12.8-11.9-11.9-18.5h0Z"/>
            </g>
          </g>
        </g>
      </g>
    </g>
  </g>
</svg>