<?xml version="1.0" encoding="UTF-8"?>
<svg id="Layer_1" xmlns="http://www.w3.org/2000/svg" version="1.1" viewBox="0 0 1296 1333.36">
  <!-- Generator: Adobe Illustrator 29.0.1, SVG Export Plug-In . SVG Version: 2.1.0 Build 192)  -->
  <defs>
    <style>
      .st0 {
        fill: #e13987;
      }

      .st1 {
        fill: #e13988;
      }

      .st2 {
        fill: #f09600;
      }

      .st3 {
        fill: #e41e2b;
      }

      .st4 {
        fill: #f09501;
      }
    </style>
  </defs>
  <path class="st4" d="M648.96,332.71c1.33,47.86,3.88,81.76,21.36,126.96,75.39,194.93,316.17,267.89,487.74,146.46,87.6-61.99,139.18-165.57,136.02-273.42h1.92v334.08h-1.92c-215.03,0-430.1,0-645.12,0,2.44-70.51-18.88-140.98-59.69-198.07-68.49-95.8-183.57-146.27-301.26-133.14v-2.88h360.96Z"/>
  <path class="st2" d="M2.88,332.71h285.12v2.88c-62.92,7.02-131.06,37.94-177.6,80.64-3.83-.7-3.05,1.84-3.84,2.88-6.67,8.75-17,17.22-24.49,25.91C29.57,505.85.91,586.03,3.84,666.79H0v-334.08h2.88Z"/>
  <path class="st0" d="M3.84,666.79c97.08,0,194.3-1.04,291.37-.02,1.62.02,4.27-.61,5.27.98-1.27.09-2.58-.11-3.84,0-1.7.14-3.72.74-5.76.96-.94.1-1.94-.11-2.88,0-1.47.17-3.14.72-4.8.96-1.43.21-2.5.9-2.88.96-1.2.18-2.65-.19-3.84,0-.61.1-1.31-.1-1.92,0-1.15.19-2.76.56-3.84.96-.75.28-1.09-.31-1.92.96-16.86,1.42-33.08,7.02-48.96,12.48-1.82.63-3.26,1.36-4.8,1.92-1.82.67-3.62,1.11-5.76,1.92-.79.3-1.37.74-1.92.96-1.9.76-5.16.36-6.72,2.88-1.75.23-2.27.43-3.84.96-1.94.65-3.95,2.11-5.76,2.88-.73.31-1.32.69-1.92.96-.68.3-1.27.65-1.92.96-4.81,2.29-10.69,3.7-14.4,7.68-2.53-.06-4.04,1.97-5.76,2.88-.63.33-1.27.61-1.92.96-3.58,1.96-7.99,3.3-10.56,6.72-3.69.7-5.13,2.49-7.68,4.8-2.7.29-4.01,2.16-5.76,3.84-.32.31-.63.66-.96.96-4.24,1.44-7.51,4.07-9.6,7.68-3.55,1.4-7.27,3.09-9.6,6.72-.21.32-.75.58-.96.96-2.78-.07-3.45,2.66-4.8,3.84-.8.7-1.33,1.38-1.92,1.92-2.05,1.85-3.47,3.56-4.8,4.8C38.99,817.15-.1,902.04,3.84,998.95v.96H0v-333.12h3.84Z"/>
  <path class="st0" d="M1296,666.79v333.12h-1.92c-99.5,0-199.06,0-298.56,0l33.78-5.1c134.37-24.23,241.08-133.79,260.78-269.14,2.84-19.49,3.46-39.2,4-58.88h1.92Z"/>
  <path class="st1" d="M648.96,332.71H2.88c-1.1-61.54,13.99-122.24,45.31-175.01,118.08-198.92,402.98-212.34,539.15-24.98,45.72,62.91,59.48,123.05,61.62,199.98Z"/>
  <path class="st1" d="M1294.08,332.71c3.16,107.85-48.42,211.43-136.02,273.42-171.57,121.42-412.35,48.47-487.74-146.46-17.48-45.2-20.03-79.1-21.36-126.96,215.02,0,430.1,0,645.12,0Z"/>
  <path class="st2" d="M944.64,999.91h50.88c99.5,0,199.06,0,298.56,0,4.78,138.97-82.26,267.23-212.62,313.94-212.49,76.14-431.68-80.07-433.53-303.84-.03-3.55,1.08-6.58,1.03-10.1h295.68Z"/>
  <path class="st2" d="M343.68,666.79c-.85,3.59,3.12,5.12,5.83,3.39.88-.56.6-1.91.89-2.43,2.32.15,4.19.82,5.76.96.18,4.02,4.62,4.02,4.8,0,.94.1,1.94-.11,2.88,0,.38,4.07,5.34,5.82,5.76.96.62.08,1.31-.09,1.92,0-.41,4.22,3.28,5.57,3.84.96.61.09,1.31-.1,1.92,0,.08,5,4.75,1.77,5.6,2.15,8.27,3.64,22.52,5.66,33.79,8.87,5.48,1.56,12.48,6.35,18.22,4.34.95.34,1.92.59,2.88.96-.48,2.53,5.22,4.09,7.38,4.56.65.14,1.19-.74,1.26-.72,1.35.33,2.03.71,2.88.96l-.95.49v1.43s3.83-.95,3.83-.95c.83.27,1.38.75,1.92.96-.3,2.91,5.22,4.84,6.72,2.88,1.57.7,2.54,1.29,3.84,1.92.55,3.45,8.52,7.01,11.52,5.76,1.93,1.15,2.45.06,4.8,2.88,1.1,1.33,2.18,5.9,5.76,2.88.9.63,1.46-.26,2.88,1.92.38.59-.92,2.51,1.43,1.91.67-.17.44-.94.49-.95.58-.07,1.35.26,1.92.51.61.29.67.97.96,1.41.39.6-.93,2.49,1.43,1.91.67-.16.44-.94.49-.95,1.94-.23,2.44,1.69,2.88,1.92,1.98,4.66,9.45,9.14,14.4,9.6.33.31.65.62.96.96.75.8,2.74,4.43,2.98,4.66.64.61,2.9-.33,3.61.27.76.64-.41,4.64,4.82,3.88-.22,3.73,1.17,2.75,3.95,2.71.35.29.62.67.96.96l1.4,3.95,1.15.68c.66.12,1.19-.8,1.29-.79,2.61.27,2.2,1.51,2.88,1.92l.13,3.68c1.29,1.03,3.47.66,4.67,1.12,3.97,1.52,5.97,4.47,8.64,7.68.28.33.32,1.82,1.35,2.95,1.37,1.49,2.96,1.44,3.45,1.85,3.17,2.64,4.95,4.83,7.68,7.68-.24,4.51,1,6.85,5.76,6.72.39.67,1.74.66,1.92,2.88.01.13-1.73-.19-.53,1.95.99,1.77,3.79,1.58,4.17,2.08.57.74-.06,2.71.63,3.69s2.76.59,3.22,1.1c1.18,1.32-1.61,2.61,3.07,4.62.36.97.47,3.16,1.14,3.69.55.44,1.47,0,1.74.15,2.06,6.3,3.5,4.18,5.47,7,1.49,2.13,1.88,10.15,7.01,9.32.47.71.66,1.45.96,1.92-.3,2.02.28,3.37,1.11,5.12,1.43,3.02,4.87,8.37,6.79,11.45.99,1.58,1.47,2.6,3.61,2.63,1.13,2.09,1.89,3.84,2.88,5.76l-.85.64c.05,2.32,2.18,7.31,4.69,7.04,1.23,2.54,1.9,4.57,2.88,6.72-2.03,1.86-.24,5.91,2.88,4.8.44,1.01.61,2.04.96,2.88-2.12,1.12-.53,3.01-.04,4.36,1.15,3.17,2.43,6.65,3.73,9.75.63,1.5.74,3.67,3.03,3.17.92,2.59,1.97,4.88,2.88,7.68-3.05-.38-1.71.9-1.28,2.72,3.12,13.41,8.82,27.96,9.22,40.74.07,2.19.85,8.85,4.55,7.42.09.61-.09,1.31,0,1.92-4.74.5-2.91,4.23.96,4.8.12.93-.11,1.95,0,2.88l-2.88,1.45c-.34,1.56,1.57,2.5,2.88,2.39.14,1.29.77,2.83.96,4.8h-2.88c-.24,2.57-.15,4.87,2.88,4.8.17,2.11.78,4.82.96,7.68-4.91.28-3.82,9.63.96,9.6.25,6.69-.09,13.46,0,20.16H4.8l-.96-.96c-3.94-96.91,35.15-181.8,104.64-246.72,2.89,2.38,5.12-1.88,4.8-4.8.59-.54,1.12-1.22,1.92-1.92,5.67.9,3.83-2.1,4.8-3.84.21-.38.75-.64.96-.96,5.12,1.31,4.09-2.86,4.98-3.65.6-.53,2.6-.01,3.69-.64s.66-1.96.93-2.43c3.97-1.56,6.72-5.1,9.6-7.68.33-.3.64-.65.96-.96.72.43,5.3-1.91,5.53-2.13.59-.57.12-1.62.23-1.71,2.55-2.31,3.99-4.1,7.68-4.8.05-.01-.14,1.01.52.94,1.86-.19,10.16-4.79,10.04-7.66.65-.35,1.29-.63,1.92-.96,3.59,3.15,4.8-1.85,5.76-2.88,3.71-3.98,9.59-5.39,14.4-7.68l.49.95h1.43s0-1.91,0-1.91c.6-.27,1.19-.65,1.92-.96,2,2.1,6.95.61,5.76-2.88,1.57-.53,2.09-.73,3.84-.96.14-.02.52,1,2.82.57,1.44-.27,4.66-1.69,3.9-3.45.55-.22,1.13-.66,1.92-.96,1.35,1.97,6.56.71,5.76-1.92,1.54-.56,2.98-1.29,4.8-1.92,1.39,1.34,5.02-.06,6.73-.47,8.8-2.14,17.45-5.14,26.26-7.33,4.77-1.19,11.16-1.5,15.35-2.73,1.27-.37.4-1.61.61-1.94.83-1.27,1.17-.68,1.92-.96v1.92s3.84,0,3.84,0v-2.88c.61-.1,1.32.1,1.92,0-.11,1.3.83,3.22,2.39,2.88l1.45-2.88c.38-.06,1.45-.75,2.88-.96-.1,1.32.8,3.21,2.39,2.88l2.41-3.84c.94-.11,1.94.1,2.88,0,.35,4.68,6.54,3.79,5.76-.96,1.26-.11,2.57.09,3.84,0,.32-.02.64.02.96,0-.09,4.16,6.81,4.16,6.72,0,11.61-.55,23.62-1.53,35.52-.96Z"/>
  <polygon class="st2" points="4.8 999.91 3.84 999.91 3.84 998.95 4.8 999.91"/>
  <path class="st3" d="M288,335.59c117.69-13.14,232.77,37.34,301.26,133.14,40.82,57.09,62.13,127.55,59.69,198.07,215.03,0,430.1,0,645.12,0-.54,19.68-1.16,39.39-4,58.88-19.7,135.35-126.41,244.91-260.78,269.14l-33.78,5.1h-50.88c-9.17-2.04-18.6-2.68-27.86-4.3-78.54-13.71-149.18-54.91-198.66-117.18-47.47-59.76-72.21-134.97-70.12-211.64l-295.29-.05c-1.15.14-1.62-.21-2.31,1.01-2.44-.16-4.83-.87-6.72-.96-11.9-.57-23.91.41-35.52.96-2.22.1-4.5-.15-6.72,0-.32.02-.64-.02-.96,0-1-1.59-3.64-.96-5.27-.98-97.07-1.02-194.3.02-291.37.02-2.93-80.76,25.73-160.94,78.23-221.77,7.5-8.69,17.82-17.16,24.49-25.91,2.43.22,2.81-1.94,3.84-2.88,46.54-42.7,114.68-73.62,177.6-80.64Z"/>
  <path class="st4" d="M110.4,416.23c-1.03.94-1.41,3.1-3.84,2.88.79-1.04,0-3.58,3.84-2.88Z"/>
  <path class="st2" d="M268.8,672.55c-.22.33.65,1.57-.61,1.94-4.19,1.24-10.58,1.55-15.35,2.73-8.81,2.19-17.46,5.19-26.26,7.33-1.71.42-5.34,1.81-6.73.47,15.88-5.46,32.1-11.06,48.96-12.48Z"/>
  <path class="st2" d="M165.12,709.99c.13,2.87-8.18,7.48-10.04,7.66-.66.07-.47-.95-.52-.94,2.57-3.42,6.98-4.76,10.56-6.72Z"/>
  <path class="st2" d="M296.64,667.75c.78,4.75-5.41,5.64-5.76.96,2.04-.22,4.06-.82,5.76-.96Z"/>
  <path class="st2" d="M113.28,747.43c.32,2.92-1.91,7.18-4.8,4.8,1.33-1.24,2.75-2.95,4.8-4.8Z"/>
  <path class="st2" d="M207.36,689.83c.77,1.76-2.46,3.18-3.9,3.45-2.3.43-2.68-.58-2.82-.57,1.56-2.52,4.82-2.12,6.72-2.88Z"/>
  <path class="st2" d="M196.8,693.67c1.19,3.49-3.76,4.98-5.76,2.88,1.81-.77,3.82-2.23,5.76-2.88Z"/>
  <path class="st2" d="M172.8,706.15c-.96,1.03-2.17,6.03-5.76,2.88,1.72-.91,3.23-2.94,5.76-2.88Z"/>
  <path class="st2" d="M120,741.67c-.97,1.74.87,4.74-4.8,3.84,1.35-1.18,2.02-3.91,4.8-3.84Z"/>
  <path class="st2" d="M215.04,686.95c.8,2.63-4.41,3.89-5.76,1.92,2.14-.81,3.94-1.25,5.76-1.92Z"/>
  <path class="st2" d="M288,668.71l-2.41,3.84c-1.59.33-2.49-1.55-2.39-2.88,1.66-.24,3.33-.79,4.8-.96Z"/>
  <path class="st2" d="M140.16,726.31c-2.88,2.58-5.63,6.12-9.6,7.68-.27.46.18,1.78-.93,2.43s-3.09.11-3.69.64c-.89.79.14,4.96-4.98,3.65,2.33-3.63,6.05-5.32,9.6-6.72,2.09-3.61,5.36-6.24,9.6-7.68Z"/>
  <path class="st2" d="M280.32,670.63l-1.45,2.88c-1.56.34-2.5-1.57-2.39-2.88,1.19-.19,2.64.18,3.84,0Z"/>
  <path class="st2" d="M274.56,670.63v2.88s-3.84,0-3.84,0v-1.92c1.08-.4,2.69-.77,3.84-.96Z"/>
  <path class="st2" d="M146.88,721.51c-.11.1.36,1.14-.23,1.71-.23.22-4.81,2.56-5.53,2.13,1.75-1.68,3.06-3.55,5.76-3.84Z"/>
  <path class="st2" d="M189.12,697.51v1.91s-1.43,0-1.43,0l-.49-.95c.65-.31,1.24-.66,1.92-.96Z"/>
  <path class="st0" d="M350.4,667.75c.69-1.23,1.17-.88,2.31-1.01l295.29.05c-2.1,76.68,22.64,151.89,70.12,211.64,49.48,62.28,120.11,103.47,198.66,117.18,9.26,1.62,18.69,2.26,27.86,4.3h-295.68c-.09-6.7.25-13.47,0-20.16-.12-3.13-.75-6.27-.96-9.6-.18-2.86-.79-5.57-.96-7.68-.13-1.58.15-3.22,0-4.8-.19-1.97-.82-3.51-.96-4.8s.15-2.59,0-3.84c-.11-.93.12-1.95,0-2.88-.19-1.5-.71-3.13-.96-4.8-.09-.61.09-1.31,0-1.92-2.67-17.21-7.13-34.34-12.48-50.88-.91-2.8-1.96-5.09-2.88-7.68-2.2-6.2-4.17-11.23-6.72-17.28-.35-.84-.52-1.87-.96-2.88-.81-1.86-2.29-3.49-2.88-4.8-.98-2.15-1.65-4.18-2.88-6.72s-2.49-5.07-3.84-7.68c-.99-1.92-1.75-3.67-2.88-5.76-3.71-6.86-7.42-12.79-11.52-19.2-.3-.47-.49-1.21-.96-1.92-3.37-5.14-7.26-13.62-12.48-16.32-.23-.69.27-1.89-.44-2.91s-1.78-.64-2.44-.93c-.22-.6.04-1.61-.52-2.8-1.25-2.7-7.12-9.08-10.04-10.64-.18-2.22-1.53-2.21-1.92-2.88-2.24-3.81-3.1-3.94-5.76-6.72s-4.51-5.04-7.68-7.68c-.25-2.48-2.35-4.56-4.8-4.8-2.67-3.21-4.67-6.16-8.64-7.68-.16-3.49-2.79-3.6-4.8-4.8-.68-.41-.27-1.65-2.88-1.92.31-3.29-2.97-3.09-3.84-3.84-.34-.29-.61-.67-.96-.96-4.82-4.06-9.22-9.24-15.36-11.52-.31-.34-.63-.65-.96-.96-4.32-4.05-9.18-6.89-14.4-9.6-.44-.23-.94-2.15-2.88-1.92l-1.92-.96c-.29-.44-.35-1.13-.96-1.41-.57-.25-1.34-.58-1.92-.51l-1.92-.96c-1.42-2.18-1.98-1.29-2.88-1.92-1.85-1.29-3.25-2.73-5.76-2.88-2.35-2.82-2.87-1.73-4.8-2.88-4.15-2.47-7.34-3.74-11.52-5.76-1.3-.63-2.27-1.22-3.84-1.92-2.44-1.08-4.11-1.89-6.72-2.88-.54-.21-1.09-.69-1.92-.96-.99-.33-1.82-.65-2.88-.96-.85-.25-1.53-.63-2.88-.96-2.15-2.58-5.76-2.75-8.64-3.84-.96-.37-1.93-.62-2.88-.96-18.76-6.8-37.83-12.14-57.6-15.36-.61-.1-1.31.09-1.92,0-1.29-.2-2.55-.78-3.84-.96-.61-.09-1.3.08-1.92,0-1.98-.27-3.99-.76-5.76-.96-.94-.11-1.94.1-2.88,0-1.57-.16-3.22.14-4.8,0s-3.44-.81-5.76-.96Z"/>
  <path class="st2" d="M434.88,685.99c-5.74,2.01-12.73-2.78-18.22-4.34-11.27-3.21-25.52-5.24-33.79-8.87-.85-.37-5.52,2.85-5.6-2.15,19.77,3.22,38.84,8.56,57.6,15.36Z"/>
  <path class="st2" d="M632.64,888.55c5.35,16.54,9.81,33.67,12.48,50.88-3.7,1.43-4.48-5.23-4.55-7.42-.4-12.78-6.1-27.34-9.22-40.74-.42-1.82-1.76-3.1,1.28-2.72Z"/>
  <path class="st2" d="M609.6,835.75c-2.14-.03-2.63-1.05-3.61-2.63-1.93-3.08-5.36-8.43-6.79-11.45-.83-1.75-1.42-3.1-1.11-5.12,4.1,6.41,7.81,12.34,11.52,19.2Z"/>
  <path class="st2" d="M629.76,880.87c-2.29.5-2.4-1.67-3.03-3.17-1.3-3.1-2.59-6.58-3.73-9.75-.49-1.35-2.08-3.24.04-4.36,2.55,6.05,4.52,11.08,6.72,17.28Z"/>
  <path class="st2" d="M513.6,727.27c-4.95-.46-12.42-4.94-14.4-9.6,5.22,2.71,10.08,5.55,14.4,9.6Z"/>
  <path class="st2" d="M648,970.15c.21,3.33.84,6.47.96,9.6-4.78.03-5.87-9.32-.96-9.6Z"/>
  <path class="st2" d="M476.16,704.23c-3,1.25-10.97-2.31-11.52-5.76,4.18,2.02,7.37,3.29,11.52,5.76Z"/>
  <path class="st2" d="M581.76,794.47c.66.28,1.71-.11,2.44.93s.22,2.22.44,2.91c5.22,2.7,9.11,11.18,12.48,16.32-5.13.83-5.52-7.19-7.01-9.32-1.97-2.82-3.41-.7-5.47-7-.28-.14-1.19.29-1.74-.15-.67-.53-.78-2.72-1.14-3.69-4.68-2.01-1.89-3.29-3.07-4.62-.45-.51-2.51-.1-3.22-1.1s-.06-2.96-.63-3.69c-.38-.49-3.18-.31-4.17-2.08-1.2-2.14.54-1.82.53-1.95,2.92,1.56,8.79,7.94,10.04,10.64.55,1.19.3,2.2.52,2.8Z"/>
  <path class="st2" d="M350.4,667.75c-.29.52,0,1.87-.89,2.43-2.71,1.73-6.68.2-5.83-3.39,1.89.09,4.28.8,6.72.96Z"/>
  <path class="st2" d="M569.28,778.15c-4.76.13-6-2.21-5.76-6.72,2.66,2.78,3.52,2.91,5.76,6.72Z"/>
  <path class="st2" d="M308.16,667.75c.09,4.16-6.81,4.16-6.72,0,2.22-.15,4.5.1,6.72,0Z"/>
  <path class="st2" d="M446.4,690.79c-.07-.02-.62.87-1.26.72-2.16-.47-7.85-2.04-7.38-4.56,2.88,1.09,6.49,1.26,8.64,3.84Z"/>
  <path class="st2" d="M616.32,849.19c-2.51.27-4.64-4.72-4.69-7.04l.85-.64c1.35,2.61,2.56,5.03,3.84,7.68Z"/>
  <path class="st2" d="M542.4,751.27c-1.19-.46-3.38-.09-4.67-1.12l-.13-3.68c2.01,1.2,4.64,1.31,4.8,4.8Z"/>
  <path class="st2" d="M460.8,696.55c-1.5,1.96-7.02.03-6.72-2.88,2.61.99,4.28,1.8,6.72,2.88Z"/>
  <path class="st2" d="M369.6,669.67c-.42,4.86-5.38,3.11-5.76-.96,1.77.2,3.78.69,5.76.96Z"/>
  <path class="st2" d="M647.04,957.67c.15,1.58-.13,3.22,0,4.8-3.03.07-3.12-2.23-2.88-4.8h2.88Z"/>
  <path class="st2" d="M534.72,744.55c-.1-.01-.63.91-1.29.79l-1.15-.68-1.4-3.95c.87.75,4.15.55,3.84,3.84Z"/>
  <path class="st2" d="M486.72,709.99c-3.58,3.02-4.66-1.55-5.76-2.88,2.51.15,3.91,1.59,5.76,2.88Z"/>
  <path class="st2" d="M555.84,763.75c-.49-.41-2.08-.36-3.45-1.85-1.04-1.13-1.07-2.62-1.35-2.95,2.45.24,4.55,2.32,4.8,4.8Z"/>
  <path class="st2" d="M360.96,668.71c-.18,4.02-4.62,4.02-4.8,0,1.58.14,3.23-.16,4.8,0Z"/>
  <path class="st2" d="M645.12,941.35c.25,1.67.77,3.3.96,4.8-3.87-.57-5.7-4.3-.96-4.8Z"/>
  <path class="st2" d="M529.92,739.75c-2.78.04-4.17,1.02-3.95-2.71-5.23.75-4.06-3.24-4.82-3.88-.71-.59-2.97.34-3.61-.27-.24-.23-2.23-3.86-2.98-4.66,6.14,2.28,10.54,7.46,15.36,11.52Z"/>
  <path class="st2" d="M622.08,860.71c-3.12,1.11-4.91-2.94-2.88-4.8.59,1.31,2.07,2.94,2.88,4.8Z"/>
  <path class="st2" d="M375.36,670.63c-.56,4.61-4.25,3.26-3.84-.96,1.29.18,2.55.76,3.84.96Z"/>
  <path class="st2" d="M646.08,949.03c.15,1.25-.14,2.59,0,3.84-1.3.11-3.22-.83-2.88-2.39l2.88-1.45Z"/>
  <path class="st2" d="M452.16,692.71l-3.84.95v-1.43s.96-.49.96-.49c1.06.31,1.89.63,2.88.96Z"/>
  <path class="st2" d="M496.32,715.75c-.05,0,.18.79-.49.95-2.36.58-1.04-1.31-1.43-1.91l1.92.96Z"/>
  <path class="st2" d="M491.52,712.87c-.05,0,.18.78-.49.95-2.35.6-1.05-1.32-1.43-1.91l1.92.96Z"/>
</svg>