<?xml version="1.0" encoding="UTF-8"?>
<svg id="Layer_1" xmlns="http://www.w3.org/2000/svg" xmlns:xlink="http://www.w3.org/1999/xlink" version="1.1" viewBox="0 0 841.89 1190.55">
  <!-- Generator: Adobe Illustrator 29.0.1, SVG Export Plug-In . SVG Version: 2.1.0 Build 192)  -->
  <defs>
    <style>
      .st0 {
        fill: none;
      }

      .st1 {
        fill: #16171f;
      }

      .st2 {
        clip-path: url(#clippath);
      }
    </style>
    <clipPath id="clippath">
      <rect class="st0" x="-4" width="841.89" height="1190.55"/>
    </clipPath>
  </defs>
  <g class="st2">
    <path class="st1" d="M750.42,0c0,3.61-1.99,18.97-1.25,22.55.44,2.12.22,4.38.26,6.57.05,2.35.08,4.69.59,7.02.36,1.66.26,3.43.32,5.16.1,3.13-.08,6.28.71,9.37.27,1.04.2,2.18.21,3.28.01,8.01.01,16.02,0,24.03,0,.94.09,1.92-.14,2.81-.97,3.87-.67,7.8-.76,11.72-.06,2.67-.04,5.32-.65,7.96-.34,1.51-.22,3.12-.27,4.69-.09,3.29.03,6.58-.74,9.84-.35,1.5-.2,3.12-.23,4.69-.04,1.83-.07,3.64-.52,5.44-.21.84-.36,2.26-.39,3.13-.06,1.81-.09,3.62-.55,5.38-.12.46-.28,1.22-.33,1.69-1.02,11.18-3.01,22.21-5.84,33.06-2.22,8.51-4.77,16.92-8.63,24.87-1.7,5.12-4.84,9.49-7.39,14.16-3.33,6.08-7.46,11.63-11.76,17.02-2.87,3.6-5.68,7.29-9.14,10.4-1.29,1.16-2.49,2.39-3.69,3.64-1.92,2-3.88,3.89-6.09,5.57-2.24,1.71-4.27,3.68-6.53,5.39-8.84,6.68-18.48,11.89-28.87,15.64-3.67,1.33-7.55,2.13-11.38,2.95-3.09.66-6.24,1.1-9.37,1.56-1.06.16-2.79.33-3.86.35-2.59.03-5.19-.06-7.78.05-8.11.32-15.93-1.24-23.61-3.58-5.55-1.69-11.09-3.45-16.45-5.72-5.5-2.33-10.82-4.99-15.98-8.01-7.32-4.3-14.19-9.27-21.11-14.14-3.33-2.34-6.43-5.01-9.68-7.47-5.49-4.18-10.94-8.42-16.55-12.43-3.95-2.82-7.95-5.62-12.32-7.81-2.1-1.05-4.04-2.46-6.18-3.4-7.9-3.48-15.79-7.01-24.43-8.34-.93-.14-1.83-.44-2.75-.64-3.7-.8-7.43-1.14-11.21-1.06-4.39.1-8.79.03-13.19.05-2.67.01-5.32.05-7.96.65-1.51.34-3.12.23-4.69.27-2.51.06-5,.05-7.49.64-1.5.36-3.12.26-4.69.3-2.06.05-4.12,0-6.13.61-.42.13-1.11.23-1.54.21-3.56-.12-7,.93-10.54,1.13-2.34.13-4.59,1.08-6.98.96-3.95,1.14-8.14.5-12.09,1.65-3.33-.16-6.56.68-9.78,1.21-4.18.69-8.46.51-12.58,1.58-4.56.01-9.05.8-13.58,1.09-2.35.15-4.69.17-7.01.71-1.36.31-2.81.24-4.22.27-3.45.07-6.89-.05-10.31.72-1.65.37-3.44.18-5.16.22-3.29.07-6.6-.14-9.83.76-.74.2-1.56.16-2.34.17-2.67.04-5.34,0-7.94.76-.59.17-1.24.16-1.87.17-2.51.03-5.03.05-7.47.79-.19.06-.39.1-.59.11-4.98.24-9.88,1.08-14.76,2.02-5.54,1.06-11.09,2.1-16.56,3.53-4.56,1.2-9.04,2.68-13.43,4.35-4.73,1.81-8.98,4.45-12.48,8.22-1.62,1.75-2.97,3.67-4.06,5.75-1.17,2.24-1.78,4.65-1.9,7.22-.24,4.89.45,9.61,2.07,14.23.36,1.03.71,2.06,1.03,3.11,2.02,6.71,5.12,12.9,8.71,18.89,2.34,3.91,4.82,7.71,7.58,11.34,1.14,1.51,2.36,2.92,3.66,4.29,2.8,2.96,5.9,5.64,8.25,9.03.86,1.24,2.24,2.13,3.13,3.35,2.38,3.27,5.07,6.3,8.33,8.69,4.05,2.96,6.95,7.14,11.11,9.98.9.61,1.62,1.48,2.4,2.25,3.13,3.09,6.25,6.19,9.39,9.27,1.9,1.87,3.73,3.82,5.96,5.32.9.6,1.64,1.46,2.41,2.24,15,14.98,29.99,29.97,44.99,44.95,1.4,1.4,2.8,2.79,3.9,4.46.41.62,1.23,1.51,1.76,2.03,3.66,3.61,6.71,7.74,9.97,11.69,4.7,5.7,8.97,11.7,13.39,17.6,3.01,4.02,5.69,8.28,8.37,12.52,2.85,4.51,5.6,9.08,8.25,13.71,2.5,4.36,4.83,8.81,7.19,13.24,1.69,3.16,3.08,6.48,5.04,9.5,3.71,5.71,6.4,11.97,8.35,18.5.72,2.39,2.07,3.63,4.12,4.07,1.82.39,3.65.74,5.49.95,2.55.29,6.7.91,9.24,1.27,1.44.2,2.87.4,4.31.65,8.81,1.48,17.59,3.16,26.31,5.08,8.42,1.86,16.94,3.25,25.28,5.49,4.99,1.35,10.03,2.54,15.02,3.9,4.84,1.32,9.66,2.73,14.47,4.18,7.36,2.22,14.7,4.51,22.06,6.74,2.7.82,5.44,1.52,8.13,2.39,6.28,2.01,12.4,4.46,18.59,6.73,6.93,2.54,13.75,5.35,20.59,8.09,2.35.94,6.16,2.6,8.44,3.7,3.88,1.86,7.74,3.73,11.67,5.5,4.51,2.03,8.91,4.33,13.26,6.71,4.36,2.38,8.63,4.92,12.82,7.59,5.8,3.68,11.67,7.25,17.14,11.42,1.99,1.52,3.97,3.07,5.92,4.65,3.53,2.86,7.04,5.75,10.54,8.65.24.2.47.4.69.62,2.92,2.86,5.75,5.81,8.7,8.65,4.19,4.04,7.87,8.52,11.45,13.09,2.61,3.33,5.36,6.56,7.88,9.96,2.52,3.4,4.92,6.9,7.23,10.45,2.48,3.81,4.84,7.71,7.15,11.62,2.07,3.51,4.1,7.06,5.97,10.68,3.03,5.86,5.96,11.77,8.85,17.7,1.34,2.75,2.53,5.57,3.6,8.44,2.49,6.69,5.15,13.34,7.03,20.23,2.19,8.01,4.47,16.02,5.56,24.29.41,3.08.99,6.13,1.49,9.2.14.84.21,1.7.23,2.55.09,3.09.06,6.17.73,9.23.47,2.14.39,4.4-.12,6.55-.48,2.01-.6,4.04-.51,6.08.19,4.43-.65,8.75-1.42,13.07-1.19,6.65-3,13.14-5.21,19.54-3.46,10.01-8.12,19.39-14.31,27.99-2.56,3.56-5.42,6.91-8.08,10.4-4.97,6.53-11.17,11.89-16.85,17.73-.65.67-1.43,1.21-2.16,1.81-.73.6-1.55,1.1-2.18,1.79-3.1,3.37-6.72,6.15-10.22,9.04-4.59,3.79-9.15,7.62-14.08,11-4.47,3.07-8.94,6.16-13.45,9.18-3.87,2.6-7.87,5.01-11.98,7.21-1.75.94-3.46,1.97-5.13,3.05-3.43,2.23-7.11,4-10.75,5.85-1.91.97-3.85,1.92-5.77,2.88-6.55,3.28-13.26,6.25-20.08,8.95-7.1,2.8-14.18,5.64-21.32,8.32-6.07,2.28-12.32,4.08-18.38,6.38-6.06,2.3-12.31,4.02-18.6,5.57-2.51.62-4.93,1.52-7.38,2.35-6.99,2.36-14.07,4.42-21.22,6.25-6.08,1.55-12.1,3.33-18.17,4.93-5.3,1.4-10.65,2.64-16.08,3.49-.77.12-1.53.32-2.3.49-7.35,1.59-14.67,3.38-22.08,4.71-6.47,1.16-12.93,2.42-19.45,3.39-6.5.97-13.03,1.84-19.46,3.28-2.58.57-5.27.69-7.89,1.2-3.69.71-7.43,1.21-11.15,1.65-3.57.43-7.09,1.39-10.73,1.27-.98-.03-1.98.23-2.97.34-1.44.16-2.89.3-4.32.55-4.24.75-8.51,1.06-12.81,1.06-2.91.79-5.89.85-8.88.91-.78.01-1.55.24-2.32.35-1.72.25-3.43.64-5.16.46-.9-.09-1.79.14-2.63.48-.76.3-1.61.43-2.44.47-5.19.23-10.23,1.45-15.32,2.38-11.89,2.18-23.5,5.56-35.27,8.29-5.5,1.27-11.01,2.47-16.54,3.61-4.56.94-9.1,1.97-13.6,3.21-6.41,1.78-12.88,3.29-19.38,4.7-7.65,1.66-15.23,3.6-22.85,5.4-4.58,1.09-9.12,2.34-13.75,3.19-5.18.95-10.34,2.01-15.52,2.99-5.13.96-10.25,1.98-15.35,3.07-4.46.95-8.93,1.83-13.4,2.68-6.31,1.2-12.62,2.44-18.95,3.55-2.62.46-5.28.65-7.9,1.16-4.31.83-8.65,1.46-12.97,2.21-6.94,1.21-13.85,2.61-20.83,3.66-4.49.68-9,1.25-13.48,1.95-4.18.66-8.39,1.15-12.54,2.06-2.44.54-4.91.96-7.4,1.21-8.38.82-25.68,4.76-33.4,7.7-6.6,2.51-13.29,4.78-19.74,7.66-3.44,1.53-6.87,3.09-10.29,4.65-1.14.52-2.23,1.2-3.41,1.59-3.62,1.2-6.73,3.37-10.02,5.19-1.22.67-1.74,1.76-1.78,3.11-.03,1.1-.05,2.2-.05,3.3,0,42.24,0,84.48,0,126.72,0,1.41.05,2.82.14,4.23.06.94.91,1.81,1.79,1.91.62.07,1.25.13,1.88.15,1.41.02,2.83.02,4.24.02,146.51,0,293.02,0,439.53,0,1.88,0,3.77-.01,5.65-.09,1.17-.05,2.11-.6,2.61-1.71.84-1.86,1.7-3.71,2.47-5.6,3.67-9.03,8.4-17.56,12.82-26.23,1.71-3.35,3.96-6.42,5.88-9.66,1.18-1.99,2.39-3.96,3.73-5.85,4.46-6.3,8.59-12.83,13.52-18.8,3.2-3.86,6.15-7.93,9.35-11.79,2.3-2.77,4.58-5.57,6.91-8.32,2.94-3.48,6.27-6.61,9.13-10.13,4.12-5.07,8.92-9.46,13.43-14.13,1.75-1.81,3.5-3.6,5.32-5.33,1.61-1.53,3.09-3.15,4.82-4.53.98-.78,2.58-2.08,3.48-2.95,2.01-1.94,3.99-3.92,6-5.86,1.21-1.18,2.49-2.28,3.81-3.34,3.42-2.75,6.79-5.55,10-8.56,2.14-2.01,4.38-3.9,6.67-5.74,5.57-4.46,11.27-8.76,16.78-13.29,7.64-6.27,15.84-11.77,23.82-17.57,6.73-4.89,13.61-9.57,20.59-14.1,6.72-4.36,13.44-8.73,20.36-12.79,2.84-1.67,5.6-3.47,8.42-5.19,4.69-2.86,9.46-5.58,14.36-8.07,2.52-1.28,4.91-2.8,7.42-4.08,6.58-3.35,13.12-6.78,19.81-9.89,6.69-3.1,13.48-5.98,20.36-8.64,3.07-1.19,6.08-2.56,9.13-3.78,3.06-1.23,6.13-2.41,9.22-3.55,6.92-2.55,13.86-5.05,20.78-7.59,1.77-.65,3.51-1.37,5.26-2.05,9.23-3.61,18.49-7.18,27.69-10.87,2.15-.86,4.27-1.82,6.38-2.8,5.26-2.46,10.6-4.76,15.82-7.3,5.93-2.9,11.79-5.9,17.69-8.86.84-.42,1.69-.82,2.54-1.24v56.54c-1.93.65-3.89,1.22-5.79,1.95-5.57,2.13-11.02,4.56-16.73,6.33-1.95.6-3.95,1.05-5.86,1.74-3.84,1.38-7.63,2.88-11.45,4.33-2.94,1.11-5.88,2.2-8.82,3.3-3.67,1.38-7.37,2.69-11.01,4.14-4.22,1.69-8.42,3.46-12.59,5.27-5.18,2.25-10.34,4.54-15.48,6.89-3.31,1.51-6.48,3.34-9.85,4.72-.8.33-2.08.89-2.84,1.3-4.33,2.3-8.68,4.58-12.98,6.94-.89.49-2.31,1.36-3.15,1.93-8.98,6.05-17.93,12.14-26.89,18.23-.26.18-.52.36-.77.54-5.2,3.78-10.39,7.58-15.62,11.33-7.13,5.13-14.36,10.11-21.35,15.43-4.99,3.8-9.92,7.68-14.75,11.67-2.66,2.19-5.48,4.2-7.85,6.74-4.01,2.54-6.99,6.27-10.73,9.15-3.77,2.9-7.45,6-10.69,9.55-.58.64-1.22,1.24-1.94,1.71-2.14,1.37-3.83,3.24-5.65,4.97-3.29,3.12-6.27,6.59-9.93,9.32-.55.41-1.41,1.12-1.9,1.61-11.08,11.07-22.17,22.14-33.24,33.22-.67.67-1.41,1.29-1.93,2.05-1.88,2.75-4.28,5-6.55,7.39-.75.79-1.4,1.69-2.08,2.54-1.88,2.33-3.68,4.72-5.65,6.97-3.57,4.06-6.94,8.29-10.26,12.55-1.77,2.28-3.59,4.53-5.35,6.82-2.59,3.35-5.17,6.71-7.73,10.08-.38.49-.63,1.08-.93,1.63-.3.54.17,1.29.86,1.31,1.57.05,3.14.09,4.71.09,102.54,0,205.09,0,307.63,0,1.73,0,3.45-.04,5.18-.06v.94H-3.25c-.07-.09-.17-.18-.19-.28-.03-.15,0-.31,0-.47C-3.44,797.13-1.51,392.68-1.5,0H.38c-.02,1.88-2,15.54-2,17.43,0,317.53,0,635.07,0,952.6,0,1.73,0,3.45.08,5.18.07,1.65,1.19,2.54,2.87,2.27,2.01-.33,4.01-.73,6.01-1.13,9.22-1.88,18.4-3.94,27.6-5.9,7.83-1.67,15.59-3.57,23.38-5.41,9.77-2.31,19.52-4.68,29.31-6.88,8.1-1.83,16.25-3.46,24.38-5.19,1.07-.23,2.13-.53,3.2-.79,8.84-2.15,17.72-4.08,26.66-5.78,3.08-.58,6.14-1.31,9.19-2.01,4.89-1.13,9.76-2.33,14.66-3.43,7.5-1.68,15.01-3.29,22.51-4.94,3.06-.67,6.13-1.33,9.19-2.03,4.89-1.13,9.76-2.34,14.66-3.44,7.5-1.68,15.01-3.29,22.51-4.93,7.81-1.71,15.62-3.44,23.43-5.13,3.22-.7,6.45-1.33,9.67-1.99,7.92-1.61,15.89-3.02,23.74-4.98,5.83-1.45,11.74-2.58,17.67-3.59,7.43-1.27,14.74-3.11,22.23-4.1,4.19-.55,8.32-1.53,12.48-2.3,2.16-.4,4.31-.88,6.48-1.12,4.38-.47,8.63-1.58,12.96-2.34,6.02-1.06,12-2.31,18-3.48,4-.78,7.99-1.62,12-2.36,4.62-.85,9.26-1.62,13.89-2.43,3.86-.68,7.71-1.38,11.58-2.04,6.8-1.16,13.52-2.7,20.34-3.74,5.06-.77,10.04-2.11,15.13-2.74,2.82-.35,5.61-.9,8.4-1.47,5.24-1.07,10.53-1.88,15.79-2.91,3.99-.79,8.04-1.28,12.04-2.1,6.26-1.29,12.52-2.56,18.8-3.68,3.43-.61,6.84-1.37,10.29-1.89,6.36-.95,12.64-2.32,18.92-3.69,8.52-1.87,17-3.89,25.51-5.75,6.57-1.43,17.28-3.99,23.78-5.7,4.46-1.18,8.93-2.34,13.32-3.78,2.23-.74,4.56-1.21,6.77-2,6.21-2.21,12.5-4.24,18.54-6.86,6.9-2.99,13.8-6.11,19.89-10.65,3.14-2.34,6.29-4.68,9.1-7.43,2.13-2.09,4.35-4.08,6.48-6.17,6.7-6.55,12.03-13.97,15.43-22.81,1.97-5.12,3.46-10.37,5.03-15.6,1.83-6.12,3.32-12.33,4.4-18.62.85-4.93,1.84-9.86,1.47-14.94-.09-1.21-.03-2.43.04-3.64.14-2.5-.31-4.91-.66-7.35-.72-5.01-1.81-9.92-3.12-14.79-.52-1.95-1.14-3.86-1.86-5.75-2.07-5.43-4.28-10.79-6.97-15.96-2.26-4.33-5.16-8.24-7.84-12.31-.6-.91-1.44-1.66-2.2-2.45-1.52-1.59-2.92-3.27-4.35-4.94-3-3.5-6.22-6.82-9.86-9.7-.86-.68-2.2-1.86-2.98-2.62-4.61-4.56-9.81-8.41-14.98-12.28-6.2-4.64-12.6-9.01-19.18-13.1-4.74-2.95-9.47-5.92-14.28-8.75-3.24-1.91-6.53-3.75-9.82-5.58-10.84-6.03-21.95-11.55-33.09-17-3.95-1.93-7.99-3.66-12.02-5.42-5.75-2.5-11.52-4.99-17.32-7.39-5.8-2.4-11.61-4.77-17.48-7-6.6-2.52-13.23-4.93-19.9-7.27-4.74-1.66-9.49-3.28-14.36-4.53-6.84-1.76-13.62-3.72-20.45-5.51-3.18-.84-6.41-1.49-9.63-2.19-.44-.09-.92.04-1.38.09-.38.05-.89.63-.88.99.01.46-.04.95.07,1.39,1.07,4.27,1.29,8.68,2.17,12.98.19.91.12,1.88.18,2.82.06.94-.03,1.92.21,2.81.85,3.08.69,6.23.74,9.36.03,1.89.15,3.74.52,5.61.32,1.68.33,3.43.39,5.15.1,2.51,0,5.02.64,7.49.27,1.04.26,2.18.26,3.28.02,9.74.02,19.47.01,29.21,0,1.1.04,2.23-.22,3.28-.67,2.63-.63,5.29-.65,7.96-.02,1.88-.02,3.77-.06,5.65-.03,1.1.05,2.24-.22,3.28-.73,2.78-.63,5.6-.68,8.43-.04,2.2-.08,4.37-.56,6.55-.34,1.51-.3,3.11-.35,4.68-.09,2.66.03,5.33-.7,7.95-.25.89-.22,1.87-.24,2.81-.06,2.2-.09,4.39-.68,6.54-.25.89-.23,1.87-.26,2.8-.07,2.2-.08,4.39-.69,6.54-.25.89-.18,1.87-.29,2.8-.16,1.4-.36,2.79-.54,4.19-.12.9-.3,1.79-.35,2.69-.09,1.76-.3,3.51-.67,5.23-.53,2.45-.67,4.96-1.07,7.44-1.24,7.74-2.46,15.48-4.1,23.14-1.18,5.52-2.6,10.99-4.03,16.46-2.28,8.66-5.05,17.18-8.53,25.43-3.48,8.27-7.97,16-13.37,23.2-2.85,3.8-6.18,7.11-9.59,10.34-2.4,2.27-5.27,3.95-8.11,5.62-5.07,2.98-10.56,4.88-16.3,6.1-.76.16-1.53.26-2.3.28-1.72.06-3.42.2-5.11.6-2.01.49-4.09.5-6.09.18-5.1-.81-10.25-1.36-15.27-2.68-5.47-1.43-10.94-2.8-16.28-4.69-3.85-1.36-7.67-2.77-11.38-4.5-1.85-.86-3.81-1.5-5.61-2.45-3.74-1.98-7.41-4.1-11.11-6.16-1.37-.76-2.73-1.55-4.1-2.3-9.09-5.01-17.79-10.58-25.84-17.17-4.73-3.87-9.57-7.61-14.41-11.35-3.85-2.98-7.65-5.99-11.07-9.48-5.83-5.94-11.75-11.79-17.6-17.71-1.1-1.11-2.05-2.37-3.07-3.55-.93-1.07-1.87-2.12-2.79-3.19-.92-1.07-1.84-2.14-2.75-3.22-.4-.48-.71-1.05-1.16-1.48-2.96-2.83-5.44-6.08-8.08-9.18-2.44-2.86-4.76-5.83-7.16-8.72-4.51-5.43-8.62-11.18-12.83-16.84-4.22-5.68-8.03-11.61-11.8-17.59-.64-1.02-1.26-2.07-1.94-3.06-1.21-1.76-2.34-3.57-3.3-5.47-1.72-3.44-3.62-6.8-5.6-10.1-.98-1.63-1.79-3.36-2.55-5.1-1.06-2.45-2.36-4.81-3.5-7.23-3.69-7.82-7.01-15.8-9.62-24.07-1.16-3.68-2.59-7.26-4.07-10.83-.59-1.41-.9-2.94-1.31-4.41-.65-2.35-1.3-4.69-1.83-7.06-1.19-5.23-2.49-10.47-2.54-15.88,0-.48-.12-1.25-.24-1.72-.8-3.09-.6-6.26-.65-9.41-.03-2.36.04-4.71-.04-7.07-.17-5.22.73-10.3,1.87-15.36,1.94-8.62,4.94-16.85,8.96-24.72,2.36-4.63,5.25-8.9,8.32-13.09,3-4.08,6.51-7.68,10.27-10.99,4.71-4.14,9.65-8.06,15.09-11.21,3.64-2.1,7.47-3.89,11.29-5.67,3.1-1.44,6.22-2.85,9.39-4.11,3.26-1.29,6.45-2.82,9.76-3.97,9.64-3.34,19.32-6.55,29.28-8.84,5.5-1.27,11.04-2.34,16.57-3.43,6.41-1.27,12.86-2.27,19.28-3.43.98-.18,1.97-.29,2.96-.31,1.92-.05,3.84-.09,5.69-.69.12-.04.24-.06.36-.06,4.56.03,9.02-1.1,13.57-1.16,1.74-.02,3.45-.11,5.16-.46,1.25-.26,2.52-.4,3.8-.44,2.64-.08,5.28-.06,7.92-.08,1.54,0,3.06-.1,4.58-.33,1.47-.22,3.87-.5,5.35-.51,4.21-.05,8.41-.01,12.62-.04.94,0,1.87-.11,2.81-.22.68-.08,1.36-1.1,1.17-1.78-.35-1.2-.63-2.44-1.15-3.58-2.13-4.72-4.2-9.47-6.54-14.09-2.27-4.47-4.8-8.82-7.29-13.18-2.49-4.36-5-8.71-7.61-12.99-6.13-10.05-12.37-20.03-19.59-29.35-3.65-4.71-7.17-9.52-10.84-14.21-2.02-2.59-4.24-5.03-6.34-7.58-2.29-2.78-4.46-5.67-6.82-8.39-3.3-3.78-6.3-7.82-9.98-11.27-1.49-1.4-2.86-2.89-4.05-4.58-.81-1.14-1.86-2.13-2.85-3.12-8.21-8.22-16.44-16.43-24.66-24.64-3-3-5.98-6.01-8.95-9.04-1.43-1.45-2.88-2.89-4.01-4.61-.51-.78-1.2-1.45-1.84-2.14-1.38-1.48-2.85-2.89-3.92-4.63-.17-.28-.38-.54-.62-.77-3.68-3.43-6.61-7.55-10.09-11.17-1.09-1.13-2.04-2.37-3.06-3.57-.71-.84-1.4-1.69-2.12-2.52-.51-.59-1.14-1.11-1.57-1.76-2.58-3.92-5.66-7.5-7.99-11.6-.92-1.61-1.82-3.24-2.81-4.8-5.58-8.77-8.87-18.4-10.98-28.49-.52-2.48-.85-4.94-.83-7.46,0-.47-.04-.94-.02-1.41.09-2.19-1.15-4.28-.47-6.52.6-1.99.38-4.05.59-6.08.18-1.71.55-3.4.9-5.09.66-3.22,1.24-6.46,2.24-9.61,1.86-5.87,4.43-11.4,7.71-16.61,1.25-1.99,2.41-4.05,3.73-5.99,3.37-4.98,7.68-9.14,12.11-13.11,2.47-2.21,5.07-4.35,7.88-6.18,1.66-1.08,3.27-2.24,4.85-3.43,4.03-3.06,8.5-5.39,12.88-7.84,10.15-5.68,20.5-11,31.02-15.98,1.83-.87,3.71-1.63,5.62-2.29,6.82-2.36,13.61-4.83,20.62-6.62,7.79-1.99,15.56-4.04,23.36-6.02,6.19-1.58,12.44-2.97,18.77-3.87,1.77-.25,3.54-.58,5.28-1.01,2-.49,4.04-.75,6.1-.85,2.1-.1,4.17-.57,6.25-.87,2.17-.31,4.33-.73,6.51-.88,2.04-.15,4.05-.27,6.06-.71,1.36-.3,2.81-.24,4.22-.28,1.67-.04,3.33-.12,4.98-.42,1.25-.22,3.31-.47,4.59-.47,11.08-.03,22.16-.02,33.23-.01,1.1,0,2.24-.08,3.28.18,3.25.82,6.55.68,9.84.72,1.73.02,3.46.01,5.18.05.94.02,1.92-.07,2.81.17,3.23.85,6.52.67,9.8.75.01,0,.02,0,.04,0,3.9.35,7.79.83,11.67,1.27,3.88.45,7.74,1.16,11.63,1.61,1.71.2,3.39.59,5.09.87,6.49,1.08,12.99,2.13,19.39,3.71,2.59.64,5.15,1.4,7.72,2.09,11.95,3.19,23.38,7.7,34.25,13.62.9.49,1.77,1.03,2.63,1.59,3.93,2.6,7.9,5.14,11.74,7.87,3.07,2.17,6.07,4.45,8.79,7.06.57.54,1.08,1.17,1.72,1.61,4.53,3.07,7.76,7.54,11.99,10.91,5.09,4.07,9.52,8.84,13.64,13.89,1,1.23,2.33,2.24,3.29,3.53,3.61,4.85,8.1,8.86,12.42,13,4.13,3.95,8.87,7.25,14.1,9.55,4.39,1.93,9.06,3.16,14,2.98.78-.03,1.57-.04,2.35-.01,9.32.34,17.42-2.86,24.71-8.2,1.44-1.06,2.73-2.32,3.83-3.73,2.8-3.58,5.28-7.35,7.18-11.55,3.26-7.2,5.37-14.73,6.99-22.42.23-1.07.53-2.13.74-3.21.69-3.54,1.39-7.07,2.01-10.62.49-2.78.7-5.61,1.32-8.36.53-2.33.61-4.66.64-7.01.03-2.2.03-4.38.54-6.55.28-1.19.28-2.47.3-3.71.04-2.95.04-5.9.02-8.85-.02-2.88.07-5.73-.59-8.57-.35-1.5-.24-3.12-.28-4.69-.09-3.2.13-6.42-.7-9.56-.09-.32-.17-.86-.17-1.2-.03-3.45-.11-6.9-.95-10.28.19-3.09-.79-6.03-1.17-9.04-.53-4.16-1.25-8.3-2.08-12.41-.61-3.05-.86-6.14-1.4-9.21-.51-2.93-1.1-5.85-1.61-8.79-.81-4.63-1.59-9.27-2.39-13.9-.3-1.7-.65-3.39-.96-5.08-1.08-5.85-2.16-11.7-2.88-17.62-.3-2.48.98-16.7,1.15-19.23h86.69ZM295.67,552.66c-5.34,0-10.67-.01-16.01,0-1.25,0-2.55-.09-3.75.2-3.1.75-6.23.67-9.36.71-1.88.02-3.76.02-5.6.55-.6.17-1.23.28-1.85.3-4.89.14-9.62,1.32-14.39,2.17-2.93.52-5.84,1.25-8.65,2.23-7.13,2.48-13.9,5.75-20.31,9.76-1.33.83-2.75,1.53-4.03,2.43-6.08,4.28-11.34,9.42-15.61,15.51-2.56,3.65-4.31,7.76-4.42,12.24-.13,5.62-.39,11.25.68,16.88,1.12,5.87,2.4,11.68,4.24,17.34,3.15,9.71,7.12,19.1,11.64,28.26,3.06,6.19,6.2,12.33,9.66,18.32,1.72,2.99,3.24,6.1,5.06,9.03,3.23,5.2,6.58,10.32,9.93,15.43,1.2,1.84,2.63,3.52,3.82,5.36,4.94,7.66,10.95,14.52,16.3,21.87.28.38.64.69.94,1.05,2.61,3.13,5.12,6.33,7.83,9.37,2.82,3.16,5.29,6.6,8.33,9.58,5.05,4.94,10.03,9.95,14.99,14.98,4.1,4.14,8.52,7.86,13.6,10.75,1.5.85,2.97,1.76,4.45,2.65,8,4.79,16.6,8.11,25.58,10.58,2.51.69,4.86.69,7.38.03,4.31-1.11,7.71-3.5,10.36-6.92,1.33-1.72,2.38-3.7,3.29-5.69,2.02-4.43,3.54-9.06,4.83-13.75,1.58-5.75,2.57-11.63,3.6-17.49.49-2.77.89-5.58,1.09-8.38.29-4.06,1.32-8.05,1.13-12.16-.01-.31.05-.63.15-.93.72-2.29.59-4.65.68-7,.07-1.88.07-3.78.4-5.62.34-1.87.51-3.73.5-5.61-.03-4.87,1.23-9.64,1.21-14.51,0-.15.05-.31.09-.46.61-1.98.58-4.03.61-6.07.04-2.67,0-5.33.69-7.95.27-1.04.2-2.18.22-3.28.05-2.35.02-4.71.09-7.06.05-1.41.11-2.83.39-4.2.35-1.71.46-3.42.46-5.14.02-4.55.04-9.11.09-13.66.02-1.41-.04-2.86.28-4.22.54-2.33.56-4.67.57-7.02.04-10.83.07-21.66.1-32.49,0-2.51-.05-5.01.59-7.49.27-1.04.22-2.18.23-3.28.02-5.96.03-11.93.01-17.89,0-1.1.04-2.23-.23-3.28-.6-2.32-.58-4.66-.64-7.01-.03-1.09-.1-2.2-.3-3.27-.15-.8-.76-1.43-1.56-1.61-1.06-.23-2.17-.38-3.25-.38-5.03.02-9.95-1.36-14.99-1.14-.31.01-.63-.07-.93-.16-1.98-.6-4.02-.61-6.07-.62-2.67-.02-5.33,0-7.95-.68-.89-.24-1.87-.2-2.81-.22-1.73-.04-3.45-.03-5.18-.05-2.66-.03-5.32,0-7.96-.64-1.35-.32-2.81-.25-4.22-.25-5.34-.02-10.67,0-16.01,0"/>
  </g>
</svg>