<?xml version="1.0" encoding="UTF-8"?>
<svg id="Layer_1" xmlns="http://www.w3.org/2000/svg" version="1.1" viewBox="0 0 202.6 199.7">
  <!-- Generator: Adobe Illustrator 29.0.1, SVG Export Plug-In . SVG Version: 2.1.0 Build 192)  -->
  <defs>
    <style>
      .st0 {
        fill: none;
      }
    </style>
  </defs>
  <path class="st0" d="M112.1,80.8c-.5-.8,0-1.8.4-2.7,3.7-7.7,7.4-15.3,11-23,.6,0,.6.9.3,1.5-3.7,8-7.3,16-11,23.9,13.2-22.2,26.4-44.4,39.7-66.7.6-.2.7.9.3,1.5-12.8,21.7-25.6,43.4-38.5,65.1,5.7-7.5,11.3-14.9,17-22.4.4-.5,1.4-.8,1.4-.2-5.3,7.2-10.6,14.3-15.9,21.5-.6.8-1.2,1.6-2.1,2.1-.9.4-2.2.3-2.7-.6Z"/>
  <path class="st0" d="M125.6,102.8c-.4,0-.8,0-1.2-.3-.9-.6-.7-2,.1-2.7.8-.7,1.9-.8,2.9-.9,8.6-1,17.3-1.9,25.9-2.9.4.4-.4,1-1,1.1-7.9,1-15.9,2-23.8,3,24.6.2,49.3.4,73.9.5.5.5-.5,1-1.2,1-24.9-.2-49.7-.3-74.6-.5-.6,0-1.2,0-1.6.5,10.1,1,20.2,2.1,30.3,3.1.1.7-1,1-1.7.9-9.4-1-18.7-2-28.1-2.9Z"/>
  <path class="st0" d="M122.5,88.1c21.1-11.7,42.2-23.4,63.4-35.1,1.2-.6,2.4-1.3,3.7-1.2-22,12.8-44.2,25.3-66.6,37.3-.7.4-1.6.7-2.1.1-.7-.7.2-1.8,1-2.4,8.2-5.8,16.4-11.5,24.6-17.3.6-.4,1.6-.8,2-.1-8.7,6.2-17.4,12.4-26.1,18.7Z"/>
  <path class="st0" d="M105.5,152.6c0,.7-.6,1.8-1.1,1.3-.6-10.1-1.2-20.3-1.9-30.4-.9,25.3-1,50.7-1.2,76.1-.8.5-1.5-.9-1.5-1.8.4-24.1.7-48.2,1.1-72.3,0-1.2.4-2.7,1.6-2.7,1.1,0,1.5,1.4,1.5,2.5.5,9.1,1,18.2,1.5,27.3Z"/>
  <path class="st0" d="M122.8,112.7c21.1,12.5,42.2,25,63.2,37.5.6.4,1.3,1.1.8,1.6-22.3-13-44.6-26.1-66.6-39.5.8-.5,1.8,0,2.6.4Z"/>
  <path class="st0" d="M103.1,78.2c-.9-.3-1.1-1.5-1.1-2.5.3-25.2.5-50.5.8-75.7,1,.4,1.2,1.8,1.2,2.9,0,25.1-.4,50.2-.9,75.3Z"/>
  <path class="st0" d="M150,187.1c-11.8-21.2-23.6-42.4-35.4-63.6-.7-1.3-1.5-2.8-1.2-4.3,12.2,21.9,24.5,43.9,36.7,65.8.4.7.6,1.9-.1,2.1Z"/>
  <path class="st0" d="M54.2,11.9c12.1,21.8,24.2,43.7,36.3,65.6.5,1,1.1,2.2.4,3.1-12-21.8-24-43.6-36-65.3-.6-1-1.2-2.3-.7-3.4Z"/>
  <path class="st0" d="M13.1,148.6c22.3-12.3,44.6-24.6,66.9-36.9.4-.2,1.1.3.9.7-22,12.1-44,24.3-66.1,36.4-.6.3-1.7.5-1.7-.3Z"/>
  <path class="st0" d="M80.2,86.8c.9.5,1.8,1.2,1.8,2.2-22.4-13.4-44.7-26.9-67-40.4-.2-.6.9-.7,1.5-.3,21.2,12.9,42.5,25.7,63.7,38.6Z"/>
  <path class="st0" d="M90,121.1c-12.5,20.9-24.9,41.7-37.4,62.6-.4.7-1.3,1.4-1.9.9,12.4-20.8,24.9-41.5,37.3-62.3.4-.7,1.2-1.5,1.9-1.2Z"/>
  <path class="st0" d="M122.1,90.7c9.7-4,19.5-8,29.2-11.9.3-.1.6-.2.8-.1.3.1.4.5.3.8-10.4,4.3-20.7,8.5-31.1,12.8-.6-.3,0-1.2.7-1.5Z"/>
  <path class="st0" d="M76.7,99.6c.8,0,1.9.3,2,1.1-26.2-.4-52.4-.8-78.7-1.2.2-.8,1.2-1,2.1-1,24.9.4,49.7.7,74.6,1.1Z"/>
  <path class="st0" d="M122.6,95.5c.3-.6,1-.9,1.7-1.1,8.3-2.2,16.6-4.5,24.9-6.7,1.6-.4,3.3-.9,4.9-.9.2.6-.6,1-1.1,1.1-9.6,2.6-19.2,5.1-28.7,7.7-.5.1-1.2.3-1.6-.1Z"/>
  <path class="st0" d="M98.8,123.2c.3.9.2,1.8,0,2.7-.9,7.2-1.8,14.4-2.7,21.7,0,.8-.2,1.6-.8,2.1-.6-.5-.6-1.4-.5-2.2.9-7.5,1.9-14.9,2.8-22.4,0-.8.4-1.7,1.1-1.8Z"/>
  <path class="st0" d="M100.8,78.3c-.5.3-.9-.5-1-1.1-.4-8-.9-16.1-1.3-24.1,0-.3,0-.7.1-1,.2-.3.6-.4.8-.2.2.1.2.4.2.6.7,8.3,1.1,16.6,1.3,25,0,.3,0,.6-.2.8Z"/>
  <path class="st0" d="M151.9,114.3c-9.2-2.6-18.4-5.2-27.7-7.8-.4,0-.8-.3-.8-.6,0-.6.8-.6,1.4-.5,8.6,2.5,17.2,5,25.8,7.4.7.2,1.6.8,1.3,1.5Z"/>
  <path class="st0" d="M149.9,122.6c-.2.5-1,.3-1.5,0-7.6-3.6-15.2-7.2-22.7-10.8-1-.5-2-.9-2.9-1.5.3-.7,1.4-.5,2.1-.2,8,3.8,15.9,7.6,23.9,11.4.5.2,1,.5,1.1,1Z"/>
  <path class="st0" d="M90,51.5c-.2-.7,0-1.7.7-1.6,2.4,9,4.5,18.1,6.4,27.2.1.5,0,1.3-.5,1.2-.3,0-.4-.4-.5-.7-2-8.7-4-17.4-6.1-26.1Z"/>
  <path class="st0" d="M113.4,150.4c-2-8.4-4-16.8-6-25.2,0-.3-.1-.6-.2-.9,0-.2,0-.5.1-.6.4-.5,1.1.3,1.2.9,1.9,8.2,3.9,16.5,5.8,24.7,0,.3.2.7,0,1-.2.3-.7.4-.9.1Z"/>
  <path class="st0" d="M145.3,131.6c-.5.3-1.1,0-1.6-.4-7.4-5.3-14.8-10.7-22.2-16-.3-.2-.6-.4-.6-.8,0-.3.3-.7.6-.5,7.5,5.4,15,10.8,22.5,16.2.6.4,1.2.9,1.3,1.6Z"/>
  <path class="st0" d="M95.1,123c.4.2.3.7.2,1.1-2.4,8.1-4.8,16.2-7.3,24.2-.2.6-.7,1.5-1.3,1.3,0-1,.2-2,.5-2.9,2.3-7.4,4.5-14.8,6.8-22.2.2-.6.5-1.3,1.1-1.4Z"/>
  <path class="st0" d="M50.3,108.8c-.3-.1-.3-.7,0-.9.3-.3.6-.3,1-.4,8.8-1,17.6-2,26.4-3,.5,0,1.4.2,1.2.7-.1.3-.4.3-.7.4-9.3,1.1-18.5,2.1-27.8,3.2Z"/>
  <path class="st0" d="M80,107.9c.5.3-.1,1.1-.7,1.4-9.1,3.7-18.2,7.4-27.2,11.1-.5-.3.1-1.1.7-1.3,9-3.8,18.1-7.5,27.3-11.1Z"/>
  <path class="st0" d="M119.4,83.8c-.5.5-1.6.8-1.7.2,6.6-6.5,13.3-13,19.9-19.5.5-.4,1-.9,1.6-.9.2.6-.3,1.2-.8,1.7-6.3,6.2-12.7,12.4-19,18.6Z"/>
  <path class="st0" d="M116.2,52.2c.4.1.3.6.2,1-2.3,7.8-4.6,15.6-6.9,23.4-.3.9-.5,1.8-1.1,2.6-.6-.5-.4-1.4-.2-2.1,2.3-8.1,4.7-16.1,7.3-24.1.1-.4.4-.8.8-.7Z"/>
  <path class="st0" d="M85.1,117.5c-4.9,4.6-9.7,9.3-14.5,14.1-1.7,1.7-3.4,3.3-5.1,5-.4,0-.6-.5-.5-.9,0-.4.4-.7.7-1,5.8-5.6,11.6-11.2,17.4-16.8.6-.6,1.7-1.1,2.1-.3h0Z"/>
  <path class="st0" d="M71.1,141.3c-.2.3-.5.6-.8.7s-.8-.3-.6-.6c5.2-7.1,10.4-14.2,15.6-21.3.4-.6,1-1.3,1.8-1.2.1.4-.1.8-.4,1.2-5.2,7.1-10.4,14.2-15.6,21.3Z"/>
  <path class="st0" d="M136.2,137.4c-6-6.3-12.1-12.6-18.1-19-.5-.5-1-1.1-1-1.8.3-.3.8,0,1.1.3,5.9,6.2,11.8,12.4,17.6,18.6.5.6,1,1.6.3,1.9Z"/>
  <path class="st0" d="M92.7,79.9c-3.6-8.3-7.2-16.6-10.7-24.9-.2-.4.4-.8.8-.9,3.5,8.2,7.1,16.3,10.6,24.5.1.3.3.7.2,1,0,.3-.6.6-.8.4Z"/>
  <path class="st0" d="M79.8,93.6c-8.4-2.5-16.8-4.9-25.2-7.4-.2,0-.5-.1-.7-.3-.3-.3-.3-.7,0-1,8.4,2.4,16.7,4.9,25,7.3.3,0,.7.2.9.5.2.3.3.7,0,.9Z"/>
  <path class="st0" d="M104.1,78.6c-.5-.6-.4-1.4-.3-2.1.9-7.4,1.9-14.8,2.8-22.2,0-.7.3-1.6,1-1.8.4.5.3,1.2.3,1.8-1,7.7-2,15.5-3,23.2,0,.5-.3,1.1-.7,1h0Z"/>
  <path class="st0" d="M130.8,141.6c.4.5.5,1.5-.1,1.6-5.3-7.6-10.6-15.3-15.7-23.1.6-.4,1.4.3,1.8.9,4.7,6.9,9.4,13.8,14.1,20.7Z"/>
  <path class="st0" d="M81.2,90.1c-.2.3-.6.2-.8,0-7.5-3.6-14.9-7.2-22.4-10.8-.7-.3-1.4-.7-1.7-1.3.3-.5,1-.3,1.5,0,7.2,3.5,14.4,7.1,21.5,10.6.7.4,1.5.8,1.8,1.5Z"/>
  <path class="st0" d="M68.2,64.1c5.8,5.9,11.5,12,17.1,18.1.6.6,1.2,1.6.7,2.2-5.9-6.2-11.7-12.4-17.6-18.6-.5-.5-.8-1.5-.2-1.7Z"/>
  <path class="st0" d="M38.2,117.4c.3,0,.7-.2,1,0,.3.1.5.6.2.8-8.2,2.2-16.4,4.3-24.6,6.5-.3,0-.6.2-.9,0-.3-.1-.5-.5-.3-.7,0-.1.2-.1.4-.2,8-2.2,16.1-4.3,24.2-6.4Z"/>
  <path class="st0" d="M78.3,97.4c-8-.8-16-1.7-24-2.5-.4,0-.8,0-1.1-.4-.3-.3-.2-.8.2-.9,0,0,.2,0,.3,0,7.8.9,15.6,1.7,23.4,2.6.3,0,.7,0,1,.3.3.2.4.6.2.9h0Z"/>
  <path class="st0" d="M81.4,143.9c3.3-7,6.6-14,9.9-21,.3-.7,1.1-1.5,1.7-1.1-1,2.1-2,4.2-3,6.3-2.8,5.9-5.6,11.8-8.3,17.8-.8-.2-.6-1.3-.3-2.1Z"/>
  <path class="st0" d="M53.9,114.3c-.3-.2-.2-.7,0-1,.3-.3.6-.4,1-.5,7-1.9,14-3.8,21.1-5.6.9-.2,2-.5,2.9,0,0,.4-.5.5-.8.6-8,2.2-16.1,4.4-24.1,6.5Z"/>
  <path class="st0" d="M126.7,15.1c.5.3.4,1.1.2,1.6-2.1,7.2-4.2,14.5-6.2,21.7-.2.5-.6,1.2-1.1,1,0-1.1.2-2.2.5-3.2,1.8-6.3,3.6-12.6,5.5-18.9.2-.8.5-1.6,1.1-2.1Z"/>
  <path class="st0" d="M63.1,71.7c.5-.1,1.1.2,1.5.5,5.9,4.2,11.8,8.5,17.6,12.8.5.4,1,.9.9,1.4-.4.2-.8,0-1.1-.3-6-4.3-11.9-8.6-17.9-13-.5-.4-1.1-.9-1-1.5Z"/>
  <path class="st0" d="M120.3,143.9c-3-6.7-5.9-13.5-8.9-20.2-.4-.8-.6-2,.2-2.5,3.3,7.3,6.4,14.6,9.5,22-.3.2-.5.5-.8.7Z"/>
  <path class="st0" d="M81.1,11.5c.5.5.7,1.2.8,1.9,1.6,6.7,3.2,13.4,4.8,20.2.2.8.3,1.8-.3,2.3-.5-.8-.7-1.8-.9-2.8-1.7-7-3.3-14-5-21,.2-.2.4-.4.5-.6Z"/>
  <path class="st0" d="M188.6,77.8c-1,.5-2.2.8-3.3,1.2-6.4,1.8-12.9,3.6-19.3,5.4-.1,0-.3,0-.4,0-.3-.1-.3-.5-.1-.8.2-.2.5-.3.8-.4,6.8-1.9,13.6-3.9,20.4-5.8.7-.2,1.7-.3,2.1.3Z"/>
  <path class="st0" d="M75.6,61.6c.3-.5,1,0,1.3.4,3.7,5.5,7.3,10.9,11,16.4.7,1,1.3,2,1.4,3.2-.4,0-.7-.3-.9-.6-4.2-6.2-8.4-12.4-12.6-18.6-.2-.2-.3-.5-.2-.8Z"/>
  <path class="st0" d="M37.2,80.8c-.8.3-1.6,0-2.4-.2-6.6-2-13.2-3.9-19.9-5.9-.6-.2-1.3-.6-1.1-1.2.6-.1,1.2,0,1.7.2,6.7,2,13.4,4,20.1,6,.6.2,1.3.4,1.5,1h0Z"/>
  <path class="st0" d="M117,163.9c.8.2,1.1,1.2,1.3,2,1.6,6.5,3.2,13,4.7,19.5,0,.4.2.7,0,1.1-.2.3-.8.3-.9,0-1.5-6.1-3-12.2-4.5-18.4-.3-1.4-.7-2.8-.7-4.2Z"/>
  <path class="st0" d="M64.7,126.8c5.5-3.8,11-7.6,16.4-11.4.3-.2.6-.4,1-.4.4,0,.7.2.8.6-6.2,4.4-12.4,8.7-18.7,13.1-.4-.1-.4-.6-.3-1,.2-.3.5-.6.8-.8Z"/>
  <path class="st0" d="M162.7,164.7c-.3,0-.5-.1-.7-.3-4.5-4.7-9.1-9.4-13.6-14.2-.5-.5-1-1.1-.9-1.8.3-.3.9,0,1.2.4,4.6,4.9,9.3,9.8,13.9,14.7.4.4.7,1.2.1,1.3Z"/>
  <path class="st0" d="M148.7,54.7c-.4-.5,0-1.2.5-1.7,4.8-4.7,9.5-9.5,14.3-14.2.5-.5,1.1-1,1.8-1,.3.3,0,.8-.3,1.1-4.9,4.9-9.9,9.9-14.8,14.8-.4.4-.9.8-1.4,1Z"/>
  <path class="st0" d="M83.2,163c.3.7,0,1.5-.2,2.3-1.9,6.4-3.9,12.8-5.8,19.1-.4,0-.8-.3-.8-.7,0-.4,0-.8.2-1.2,1.8-6,3.7-12,5.5-18,.2-.6.5-1.4,1.2-1.5Z"/>
  <path class="st0" d="M55.5,50.7c.6.6,1.2,1.6.6,2.2-5-5.4-10-10.8-15.1-16.2-.4-.4-.7-.8-.8-1.3.4-.4,1,0,1.4.4,4.6,5,9.3,9.9,13.9,14.9Z"/>
  <path class="st0" d="M167,117.9c1.2-.3,2.4,0,3.6.4,5,1.4,10,2.9,14.9,4.3.7.2,1.4.4,1.8,1-.4.4-1.1.3-1.7.1-5.9-1.6-11.9-3.3-17.8-4.9-.5-.1-1-.5-.8-.9Z"/>
  <path class="st0" d="M55.2,145.7c.2.2,0,.6-.3.9-5.2,5-10.3,10-15.5,15-.3.3-.8.6-1,.2,0-.5.4-1,.8-1.4,4.7-4.6,9.5-9.3,14.2-13.9.5-.5,1.1-1,1.8-.8h0Z"/>
  <path class="st0" d="M50.7,85.2c-3.5-1-7-2-10.5-3-.4-.1-1-.5-.8-.9,1.1-.2,2.2.1,3.2.4,2.3.7,4.6,1.4,6.9,2.1.7.2,1.5.8,1,1.4h0Z"/>
  <path class="st0" d="M65.4,62.8c-2.2-2.3-4.3-4.7-6.5-7-.4-.4-.8-.8-1.1-1.3-.1-.2-.2-.3-.2-.5.1-.5.9-.2,1.2.2,2,2.1,4,4.3,6,6.4.6.6,1.2,1.6.5,2.2Z"/>
  <path class="st0" d="M154.3,113.9c2.8.7,5.5,1.4,8.3,2.3.6.2,1.1.4,1.7.5.1,0,.3,0,.4.2.2.2,0,.6-.3.7-.3.1-.6,0-.9,0-3-.9-6.1-1.8-9.1-2.6,0-.4,0-.7,0-1.1Z"/>
  <path class="st0" d="M138.4,138.8c.3-.3.8,0,1.1.3,2.4,2.3,4.6,4.7,6.7,7.2-.1.6-1,.3-1.5-.2-1.8-1.9-3.6-3.8-5.4-5.7-.5-.5-.9-1-.9-1.7Z"/>
  <path class="st0" d="M98.8,50c-.5-.3-.7-.9-.7-1.5-.3-2.9-.4-5.7-.4-8.6.8,0,1.2,1.1,1.2,1.9.1,1.9.3,3.9.4,5.8,0,.8,0,1.8-.5,2.4Z"/>
  <path class="st0" d="M106.1,163c0,.8-.1,1.9-1,2-.3-2.5-.5-5-.6-7.5,0-.8,0-1.8.7-2.3.6.5.6,1.3.7,2.1,0,1.9.2,3.9.3,5.8Z"/>
  <path class="st0" d="M184.3,108.8c-3.3-.3-6.6-.7-9.9-1-.4,0-.8-.6-.6-1,3.2,0,6.4.3,9.6.9.6.1,1.4.7,1,1.1Z"/>
  <path class="st0" d="M129.7,165.3c.2-.3.6-.3.9-.1.3.2.4.5.6.8,1,2.3,1.9,4.5,2.9,6.8.3.6.5,1.4,0,1.9-.6-.2-.9-.8-1.1-1.4-1.1-2.7-2.2-5.4-3.3-8Z"/>
  <path class="st0" d="M97.5,36.2c-.3-.2-.3-.5-.3-.8-.1-2-.2-4-.4-6,0-.7,0-1.5.6-1.8.6.2.7.9.7,1.5.1,1.9.2,3.9.4,5.8,0,.3,0,.7-.1,1-.2.3-.5.5-.8.3Z"/>
  <path class="st0" d="M106.8,172.7c0,1,0,2.3-.9,2.8-.5-2.6-.8-5.3-.8-8,0-.3,0-.6.2-.9.2-.2.6-.4.8-.1.1.1.1.3.1.5.2,1.9.4,3.8.5,5.7Z"/>
  <path class="st0" d="M88.2,44.6c-.3-1.5-.7-2.9-1-4.4-.2-.8-.2-1.9.6-2.2.8,2.5,1.4,5.1,1.9,7.7.1.6.2,1.3-.3,1.8-.7-.8-1-1.9-1.2-2.9Z"/>
  <path class="st0" d="M134.7,175.8c.1-.3.6-.3.8-.1.3.2.4.5.5.8.9,2.2,1.8,4.5,2.7,6.7.2.5,0,1.4-.4,1.2-.2,0-.3-.2-.3-.4-1.3-2.6-2.4-5.4-3.2-8.2Z"/>
  <path class="st0" d="M96.8,24.2c-.5-2.6-.6-5.3-.5-7.9,0-.5.3-1.1.7-.9.6,2.5.9,5.2.7,7.8,0,.5-.4,1.3-.9,1Z"/>
  <path class="st0" d="M37.1,52.2c1.8,1.3,3.6,2.6,5.4,3.8.8.6,1.7,1.4,1.4,2.4-2.9-2-5.7-4.1-8.4-6.3.3-.5,1.1-.2,1.6.1Z"/>
  <path class="st0" d="M107.3,185.9c.5.5.6,1.3.6,2,0,1.7.1,3.5.2,5.2,0,.3,0,.7-.2,1-.2.3-.7.4-.9.1,0-.1-.1-.3-.1-.5-.1-2-.2-3.9-.3-5.9,0-.7,0-1.6.7-1.9Z"/>
  <path class="st0" d="M56.2,143.8c1.9-2.2,3.9-4.2,6.1-6.1.3-.3.9-.5,1.1-.1.1.3-.1.5-.3.7-1.8,1.7-3.5,3.5-5.3,5.2-.5.5-1.3.9-1.6.3Z"/>
  <path class="st0" d="M193.8,91.2c.3.2.2.6,0,.8-.2.2-.6.2-.9.3-2.6.3-5.2.5-7.9.8-.3-.2-.2-.6,0-.9.2-.2.6-.3.9-.3,2.6-.4,5.2-.6,7.8-.7Z"/>
  <path class="st0" d="M154.5,138.3c-.4.4-1,0-1.5-.3-1.7-1.3-3.4-2.5-5.1-3.8-.3-.2-.5-.4-.6-.7,0-.3,0-.7.4-.7.2,0,.3.1.4.2,1.8,1.3,3.6,2.6,5.5,4,.5.3,1,.8.9,1.3Z"/>
  <path class="st0" d="M49.9,115.4c-2,.5-4.1,1.1-6.1,1.6-.6.2-1.3.3-1.8-.1-.1-.4.4-.7.8-.8,2.6-.8,5.2-1.4,7.9-1.8.4.4-.3,1-.8,1.1Z"/>
  <path class="st0" d="M115.5,154.6c.4,1.7.9,3.4,1.3,5.2.2.7,0,1.8-.7,1.7-.9-2.8-1.6-5.6-2-8.5.8,0,1.2.9,1.4,1.7Z"/>
  <path class="st0" d="M69.1,52.7c-.2-.4-.3-1.1.2-1,2.1,2.5,3.9,5.1,5.5,7.9,0,.3-.3.4-.6.3-.2,0-.4-.3-.6-.5-1.6-2.2-3.1-4.4-4.5-6.7Z"/>
  <path class="st0" d="M42.2,93.5c-.6,0-1.4-.4-1.1-1,3.2-.1,6.4.3,9.5,1.2-.2.5-1,.6-1.6.5-2.2-.2-4.5-.5-6.7-.7Z"/>
  <path class="st0" d="M75.5,40.4c-1-2.4-2.1-4.8-3.1-7.2,0-.2-.2-.4-.1-.6,0-.2.2-.4.4-.5,1.8,2.6,3.1,5.6,3.8,8.6,0,.5-.8,0-1-.4Z"/>
  <path class="st0" d="M106.4,184.7c-.3-2.4-.5-4.8-.6-7.2,0-.3,0-.6.2-.7.4-.3.9.4,1,.9.3,1.8.4,3.6.4,5.4,0,.7-.3,1.6-1,1.6Z"/>
  <path class="st0" d="M35.1,109.4c1-.1,2.4,0,2.7.9-2.9.4-5.7.7-8.6.8-.4-.5.4-1,1-1.1,1.6-.2,3.3-.5,4.9-.7Z"/>
  <path class="st0" d="M113.1,9.6c-.1,2.1-.3,4.3-.7,6.4,0,.6-.6,1.3-1,1-.1-2.9.3-5.8,1.1-8.5.5,0,.7.7.6,1.2Z"/>
  <path class="st0" d="M78.5,44.9c.6,1.3,1.2,2.5,1.8,3.8.6,1.3,1.2,2.8.6,4-1.3-2.8-2.5-5.6-3.8-8.4.1-.3.5-.4.8-.2.3.2.4.5.6.8Z"/>
  <path class="st0" d="M129.1,163.8c-1.2-2.2-2.3-4.5-3.2-6.9-.1-.3-.2-.6-.1-1,0-.3.5-.5.8-.3,0,0,.1.2.2.3.9,2.1,1.8,4.2,2.8,6.4.2.6.3,1.5-.3,1.5Z"/>
  <path class="st0" d="M151.5,32c-.7-.5-.2-1.6.3-2.2,1.3-1.7,2.6-3.3,4-5,.6,0,.5,1,0,1.4-1.4,2-2.9,3.9-4.4,5.7Z"/>
  <path class="st0" d="M142.3,18c-.9,1.9-1.9,3.9-2.8,5.8-.3.5-.9,1.1-1.3.7.8-2.8,2.1-5.5,3.9-7.8.5,0,.4.8.2,1.2Z"/>
  <path class="st0" d="M95.5,6.5c0-.3,0-.7.1-.9.2-.3.6-.4.8-.2.4,1.9.6,3.8.6,5.7,0,.7,0,1.5-.7,1.8-.5-.2-.6-.9-.6-1.4,0-1.6-.2-3.2-.3-4.9Z"/>
  <path class="st0" d="M86.5,153.4c-.5,1.8-1,3.5-1.6,5.3-.1.5-.5,1-.9.9-.5-.1-.4-.8-.3-1.3.6-2.2,1.4-4.5,2.4-6.6.6.1.6,1,.4,1.6Z"/>
  <path class="st0" d="M156.6,139.5c.3,0,.5,0,.8.2,1.7,1.3,3.5,2.5,5.2,3.8.3.2.7.6.5,1-.2.4-.8.1-1.1-.1-1.6-1.2-3.3-2.3-4.9-3.5-.5-.3-.9-1.2-.4-1.4Z"/>
  <path class="st0" d="M142.1,159.8c-1.3-1.7-2.5-3.4-3.7-5.1-.3-.5-.3-1.2.1-1.6,1.8,2.2,3.4,4.6,4.8,7-.1.5-.9.2-1.2-.2Z"/>
  <path class="st0" d="M27.4,153.4c-.1-.3.1-.5.3-.7,1.8-1.5,3.6-2.9,5.6-4.2.4-.3,1.1-.4,1.2,0,0,.3-.2.5-.4.7-1.9,1.4-3.8,2.7-5.7,4.1-.3.2-.9.4-1,0Z"/>
  <path class="st0" d="M182.6,138.8c-1.6-.7-3.2-1.5-4.7-2.2-.3-.1-.5-.3-.7-.5-.2-.3-.2-.7,0-1,2.5.9,4.9,2,7.2,3.4,0,.7-1.1.6-1.7.3Z"/>
  <path class="st0" d="M166.1,130.9c-2-.8-4-1.7-6-2.6-.7-.3-1.4-.9-1.1-1.6,2.1.6,4.2,1.5,6.1,2.5.6.3,1.3,1,1,1.6Z"/>
  <path class="st0" d="M62.7,129.2c-2.1,1.5-4.3,3-6.4,4.5-.4.3-1.3.4-1.3-.1,1.8-1.6,3.7-3,5.8-4.2.6-.4,1.5-.7,1.9-.1Z"/>
  <path class="st0" d="M146.8,55.8c.3.2.4.5.5.8-1.9,1.9-3.8,3.8-5.7,5.6-.3,0-.5-.4-.5-.7,0-.3.3-.6.5-.8,1.6-1.7,3.3-3.3,5.1-4.9Z"/>
  <path class="st0" d="M10.4,90c-.6,0-1.5-.6-1.2-1.1,2.2.1,4.3.4,6.4.7.8.1,1.7.3,1.9,1.1-.4.3-1,.2-1.4.1-1.9-.3-3.8-.5-5.7-.8Z"/>
  <path class="st0" d="M65.7,176.6c.3-.6.6-1.2,1.2-1.3.3.7,0,1.6-.4,2.3-.9,1.8-1.8,3.6-2.7,5.4-.7,0-.6-1.1-.3-1.7.7-1.6,1.5-3.2,2.2-4.8Z"/>
  <path class="st0" d="M93.7,157.4c.2-1.4.3-2.8.5-4.2,0-.4,0-.7.3-1,.2-.3.6-.4.9-.2,0,2.4-.3,4.8-.9,7.2-.7,0-.9-1-.8-1.7h0Z"/>
  <path class="st0" d="M19.1,112.4c-.4-.4.3-1,.9-1.1,2.3-.6,4.8-.8,7.2-.5.2.4-.4.7-.9.8-2.4.3-4.8.6-7.1.8Z"/>
  <path class="st0" d="M152.9,175.6c-1.1-1.6-2.1-3.1-3.2-4.7-.2-.3-.4-.7-.4-1.1,0-.4.7-.6.9-.3,1.4,2.1,2.7,4.2,4.1,6.4,0,.3-.4.5-.7.4-.3-.1-.5-.4-.7-.6Z"/>
  <path class="st0" d="M40.1,110.1c-.1-.3-.2-.6-.1-1,2.5-.8,5.2-1,7.8-.6.2.4-.5.8-.9.8-2.2.3-4.5.5-6.7.8Z"/>
  <path class="st0" d="M23.6,62c-.3.5-.9.3-1.4,0-2.3-1.1-4.6-2.2-6.8-3.4,0-.6.9-.5,1.4-.3,2.4.9,4.7,2.1,6.8,3.6Z"/>
  <path class="st0" d="M31.3,66.5c-1.7-.8-3.4-1.6-5.1-2.5-.4-.2-.9-.7-.6-1.1,2.9.8,5.6,2.1,8.1,3.8-.7.5-1.6.1-2.4-.3h0Z"/>
  <path class="st0" d="M137.2,151.2c-.3.4-.9,0-1.2-.3-1.6-1.9-3-4-4.2-6.2.2-.5,1-.1,1.3.3,1.5,2,2.8,4.1,4.1,6.3Z"/>
  <path class="st0" d="M54.1,30.8c-1.3-1.9-2.5-3.8-3.8-5.7-.1-.2-.3-.4-.2-.6.2-.4.8-.1,1.1.3,1.6,2,2.9,4.1,4,6.4-.2.5-.9,0-1.2-.4Z"/>
  <path class="st0" d="M169.2,132.3c-.5-.3-1.2-.8-.8-1.3,2.6.9,5,2.1,7.3,3.5,0,.6-1,.6-1.5.3-1.6-.8-3.3-1.7-4.9-2.5Z"/>
  <path class="st0" d="M43.6,71.5c-.4.6-1.3.3-1.9,0-2-1-4-2-6.1-3,.3-.6,1.2-.5,1.9-.2,2.1.9,4.2,2,6.1,3.3Z"/>
  <path class="st0" d="M55.8,67.2c-.5-.4-1.2-1-.9-1.6,2.7,1.3,5.1,3.2,7.1,5.4-.5.3-1.2,0-1.6-.4-1.5-1.1-3-2.2-4.5-3.3Z"/>
  <path class="st0" d="M122.4,145.9c.9,2.1,1.9,4.3,2.8,6.4.2.3.3.8,0,1-.4.2-.8-.2-1-.7-1-2.1-1.9-4.3-2.6-6.6.3,0,.6-.1.9-.2Z"/>
  <path class="st0" d="M33.4,50.5c-2.2-1.3-4.3-2.8-6.3-4.5-.2-.1-.3-.3-.3-.5,0-.2.2-.5.4-.5,1.8,1.3,3.7,2.5,5.5,3.8.6.4,1.2,1.2.7,1.7Z"/>
  <path class="st0" d="M137.8,49.4c.3-.4.9-.7,1.1-.3-1.2,2.4-2.8,4.7-4.7,6.6-.6-.4-.2-1.3.2-1.8,1.2-1.5,2.3-3,3.5-4.5Z"/>
  <path class="st0" d="M94.2,162.7c-.2,2.2-.4,4.4-.7,6.6,0,.4-.7.4-.9.1-.2-.3-.2-.7-.2-1.1.1-1.3.3-2.6.4-3.9,0-.4,0-.9.3-1.2.2-.4.7-.6,1.1-.4Z"/>
  <path class="st0" d="M41.4,142.7c.7-.5,1.7-1,2.3-.5-2.3,1.7-4.7,3.4-7,5.1-.6-.4,0-1.3.6-1.7,1.4-1,2.7-1.9,4.1-2.9Z"/>
  <path class="st0" d="M109.1,39.6c-.4-.2-.5-.7-.4-1.2.1-2.1.5-4.3,1-6.4.8.2.9,1.4.8,2.3-.2,1.1-.3,2.1-.5,3.2-.1.8-.3,1.6-.9,2.1Z"/>
  <path class="st0" d="M63.8,45c-.3-.5-.6-1.4,0-1.6,1.8,2.1,3.3,4.4,4.6,6.8-.4.5-1.1,0-1.5-.6-1.1-1.5-2.1-3.1-3.2-4.6Z"/>
  <path class="st0" d="M150.7,68c-.5,0-.2-.9.1-1.2,1.7-1.6,3.7-2.9,5.8-3.8.5.3,0,1-.4,1.3-1.8,1.3-3.7,2.5-5.6,3.7Z"/>
  <path class="st0" d="M67.6,22c.3-.4.9,0,1.2.5,1.2,2.1,2.2,4.3,2.8,6.6-.1.5-.9,0-1.1-.4-1-2.2-2-4.4-2.9-6.7Z"/>
  <path class="st0" d="M165.1,145.3c2,1.2,3.9,2.5,5.6,4,.2.2.5.4.4.7-.1.4-.8.3-1.2,0-1.3-.9-2.6-1.8-3.9-2.7-.7-.5-1.5-1.4-.9-2Z"/>
  <path class="st0" d="M109.3,43c-.3,1.7-.5,3.5-.8,5.2,0,.4-.6.6-.9.4-.1-2.4.2-4.9,1-7.2.7,0,.8.9.7,1.6h0Z"/>
  <path class="st0" d="M50.4,120.9c-2,1.1-4.1,2-6.2,2.7-.2,0-.4.1-.6,0-.5-.2,0-1,.5-1.2,1.3-.6,2.6-1.2,4-1.8.8-.4,2-.6,2.3.2Z"/>
  <path class="st0" d="M186.6,109c-.3-.1-.2-.6,0-.8.3-.2.6-.2.9-.2,2.2.1,4.4.4,6.5,1-.3.8-1.4.8-2.2.7-1.7-.2-3.5-.5-5.2-.7Z"/>
  <path class="st0" d="M47.7,74.4c-.5-.2-1-.7-.6-1.1,2.6.7,5.2,1.8,7.4,3.5-.2.5-1,.4-1.5.1-1.8-.8-3.5-1.7-5.3-2.5Z"/>
  <path class="st0" d="M51.4,64c-1.6-1.2-3.1-2.3-4.7-3.5-.5-.3-1-1-.6-1.4,2.4,1.3,4.7,2.9,6.6,4.9-.2.5-.9.3-1.3,0Z"/>
  <path class="st0" d="M79.1,148.7c.3-.7,1-1.5,1.7-1.1-1,2.4-2.2,4.7-3.4,6.9-.6,0-.6-1-.3-1.6.7-1.4,1.4-2.9,2-4.3Z"/>
  <path class="st0" d="M172.4,69.7c1.5-.6,3-1.2,4.5-1.8.3-.1.6-.2.9-.2.3,0,.6.4.5.7-2.2,1-4.5,1.9-6.8,2.8-.3-.2-.3-.7,0-.9.2-.3.6-.4.9-.6Z"/>
  <path class="st0" d="M117.3,49.3c-.5-.2-.6-1-.4-1.5.4-2,1.1-3.9,2.1-5.7.5,0,.6.8.5,1.3-.5,2-1.2,4-2.1,5.9Z"/>
  <path class="st0" d="M148.7,168.2c-.3.4-.8,0-1.1-.4-1.1-1.5-2.1-3-3.2-4.6-.3-.4-.5-1,0-1.2.3-.1.7.2.9.5,1.1,1.6,2.2,3.2,3.3,4.9.2.2.3.6.2.8Z"/>
  <path class="st0" d="M162.8,75.1c-.6-.3,0-1.1.6-1.4,1.7-.8,3.4-1.5,5.2-2.1.2,0,.4-.1.6,0,.4.3-.1.9-.6,1.1-2,.8-3.9,1.6-5.9,2.4Z"/>
  <path class="st0" d="M157.6,85.5c1.1-.3,2.3-.6,3.4-.9.6-.2,1.4-.3,1.9,0,.1.4-.3.7-.7.8-2.1.7-4.2,1.2-6.3,1.5,0-.8,1-1.2,1.7-1.4Z"/>
  <path class="st0" d="M164.8,95c2.1-.8,4.4-1.2,6.6-1.2.5,0,1.2.4,1,.8-1.9.3-3.7.6-5.6.8-.7.1-1.6.1-2-.5Z"/>
  <path class="st0" d="M24.8,131.5c-.4-.1-.4-.7-.2-1,.2-.3.6-.5,1-.7,1.8-.8,3.6-1.5,5.6-1.7.3.4-.2.9-.7,1.1-1.9.8-3.8,1.6-5.6,2.3Z"/>
  <path class="st0" d="M40.8,124.7c-1.8.9-3.7,1.7-5.5,2.5-.6.2-1.2.5-1.8.3,0-.5.5-.9,1-1.1,2-1.1,4.2-2.2,6.3-1.6Z"/>
  <path class="st0" d="M110.1,28.3c0-2,0-4.1.5-6.1.1-.5.6-1.2,1-.8.2.2.1.4.1.6-.1,1.3-.3,2.7-.4,4,0,.9-.4,2-1.2,2.2Z"/>
  <path class="st0" d="M180.9,92.6c.6,0,1.6.1,1.4.8-2.4.5-4.8.9-7.2,1-.3-.2-.2-.6,0-.8.2-.2.6-.3.9-.3,1.6-.2,3.2-.4,4.8-.6Z"/>
  <path class="st0" d="M17,134.6c-.6.2-1.4.3-1.6-.2,2-1.4,4.3-2.4,6.7-2.8.3.5-.4,1.1-1,1.3-1.4.6-2.8,1.1-4.2,1.7Z"/>
  <path class="st0" d="M128.9,45.3c0-2.7,1.4-5.3,3.4-7.1-.5,2.6-1.7,5.1-3.4,7.1Z"/>
  <path class="st0" d="M51.7,136.2c0,.6-.5,1-1,1.4-1.6,1.1-3.2,2.2-4.9,3.3-.4-.8.5-1.7,1.3-2.2,1-.7,2-1.3,3-2,.5-.3,1.1-.7,1.6-.4Z"/>
  <path class="st0" d="M172.3,150.5c1.8,1.2,3.5,2.4,5.2,3.7.2.1.3.3.4.5,0,.3-.3.6-.6.6-.3,0-.6-.2-.9-.4-1.1-.8-2.1-1.6-3.2-2.4-.6-.5-1.3-1.3-.8-1.9Z"/>
  <path class="st0" d="M60.3,40c-.9-1.4-1.9-2.8-2.8-4.2-.3-.5-.5-1.4,0-1.5,1.6,1.8,3,3.8,4,6,0,.3-.4.4-.7.3-.3-.1-.4-.3-.6-.6Z"/>
  <path class="st0" d="M163,58.1c.3-.2.5-.4.8-.3.3,0,.6.3.5.6-1.8,1.4-3.7,2.7-5.7,3.9-.3-.1-.4-.6-.2-.9s.4-.5.7-.7c1.3-.9,2.6-1.7,3.9-2.6Z"/>
  <path class="st0" d="M32.6,92.5c-.6,0-1.4-.3-1.4-.9,2.2-.2,4.5,0,6.7.5.5.1,1.1.7.7,1-.1,0-.3,0-.5,0-1.8-.2-3.7-.4-5.5-.6Z"/>
  <path class="st0" d="M68.9,144c-1.1,1.8-2.3,3.5-3.7,5.1-.1.1-.3.3-.5.3-.2,0-.5-.1-.6-.4.9-1.6,1.9-3.1,3-4.6.4-.5,1.2-1.1,1.7-.6Z"/>
  <path class="st0" d="M172.4,107.4c-2,0-3.9,0-5.8-.4-.5,0-1.2-.6-.9-1,1.9,0,3.8,0,5.7.4.5,0,1.3.5,1,1Z"/>
  <path class="st0" d="M92.6,174.1c0,1.9-.2,3.8-.5,5.6,0,.3-.1.6-.4.7-.5.2-.8-.6-.7-1.2,0-1.2.2-2.4.3-3.6,0-.4,0-.8.3-1.2.2-.4.7-.6,1.1-.4Z"/>
  <path class="st0" d="M137,28.4c-.8,1.9-1.6,3.8-2.4,5.6-.2.5-.8,1-1.1.6.4-2,1.2-4,2.3-5.8.3-.4.9-.9,1.2-.5Z"/>
  <path class="st0" d="M22.8,91.5c-.6,0-1.4-.3-1.5-.9,2.5-.3,5,0,7.4.7.3.4-.4.7-.9.7-1.7-.2-3.3-.3-5-.5Z"/>
  <path class="st0" d="M57.6,158.2c.9-1.8,2-3.4,3.2-4.9.4-.5,1.2-1,1.6-.5-1.1,1.6-2.2,3.2-3.5,4.7-.4.4-.9.9-1.4.6Z"/>
  <path class="st0" d="M163.9,106.7c-1.9,0-3.8-.2-5.6-.5-.7,0-1.4-.3-1.6-.9,2.2-.2,4.4,0,6.5.5.5.1,1,.6.7.9Z"/>
  <path class="st0" d="M75.3,157.2c.6.7.2,1.8-.2,2.7-.7,1.3-1.3,2.7-2,4-.2,0-.3.1-.5.2-.5-.5-.2-1.3.1-1.9.8-1.7,1.7-3.3,2.6-4.9Z"/>
  <path class="st0" d="M71.2,166.3c.3,1.2-.3,2.4-.9,3.5-.6,1.1-1.2,2.3-1.9,3.4-.2-.2-.4-.4-.6-.6.6-2.3,1.8-4.5,3.3-6.3Z"/>
  <path class="st0" d="M124.5,54.5c.2-2.3,1.2-4.6,2.6-6.5.2-.2.6-.3.8-.1-.6,2.4-1.8,4.7-3.4,6.6Z"/>
  <path class="st0" d="M181.8,65.9c1-.4,2-.8,2.9-1.3.9-.4,2-.7,2.6,0-1.9,1.1-3.9,1.9-6,2.5-.3,0-.5-.4-.3-.7.1-.3.5-.4.8-.5Z"/>
  <path class="st0" d="M53.3,165.3c-.3.4-.9.9-1.3.5,1-2.1,2.4-4.1,4.1-5.7.5.6,0,1.5-.5,2.2-.8,1-1.6,2.1-2.3,3.1Z"/>
  <path class="st0" d="M64.1,14.3c-.2-.5-.4-1.1,0-1.4,1.5,1.8,2.6,4.1,3,6.4-.2.5-.9,0-1.1-.5-.6-1.5-1.3-3-1.9-4.5Z"/>
  <path class="st0" d="M151.2,123.6c1.4,0,2.8.3,4,.9.9.5,1.7,1.1,2.5,1.7-.4.5-1.2.3-1.8,0-1.6-.7-3.2-1.6-4.7-2.6Z"/>
  <path class="st0" d="M170.2,52.9c.3-.2.5-.4.9-.3.3,0,.6.3.5.6-1.6,1.3-3.3,2.5-5.2,3.5-.6-.4,0-1.2.6-1.6,1.1-.7,2.1-1.4,3.2-2.1Z"/>
  <path class="st0" d="M155.4,95.9c1.8-.4,3.6-.7,5.4-.8.4,0,1,0,1,.5,0,.4-.5.5-.9.6-1.4.2-2.9.3-4.3.5-.6,0-1.6-.2-1.3-.8h0Z"/>
  <path class="st0" d="M173.5,51.7c-.5-.3-.1-1,.3-1.4,1.4-1.2,3-2.1,4.7-2.8.5.3,0,1-.4,1.3-1.5,1-3,2-4.5,3Z"/>
  <path class="st0" d="M144.7,41.4c-.9,1.4-2,2.8-3,4.1-.1.1-.3.3-.4.3-.4,0-.4-.7-.2-1.1.9-1.7,2.1-3.2,3.6-4.5.5,0,.4.8.1,1.2Z"/>
  <path class="st0" d="M150.1,34.2c-.8,1.1-1.7,2.2-2.5,3.3-.4.5-.8,1-1.5,1.1.5-2.3,2-4.3,4.1-5.5.4.2.1.8-.1,1.1Z"/>
  <path class="st0" d="M14.9,111.7c.4,0,.8,0,1.1.2.2.1.4.3.6.5-2.1.9-4.6,1.1-6.8.5,1.6-.7,3.4-1.1,5.1-1.2Z"/>
  <path class="st0" d="M91.2,184.6c-.1,1.7-.3,3.4-.5,5.1,0,.4-.4.8-.9.8-.3-1.6-.2-3.2,0-4.7.1-.7.6-1.5,1.3-1.3Z"/>
  <path class="st0" d="M49.8,168.2c.3-.2.7.1.9.4-1,1.7-2.1,3.3-3.4,4.8-.7-.2-.4-1.2,0-1.8.8-1.1,1.7-2.3,2.5-3.4Z"/>
  <path class="st0" d="M154.6,77.8c1.5-1.4,3.5-2.2,5.5-2.3.1.2.2.4.1.7-1.2.5-2.4,1-3.6,1.6-.6.3-1.4.5-2,.1Z"/>
</svg>