<?xml version="1.0" ?><!-- Uploaded to: SVG Repo, www.svgrepo.com, Generator: SVG Repo Mixer Tools -->
<svg width="800px" height="800px" viewBox="0 0 64 64" data-name="Layer 1" id="Layer_1" xmlns="http://www.w3.org/2000/svg"><defs><style>.cls-1{fill:#231f20;}</style></defs><title/><path class="cls-1" d="M46,46.45h-.94V43.86a2.2,2.2,0,0,0-2.2-2.2h-5L37,27.29h1a2.19,2.19,0,0,0,2.19-2.19V23.58H45V16.15A2.2,2.2,0,0,0,42.82,14H41a2.2,2.2,0,0,0-2.2,2.2V17H36.08V12.17A2.2,2.2,0,0,0,33.88,10H30.12a2.2,2.2,0,0,0-2.2,2.19V17H25.21v-.79A2.2,2.2,0,0,0,23,14H21.18A2.2,2.2,0,0,0,19,16.17v7.41h4.8V25.1A2.19,2.19,0,0,0,26,27.29h1l-.88,14.37h-5a2.2,2.2,0,0,0-2.2,2.2v2.59H18a2.2,2.2,0,0,0-2.2,2.19V54H48.2V48.64A2.2,2.2,0,0,0,46,46.45ZM21,21.58V16.17a.2.2,0,0,1,.19-.2H23a.2.2,0,0,1,.2.2V19h6.71V12.17a.2.2,0,0,1,.2-.19h3.76a.2.2,0,0,1,.2.19V19h6.71V16.15A.2.2,0,0,1,41,16h1.83a.2.2,0,0,1,.19.2v5.43h-2.8v-.51H23.79v.51Zm5,3.71a.19.19,0,0,1-.19-.19v-2H38.21v2a.19.19,0,0,1-.19.19H26Zm3,2h6l.88,14.37H28.11Zm-8,16.57a.2.2,0,0,1,.2-.2H42.86a.2.2,0,0,1,.2.2v2.59H20.94ZM46.2,52H17.8V48.64a.2.2,0,0,1,.2-.19H46a.2.2,0,0,1,.2.19Z"/></svg>