<?xml version="1.0" encoding="UTF-8"?>
<svg id="Layer_1" xmlns="http://www.w3.org/2000/svg" version="1.1" viewBox="0 0 1152.34 1381.03">
  <!-- Generator: Adobe Illustrator 29.0.1, SVG Export Plug-In . SVG Version: 2.1.0 Build 192)  -->
  <defs>
    <style>
      .st0 {
        fill: #e2e2e2;
      }
    </style>
  </defs>
  <path class="st0" d="M1152.34,600.96c-9.68-.88-20.5-1.7-30.23-.95-36.57,2.82-59.25,41.29-90.85,56.99-119.45,59.34-231.56-105.15-344.33-124.88-89.66-15.69-163.08,45.36-235.71,87.24-44.54,25.68-79.18,47.91-133.33,34.12-23.69-6.03-44.96-18.64-65.4-31.58l-2.54.66c-.44,2.27,30.01,26.67,34.1,31.16,53.01,58.25,128.29,149.61,216.14,100.99,79.03-43.74,141.3-159.74,245.32-142.92,45.32,7.33,86,47.35,122.38,73.46,62.74,45.04,150.34,98.43,226.79,52.42,21.79-13.11,38.76-33.63,57.68-50.32v46.56c-55.42,64.43-126.94,69.16-201.29,34.25-51.9-24.37-87.09-60.3-132.49-92.15-118.26-82.97-190.16,32.29-267.17,103.04-57.49,52.81-100.17,47.92-157.47-1.92-44.78-38.95-80.26-90.58-123.81-130.59-55.18-50.69-99.76-41.97-147.39,11.04-32.85,36.57-61.28,77.11-91.71,115.65-9.75,12.35-19.54,24.93-30.68,36.04v-40.8c33.75-41,60.33-88.48,95.07-128.61,36.57-42.25,69.19-65.41,124.46-36.19,3.47,1.83,9.54,6.57,12.52,7.64,1.2.43,2.9.55,2.19-1.23-.67-1.68-8.96-7.15-11.06-9.11-.82-.77-1.55-1.65-2.37-2.43-.15-.72.92-.62,1.42-.46,7.69,2.41,20.16,11.14,29.33,14.84,96.02,38.68,145.71-23.09,223.96-62.06,80.8-40.24,161.11-60.32,246.78-19.87,88.5,41.78,199.69,161.58,301.38,88.99,12.81-9.14,23.31-21.15,36.84-29.4,27.39-16.7,61.7-20.59,91.5-8.34v18.72Z"/>
  <path class="st0" d="M1152.34,773.76v37.92c-54.14,60.17-124.9,76.49-201.14,48.5-62.97-23.13-97.2-65.44-150.48-99.12-116.08-73.35-179.74,70.5-251.71,133.68-60.56,53.16-112.69-6.61-150.23-53.35-36.86-45.89-99.39-146.37-152.03-167.65-49.15-19.88-88.42,19.56-117.75,53.48-41.25,47.69-78.43,101.53-121.92,146.88-1.78,1.86-4.17,4.98-6.75,5.25v-35.04c42.67-43.29,75.74-95.03,115.22-141.1,36.46-42.53,79.14-85.03,137.9-52.51,46.98,26,99.07,106.2,137.1,148.02,29.93,32.91,70.41,73.67,119.3,60.72,41.35-10.96,93.21-79.62,124.04-111.16,63.05-64.49,116.91-83.33,194.82-24.85,59.94,44.99,119.13,100.16,199.29,104.07,49.3,2.4,90.93-19.1,124.31-53.75Z"/>
  <path class="st0" d="M1152.34,1032v37.44c-33.69,7.82-64.94,23.13-97.42,34.58-51.74,18.24-80.68,22.68-132.67.15-52.35-22.69-100.83-53.96-152.61-77.79-102.79-47.32-156.82-34.26-241.76,34.45-54.69,44.24-108.06,94.45-165.71,134.77-64.28,44.97-103.57-3.57-136.64-56.16-26.41-42-47.47-88.55-71.44-132.08-15-27.25-33.23-63.99-58.27-82.85-22.21-16.74-41.24-7.2-58.54,10.53-.73.14-.6-.91-.49-1.45.41-1.98,8-12.71,9.79-15.17,56.92-78.25,98.6-2.71,127.67,49.58,28.18,50.69,51.43,104.43,85.45,151.67,27.8,38.59,56.83,72.51,108.32,46.28,94.31-48.04,186.64-189.63,292.26-196.38s190.76,77.36,285.64,104.2c67.42,19.07,96.01-1.48,155.28-24.24,16.82-6.46,33.96-12.07,51.12-17.52Z"/>
  <path class="st0" d="M1152.34,957.12v36c-10.71,4.44-21.73,8.07-32.33,12.79-32.84,14.63-64.29,35.59-100.79,40.33-91.24,11.84-200.95-73.16-287.59-98.97-144.14-42.95-223.13,117.19-331.91,176.43-52.28,28.47-80.05,11.17-113.7-32.26-38.66-49.89-65.2-116.65-98.67-171.09-13.26-21.57-38.61-62.72-65.68-65.84-20.4-2.35-30.71,9.08-44.53,20.54-.77.64-1.93,2.54-2.9.94,11.59-15.82,24.1-32.9,40.78-43.7,40.04-25.91,71.13,8.29,91.73,39.85,38.93,59.66,68.19,126.57,112.88,182.8,60.26,75.82,110.28,35.82,169.8-14.32,82.88-69.82,146.8-168.01,269.95-117.26,70.79,29.17,164.19,84.78,239.84,89.44,59.05,3.64,101.79-35.1,153.11-55.67Z"/>
  <path class="st0" d="M1152.34,1104v35.52c-46.27,10.88-88.08,35.84-134.19,47.73-55.17,14.22-85.87-6.39-131.41-32.2-54.06-30.64-111.93-69.94-169.59-92.49-74.37-29.09-149.55,24.38-204.62,69.31-51.73,42.2-101.77,91.35-155.16,130.92-71.54,53.01-120.22-10.3-155.23-68.25-25.44-42.12-48.25-85.92-73.34-128.26-27.28-46.05-70.82-131.8-127.98-61.15-2.71-9.93,1.84-16.09,6.81-23.91,11.85-18.68,31.42-37.35,55.5-34.54,20.5,2.39,43.54,33.32,53.78,49.9,41.58,67.32,70.15,141.57,118.27,206.21,35.12,47.19,68.83,60.26,120.68,25.85,78.63-52.18,146.33-138.33,228.49-180.47,113.97-58.45,193.63,16.99,289.92,68.49,52.83,28.26,94.06,47.84,155.41,31.24,41.35-11.19,80.85-33.5,122.67-43.89Z"/>
  <path class="st0" d="M1152.34,401.28v44.16c-41.44-10.14-77.37-22.26-119.54-6.74-35.02,12.89-55,43.29-90.5,53.5-74.54,21.44-146.87-43.84-208.51-76.07-41.96-21.94-69.31-19.14-114.73-22.55-69.89-5.24-152.8-16.24-219.61,8.89-35.43,13.33-61.08,39.3-96.07,53.69-71.03,29.2-130.69,12.01-193.9-24.35-25.68-14.78-51.02-34.5-76.49-48.31-10.25-5.56-20.89-9.25-32.66-6.22v-23.52c17.08-11.66,34.47-9.17,52.49-1.61,88.76,37.26,167.12,94.35,269.32,65.17,28.5-8.13,53.73-24.09,81.43-33.77,38.27-13.37,76.39-16.22,116.59-17.81,44.55-1.76,97.8-3.59,142.13-.99,25.6,1.5,54.5,9.73,77.89,20.03,66.68,29.38,147.76,109.5,225.6,71.38,23.12-11.32,39.35-32.28,60.87-45.69,39.98-24.93,81.94-21.7,125.68-9.2Z"/>
  <path class="st0" d="M1152.34,888.96v31.2c-38.99,21.7-72.53,57.46-119.53,60.95-89.29,6.62-177.89-49.63-257.1-83.68-47.12-20.25-75.63-30.22-125.14-6.72-69.52,33-114.29,105.39-178.36,147.08s-100.8,18.2-142.41-39.08c-32.29-44.45-58.56-95.96-89.44-141.92-18.28-27.22-42.45-66.73-80.21-63.86-38.48,2.93-76.9,61.15-96.47,90.74-21.51,32.53-40.44,66.83-63.34,98.42v-19.68c33.55-40.11,60.42-85.33,91.78-127.1,23.31-31.05,63.51-83,107.91-72.59,34.3,8.04,57.05,47.09,75.65,74.11,24.32,35.31,46.54,72.26,71.39,107.17,32.57,45.75,72.02,96.31,134.58,66.78,90.78-42.85,156.48-198.9,275.12-160.65,30.27,9.76,60.81,31.24,89.3,46.06,70.26,36.57,161.92,76.03,239.99,41.23,25.9-11.54,45.34-30.12,66.27-48.45Z"/>
  <path class="st0" d="M.34,227.52c41.55-5.44,68.68-38.79,94.06-68.66,22.26-26.21,42.43-54.16,64.37-80.59,25.94-31.24,47.36-51.26,90.7-54.26,107.21-7.4,226.35,69.54,277.45,161.25,15.76,28.29,23.04,66.85,64.79,59.07,61.56-11.47,126.34-56.04,185.28-78.72,53-20.39,88.99-3.93,137.92,16.62,42.49,17.84,104.88,56.03,151.25,47.91,39.67-6.95,58.28-44.67,74.5-77.18l11.68-18.56v22.56c0,2.11-20.69,29.87-23.82,34.74-21.66,33.71-37.29,67.09-83.18,70.42-48.81,3.54-114.35-40.47-159.23-59.73-98.49-42.27-164.65,10.1-253.14,44.8-31.56,12.37-77.2,31.42-103.69,1-17.38-19.96-30.57-44.44-49.4-64.84-58.85-63.77-196.67-137.74-283.95-106.32-45.78,16.48-87.35,83.17-120.21,119.79-21.15,23.57-45.54,48.67-75.37,60.47v-29.76Z"/>
  <path class="st0" d="M1152.34,838.08v25.44c-49.49,56.41-116.46,71.02-188.37,53.01-61.14-15.31-115.33-56.82-170.03-86.29-127.57-68.73-183.61,70.66-268.17,131.52-75.17,54.1-119.48-2.12-162.38-60.97-31.55-43.28-61.48-95.91-97.6-134.72-66.79-71.75-117.57-18.71-164.07,40.43-28.96,36.83-54.57,76.38-83.72,113.08-5.53,6.97-11.28,14.15-17.66,20.26v-30.24c44.7-45.72,79.91-100.82,121.95-148.77,36.08-41.15,83.07-86.35,138.53-45.46,8.92,6.58,20.63,17.46,28.02,25.74,48.2,54.12,89.31,135.87,144.01,181.43,54.96,45.77,89.91,23.94,134.4-19.15,71.55-69.29,127.27-177.76,242.5-102.39,18.82,12.31,36.36,27.33,55.26,39.78,75.04,49.47,173.12,85.72,254.04,26.88,12.08-8.79,22.43-19.44,33.3-29.58Z"/>
  <path class="st0" d="M1152.34,361.92c-33.66-12.34-69.37-10.02-100.82,7.18-41.75,22.83-57.63,64.94-111.83,68.65-63.64,4.36-152.27-73.48-216.69-92.4-34.14-10.03-88.65-5.82-125.01-4.51-66.26,2.4-130.58,11.29-194.65,28.07-15.97,4.19-31.66,10.09-47.79,13.65-90.27,19.91-181.29-28.71-264.47-57.14-34.63-11.84-58.46-21.42-87.44,8.64-1.27,1.32-1.32,4.36-3.31,2.42,0-.65-.07-1.31-.05-1.96.11-4.01,9.52-16.34,12.55-20.1,35.11-43.54,65.71-40.9,117.11-27.87,99.39,25.19,187.81,79.41,295.05,64.68,93.4-12.83,195.21-43.1,290.05-37.29,88.21,5.4,166.84,105.35,253.19,91.89,46.86-7.3,60.57-43.89,94.5-68.7,22.36-16.35,48.43-25.86,76.52-22.12,4.12.55,9.74,1.21,13.08,3.24v43.68Z"/>
  <path class="st0" d="M1152.34,178.56v26.4c-8.03,5.08-16.25,9.65-23.49,15.87-37.33,32.03-54.93,94.13-110.54,99.7-57.89,5.8-134.85-52.78-190.21-72.6-49.8-17.83-81.77-8.11-130.8,4.07-52.32,13-113.02,39.13-164.75,45.49-45.84,5.64-50.36-8.87-82.62-32.35-64.97-47.28-160.15-94.26-240.1-105.5-97.81-13.75-131.83,57.74-186.91,120.69-7.21,8.24-14.48,16.66-22.57,23.99v-22.08c17.72-9.42,33.36-25.21,47.07-39.81,24.33-25.93,46.49-54.87,70.52-81.16,36.44-39.86,64.38-53.11,120-47.98,86.39,7.97,188.76,67.31,247.7,129.58,18.79,19.85,27.26,41.45,58.53,39.36,71.08-4.74,144.48-47.03,213.21-65.19,48.26-12.75,84.23-.78,127.47,19.26,45.53,21.1,104.51,61.92,156.33,53.34,59.99-9.93,69.38-77.39,111.16-111.08Z"/>
  <path class="st0" d="M1152.34,237.12v40.32h-20.64c-10.34,0-31.3,10.64-40.14,16.5-45.6,30.24-58.28,85.25-124.02,85.26-49.74,0-128.76-55.97-176.47-76.97-57.64-25.37-126.35-9.31-186.11,1.43-45.68,8.21-93.04,20.2-138.7,26.42-39.05,5.32-55.24-.94-91.06-12.3-32.48-10.3-64.68-21.73-96.96-32.64-51.54-17.43-133.18-53.29-186.74-41.81C46.74,252.92,26.85,292.17.35,324.48c.16-2.48-.59-5.28.49-7.66.82-1.82,10.66-11.28,12.92-13.96,36.87-43.88,68.47-100.67,132.03-104.13,67.93-3.69,175.44,44.13,236.97,74.05,26.06,12.67,74.66,44.39,101.89,43.05,13.55-.67,31.29-3.62,44.83-6.05,60.65-10.88,121.35-30.57,182.04-42.6,48.08-9.53,65.77-4.8,109.59,13.65,52.58,22.14,121.41,71.65,178.15,67.69,55.28-3.86,73.18-58.28,109.87-89.81,12.3-10.57,27.13-18.6,43.21-21.59Z"/>
  <path class="st0" d="M1152.34,483.84v28.8c-21.36-3.75-43.24-11.17-64.81-13.43-18.28-1.92-39.17-.11-56.66,5.71-40.07,13.34-60.49,49.63-106.65,53.67-96.91,8.49-170.99-91.08-266.88-105.35-74.88-11.15-169.5-24.53-241.56,2.04-72.43,26.71-105.85,92.94-194.15,88.07-77.2-4.26-128.81-67.25-191.84-100.96-9.39-5.02-18.47-8.83-29.44-7.52v-32.64c9.06-.59,17.42,4.5,24.69,9.39,55.5,37.31,104,98.45,177.4,103.88,78.26,5.79,109.86-36.8,167.97-73.93,82.73-52.87,170.64-22.23,260.19-17.27,9.12.51,18.75-.59,27.82.02,56.43,3.79,110.51,46.22,159.2,72.16,42.43,22.6,79.51,42.03,128.56,23.59,30.06-11.3,49.75-36.43,81.4-46.28,42.47-13.22,82.95,2.31,124.76,10.04Z"/>
  <path class="st0" d="M1152.34,1240.32v35.52c-36.79,7.16-73.38,22.39-110.22,28.5-44.56,7.38-72.1-4.11-110.26-24.49-58.22-31.09-111.17-76.3-171.81-102.75-79.99-34.89-117.76,8.35-173.16,56.97-37.62,33.01-73.74,67.81-111.33,100.83-36.35,31.92-59.56,56.47-112.83,41.76-76.39-21.09-146.25-134.29-199.65-192.03-17.7-19.13-44.09-45.63-69.1-53.78-36.86-12.01-66.98,6.17-93.63,29.79v-55.68c7.82-5.04,14.85-11.49,23.35-15.53,60.33-28.65,107.82,38.4,139.29,79.93,41.94,55.36,105.26,160.72,172.86,182.34,52.96,16.93,79.4-7.64,115.71-39.84,53.27-47.24,106.81-103.36,164.23-144.89,65.68-47.52,108.96-27.37,171.44,8.87,41.75,24.21,82.11,51.07,124.47,74.25,51.7,28.29,81.65,41.08,141.54,23.13,33.25-9.96,65.42-24.11,99.1-32.9Z"/>
  <path class="st0" d="M443.38,0c40.64,26.94,74.35,62.61,98.57,104.95,8.77,15.34,20.01,47.34,32.02,57.26,27.6,22.82,65.91.05,92.96-12.6,58.98-27.57,120.77-70.91,188.77-53.14,40.51,10.59,82.07,32.21,121,47.96,55.73,22.56,107,39.68,145.72-20.3l29.93-50.23v33.12c0,3-25.41,46.82-29,52.6-36.41,58.57-80.73,45.38-135.13,23.21-87.76-35.77-141.95-83.37-239.09-32.63-38.03,19.86-112.24,69.14-152.16,72.49-40.15,3.37-44.32-34.8-56.93-63.03-25.76-57.68-74.2-108.21-127.93-140.87-10.02-6.09-20.95-10.57-30.66-16.38-1.05-.63-2.64-.97-2.86-2.42h64.8Z"/>
  <path class="st0" d="M1152.34,538.56v23.04c-32.38-8.67-61.71-16.66-94.34-3.62-22.47,8.99-35.25,24.12-54.16,37.04-92.8,63.4-189.83-32.36-270.38-73.91-106.6-54.98-211.1-39.89-313.63,15.02-46.04,24.66-88.09,63.28-143.54,61.98-61.17-1.44-130.46-60.46-183.15-90.44-12.25-6.97-39.59-23.14-52.92-22.9-15.1.26-30.74,14.1-39.89,24.99v-45.12c20.35-10.14,39.32,1.8,56.56,12.08,92.38,55.11,165.09,135.7,278.4,66.08,18.67-11.47,35.19-26.01,54.16-37.04,97.21-56.55,244.31-52.41,343.41-2.28,59.31,30,136.19,95.45,205.62,83.78,48.76-8.19,70.27-50.38,115.91-59.77,33.62-6.92,65.5,3.61,97.95,11.07Z"/>
  <path class="st0" d="M1152.34,1169.28v36l-117.87,44.37c-54.14,15.18-94.71-4.71-139.7-31.59-54.25-32.41-105.3-70.36-164.57-93.67-47.47-18.67-73.05-14.77-116.71,10.53-78.4,45.43-140.17,127.18-213.47,180.13-48.21,34.83-95.92,19.41-134.72-19.99,7.11,2.44,13.02,7.3,19.82,10.41,33.43,15.32,60.31,7,88.16-14.29,81.42-62.24,173.56-170.15,269.77-203.51,53.41-18.52,101.59,11.45,145.75,37.64,50.85,30.16,107.74,71.18,162.92,91.48,72.71,26.75,134.06-28.18,200.62-47.5Z"/>
  <path class="st0" d="M1152.34,621.12v29.76c-26.3,12.5-41.73,37.82-65.94,53.58-100.31,65.29-209.4-37.78-287.04-91.8-63.43-44.13-121.25-40.94-185.5-.58-95.73,60.14-158.24,176.66-280.85,81.97l-44.68-37.88c1-1.3,3.45.7,4.48,1.28,52.02,29.41,79.68,48.03,141.14,21.44,108.15-46.78,191.3-176.07,324.47-104.98,83.15,44.39,182.85,157.31,287.04,111.69,25.79-11.29,36.97-25.42,56.94-42.9,14.15-12.39,30.68-21.13,49.93-21.59Z"/>
  <path class="st0" d="M1152.34,6.72v34.08c-28.12,29.26-41.96,80.02-86.37,89.31-54.81,11.46-134.27-39.86-186.73-58.13-96.69-33.66-141.65,6.2-225.45,42.43-19.49,8.43-39.32,18.17-61.18,13.81-27.81-5.55-32.63-29.31-45.62-50.38-19.47-31.59-40.14-51.34-67.33-75.64-.64-.57-1.84.07-1.23-2.19h18.72c1.97,0,25.35,23.95,28.29,27.39,32.55,37.98,34.48,77.27,97.48,55.19,73.31-25.69,128.81-75.12,211.84-56.36,62.57,14.14,155.82,79.14,214.27,70.63,40.94-5.96,56.57-41.89,81.7-69.02,6.81-7.35,14.31-14.25,21.61-21.11Z"/>
  <path class="st0" d="M1123.54,0c.44,1.86-.68,1.85-1.62,2.7-26.7,24.34-50.65,61.83-89.06,63.58-53.32,2.44-126.71-43.1-177.13-63.92-1.16-.48-3.85-.99-3.87-2.37h60.96c1.28,0,19.41,10.14,22.87,11.69,33.59,15.07,74.58,30.94,110.74,15.36,14.04-6.05,24.23-17.02,35.35-27.05h41.76Z"/>
  <path class="st0" d="M203.86,0c.58,2.25-.53,1.61-1.22,2.2-3.4,2.92-7.48,5.29-10.81,8.33-21.95,20.08-37.3,50.66-54.39,75.21-26.67,38.29-74.42,102.82-121.91,113.29-5.12,1.13-9.87,2.1-15.19,1.61v-36.48c19.65-.45,35.61-10.49,50.78-21.7C101.89,104.95,134.89,47.38,175.54,0h28.32Z"/>
  <path class="st0" d="M.34,668.64c12.18-17.01,23.49-34.68,35.7-51.66,31.5-43.83,56.94-86.06,118.25-59.08,10.3,4.53,21.25,10.57,30.38,17.13-20.89-5.88-38.59-10.5-59.5-1.41-29.11,12.65-59.65,59.67-78.56,85.6-15.59,21.37-30.03,43.91-46.26,64.62v-55.2Z"/>
  <path class="st0" d="M144.34,0c.31,1.63-.81,2.53-1.54,3.74-8.74,14.45-25.71,34.24-36.88,47.6C78.29,84.37,44.06,122.07.34,131.52v-36.48c14.51-3.17,28.37-12.01,40.24-20.72C68.66,53.68,90.74,25.54,114.1,0h30.24Z"/>
  <path class="st0" d="M718.42,0l-104.67,50.37c-19.94,7.88-36.76,10.91-56.29-.29-12.03-6.9-18.78-18.81-27.66-28.98-6.3-7.21-13.48-13.81-19.69-21.1,6.17.84,10.91,7.63,15.86,11.49,7.96,6.19,14.88,12.23,25.18,14.18,30.26,5.73,58.19-11.41,83.28-25.68h84Z"/>
  <path class="st0" d="M.34,1025.28c6.38-3.61,11.77-8.66,18.56-11.68,45.87-20.44,78.65,30.42,99.54,63.02,16.79,26.2,32.12,53.8,46.07,81.61-.62,1.33-1.84-1.26-2.15-1.69-12.54-17.58-23.72-36.22-36.82-53.42-17.02-22.33-45.85-56.3-75.77-58.63-18.57-1.44-35.67,8.94-49.43,20.14v-39.36Z"/>
  <path class="st0" d="M.34,618.24v-60c11.81-18,33.25-47.59,56.26-50.3,17.58-2.07,36.99,8.7,52.58,16.33,3.02,1.48,21.58,10.39,21.7,11.89.16,2.11-2.6.62-3.3.45-8.75-2-18.25-7.23-27.17-8.37-27.87-3.55-44.98,14.19-60.67,33.87-14.24,17.86-26.04,37.64-39.4,56.12Z"/>
  <path class="st0" d="M76.18,0c.44,1.86-.68,1.85-1.62,2.7C51.1,24.09,29.36,49.47.34,63.36V24.48C12.15,17.01,24.38,9.84,34.42,0h41.76Z"/>
  <path class="st0" d="M1026.58,0c-.65,1.75-4.83,2.32-6.49,2.63-9.54,1.79-22.64,1.1-32.15-.97-.94-.21-2.87-.34-2.65-1.66h41.28Z"/>
  <path class="st0" d="M552.34,0c.25,1.26-1.77,1.54-2.63,1.68-3.45.53-8.67.54-12.16.16-.94-.1-3.61-.42-3.45-1.83h18.24Z"/>
</svg>