<?xml version="1.0" encoding="UTF-8"?>
<svg id="Layer_1" data-name="Layer 1" xmlns="http://www.w3.org/2000/svg" version="1.1" viewBox="0 0 1913 1613">
  <defs>
    <style>
      .cls-1 {
        fill: #000;
        stroke-width: 0px;
      }
    </style>
  </defs>
  <path class="cls-1" d="M838,0c6.6.6,13.2,1.3,19.8,1.7,80.5,5.2,158.5,22,234,50.4,32.9,12.4,64.9,26.9,95.8,43.6,1.1.6,2.2,1.4,3.7,2.3-20.8,49.3-41.6,98.5-62.4,147.8-147.9-81.3-304.1-107-468.6-68.5-164.4,38.4-295.2,128.6-389.7,268.4-159.5,236-145.8,548.6,36.6,770.9,185.2,225.7,494.2,295.7,752.7,184.1,147.2-63.5,257.3-167.7,327.4-312,70-144.3,82.6-295,43.2-450.8,52.2-10.4,104.4-20.8,157.2-31.3,3,13.4,6.2,26.3,8.8,39.3,11.7,57.7,17.4,116,16,174.8-3.9,158.2-48.5,303.7-136.8,435.3-72.7,108.4-166.6,193.8-280.8,257-76.1,42.1-157.1,70.8-242.5,86.8-36.4,6.8-73.1,11-110.1,12.5-2.1,0-4.2.6-6.4.9h-56c-2-.3-3.9-.7-5.9-.8-32.5-1.3-64.8-4.6-96.9-9.9-73.2-11.9-143.6-33.2-210.8-64.6-92.9-43.3-174.5-102.2-245-176.5-53.7-56.6-98.2-119.6-133.5-189.2C37.7,1073.3,8.8,968.5,1.7,857.8c-.5-7.3-1.2-14.6-1.7-21.8,0-18.7,0-37.3,0-56,.3-2.3.6-4.6.8-6.9,2.1-24.4,3.4-48.9,6.5-73.1,7.7-60.1,22.4-118.6,43.6-175.5,42.9-114.9,108.6-214.7,196.9-299.7,72.9-70.1,156.3-124.6,249.8-163.4C579.1,27.7,663.7,7.7,751.7,1.8,759.1,1.3,766.6.6,774,0c21.3,0,42.7,0,64,0Z"/>
  <path class="cls-1" d="M1913,2.6c-12.8,6.4-25.7,12.6-38.4,19.1-55.4,28.3-108.3,60.8-159.9,95.6-129.7,87.6-247.8,189-357,301-100.3,102.9-191.3,213.7-274.2,331.1-68,96.3-129.8,196.4-186.2,300-47.6,87.5-91.1,177-130.8,268.4-.5,1.2-1.2,2.4-2.2,4.5-147.4-180.4-294.4-360.3-441.6-540.6,71-82.4,141.7-164.5,213-247.2,71.4,100.9,142.5,201.5,214.1,302.6,5.6-6.9,11-13.4,16.3-19.9,44.7-54.3,91.9-106.4,140.7-157.1,78.4-81.5,160.8-158.7,247.4-231.3,110.5-92.6,226.9-177,351.5-249.9,110.4-64.6,225.5-119,347.2-158.9,19.7-6.5,39.7-12.3,59.5-18.4.2.3.3.6.5.9Z"/>
</svg>