<?xml version="1.0" encoding="UTF-8"?>
<svg id="Layer_1" data-name="Layer 1" xmlns="http://www.w3.org/2000/svg" viewBox="0 0 201.96 79.12">
  <g>
    <path d="M28.22,19.8l.21.58-5.09-14.62C22.37,3.11,21.12.46,19.4,0h9.29c-1.9.5-1.66,3.9-.7,6.67l12.1,34.63L52.38,6.17l-.02.05c.85-2.42,1.55-5.71-.35-6.22h5.71c-1.85.49-3.69,3.31-4.7,6.13l-12.62,36.06h-.62,0c-3.28-.15-3.96-1.44-5.1-3.84l-6.15-17.65-7.52,21.49h-.62v-.02c-3.28-.13-3.95-1.42-5.09-3.82L3.83,5.44C2.88,2.9,1.66.44,0,0h9.3c-1.91.5-1.66,3.91-.7,6.67l12.1,34.63,7.52-21.5Z" fill="#1d3557" stroke-width="0"/>
    <path d="M54.77,32.81c.56,7.05,3.6,9.75,6.95,9.58,4.57-.23,7.85-3.52,9.36-8.58l.34.32c-1.51,5.67-5.3,8.47-9.27,8.81-5.74.5-11.82-4.1-11.82-12.52,0-6.4,4.37-12.62,10.79-12.62,5.26,0,9.14,4.17,10.38,9.2l-3.99,1.38-12.73,4.42ZM67.46,27.79c-.3-4.37-1.57-9.36-6.34-9.36-5.77,0-6.44,7.31-6.44,11.99,0,.62.02,1.22.05,1.78l12.73-4.42Z" fill="#1d3557" stroke-width="0"/>
    <path d="M81.75,18.46c-6.93,0-10.5,7.33.46,9.96,14.66,3.52,7.51,14.57-.41,14.57-2.73,0-5.2-1.07-7.13-2.81-.29-.26-.5-.21-.5.18h-.62v-6.67h.62v1.44c0,3.66,2.34,7.22,7.63,7.22s12.4-6.62-.59-9.74c-14.33-3.45-7.73-14.81.54-14.81,2.42,0,4.64.84,6.46,2.26.4.3.64.38.64-.32h.62v6.97h-.62v-.75c0-4.02-1.84-7.53-7.1-7.53Z" fill="#1d3557" stroke-width="0"/>
    <path d="M108.49,38.85c0,.34-.47.94-1.41,1.81-1.62,1.47-3.54,2.2-5.76,2.2-2.07,0-3.64-.53-4.69-1.58-.6-.6-.9-2.37-.9-5.3v-16.8c-.04-.38-.25-.58-.62-.62h-2.15c-.83,0-1.24-.13-1.24-.4s.21-.41.62-.45c2.92-.27,5.2-1.71,6.85-4.34.22-.34.5-.51.84-.51.26,0,.39.13.39.4v1.19c0,1.58.08,2.6.23,3.05.34.08.9.11,1.7.11,2.07,0,3.45-.09,4.12-.28.15-.04.28-.06.4-.06.3,0,.45.16.45.49,0,.54-1.53.81-4.58.81h-2.32v10.45c0,5.27.13,8.58.4,9.92.26,1.34,1.13,2.01,2.6,2.01,1.24,0,2.64-.7,4.18-2.09.15-.19.32-.28.51-.28.26,0,.4.09.4.28Z" fill="#1d3557" stroke-width="0"/>
    <path d="M124.54,38.85c0,.34-.47.94-1.41,1.81-1.62,1.47-3.54,2.2-5.76,2.2-2.07,0-3.64-.53-4.69-1.58-.6-.6-.9-2.37-.9-5.3v-16.8c-.04-.38-.25-.58-.62-.62h-2.15c-.83,0-1.24-.13-1.24-.4s.21-.41.62-.45c2.92-.27,5.2-1.71,6.85-4.34.22-.34.5-.51.84-.51.26,0,.39.13.39.4v1.19c0,1.58.08,2.6.23,3.05.34.08.9.11,1.7.11,2.07,0,3.45-.09,4.12-.28.15-.04.28-.06.4-.06.3,0,.45.16.45.49,0,.54-1.53.81-4.58.81h-2.32v10.45c0,5.27.13,8.58.4,9.92.26,1.34,1.13,2.01,2.6,2.01,1.24,0,2.64-.7,4.18-2.09.15-.19.32-.28.51-.28.26,0,.4.09.4.28Z" fill="#1d3557" stroke-width="0"/>
    <path d="M146.75,30.43c0,6.4-4.59,12.62-11.34,12.62s-11.33-6.22-11.33-12.62,4.59-12.62,11.33-12.62,11.34,6.22,11.34,12.62ZM128.41,30.43c0,4.68.93,11.99,7,11.99s7-7.3,7-11.99-.92-11.99-7-11.99-7,7.31-7,11.99Z" fill="#1d3557" stroke-width="0"/>
    <path d="M151.04,18.68h3.25c-1.85.49-1.95,3.71-1.29,6.36l4.95,16.11,2.99-10.62-2.25-7.32c-.78-2.04-1.99-4.15-3.39-4.53h9.49c-1.62.43-1.9,2.95-1.5,5.33l5.28,17.13,4.82-17.11c.36-2.26-.01-4.92-1.68-5.36h6.34c-1.84.49-3.59,3.85-4.29,6.23l-4.86,17.28h-.62c-2.58-.09-4.01-.81-4.87-3.71l-2.13-6.9-2.99,10.61h-.62c-2.58-.09-4-.81-4.87-3.71l-4.07-13.24v.03c-.66-2.39-2.18-6.08-4.08-6.59h6.41Z" fill="#1d3557" stroke-width="0"/>
    <path d="M177.66,42.18c1.91-.51,2.48-3.94,2.48-6.59h0s0-4.89,0-4.89h0v-3.42c0-2.65-.58-6.08-2.48-6.59,2.38,0,5.08.48,6.4-2.02h.42v6.72c1.83-5.37,5.6-7.55,8.67-7.52,3.36.03,6.32,1.96,6.32,6.08v11.69c0,2.64.58,6.04,2.48,6.54h-2.79c-2.02-.13-4.03-1.46-4.03-4v-14.43c0-7.84-10.57-2.78-10.65,4.04v7.8c0,2.65.57,6.08,2.48,6.59h-9.3Z" fill="#1d3557" stroke-width="0"/>
  </g>
  <g>
    <path d="M53.62,61.68l.15.43-3.82-10.96c-.72-1.98-1.65-3.97-2.95-4.32h6.97c-1.43.38-1.24,2.93-.52,5l9.07,25.97,9.22-26.35-.02.04c.64-1.82,1.17-4.29-.26-4.67h4.29c-1.39.37-2.77,2.48-3.53,4.59l-9.47,27.05h-.47,0c-2.46-.11-2.97-1.08-3.83-2.88l-4.61-13.24-5.64,16.12h-.47,0c-2.46-.11-2.97-1.08-3.83-2.88l-8.6-24.68c-.71-1.91-1.62-3.75-2.87-4.08h6.97c-1.43.38-1.25,2.93-.52,5l9.07,25.97,5.64-16.12Z" fill="#1d3557" stroke-width="0"/>
    <path d="M73.53,71.44c.42,5.29,2.7,7.31,5.22,7.19,3.43-.17,5.89-2.64,7.02-6.44l.25.24c-1.13,4.25-3.98,6.35-6.95,6.61-4.3.38-8.87-3.08-8.87-9.39,0-4.8,3.28-9.46,8.09-9.46,3.95,0,6.86,3.13,7.78,6.9l-3,1.04-9.55,3.31ZM83.05,67.67c-.23-3.28-1.18-7.02-4.76-7.02-4.33,0-4.83,5.48-4.83,9,0,.47.02.91.04,1.33l9.55-3.31Z" fill="#1d3557" stroke-width="0"/>
    <path d="M96.07,79.12c-2.81,0-4.4-1.5-5.25-3.66,0,2.73-2.67,3.01-5.12,3.01,1.42-.38,1.86-2.93,1.86-4.91v-20.28c0-1.98-.43-4.56-1.86-4.94,1.79,0,3.81.36,4.8-1.52h.32v16.81c.85-2.06,2.44-3.45,5.25-3.45,5.06,0,8.5,4.67,8.5,9.46s-3.45,9.46-8.5,9.46ZM96.07,78.65c4.55,0,5.24-5.49,5.24-9s-.69-8.99-5.24-8.99-5.25,5.48-5.25,8.99.69,9,5.25,9Z" fill="#1d3557" stroke-width="0"/>
    <path d="M112.35,60.68c-5.2,0-7.88,5.5.35,7.47,11,2.64,5.63,10.93-.31,10.93-2.05,0-3.9-.8-5.35-2.11-.21-.2-.37-.16-.37.14h-.47v-5h.47v1.08c0,2.74,1.75,5.42,5.72,5.42s9.3-4.96-.44-7.3c-10.75-2.59-5.8-11.11.4-11.11,1.81,0,3.48.63,4.85,1.69.3.23.48.29.48-.24h.47v5.23h-.47v-.56c0-3.02-1.38-5.64-5.33-5.64Z" fill="#1d3557" stroke-width="0"/>
    <path d="M119.52,78.47c1.42-.38,1.85-2.93,1.86-4.91v-6.28c0-1.98-.43-4.54-1.86-4.92,1.79,0,3.81.36,4.8-1.52h.32v12.69c0,1.98.43,4.56,1.86,4.94h-6.98ZM123.01,58.89c-.98,0-1.77-.86-1.77-1.91s.79-1.91,1.77-1.91,1.77.86,1.77,1.91-.8,1.91-1.77,1.91Z" fill="#1d3557" stroke-width="0"/>
    <path d="M139.55,75.95c0,.26-.36.71-1.07,1.37-1.22,1.11-2.68,1.67-4.36,1.67-1.57,0-2.75-.4-3.54-1.19-.46-.45-.68-1.79-.68-4v-12.69c-.03-.28-.19-.44-.47-.47h-1.62c-.63,0-.94-.1-.94-.3s.16-.31.47-.34c2.21-.2,3.93-1.29,5.17-3.28.17-.26.38-.39.64-.39.2,0,.3.1.3.3v.9c0,1.2.06,1.96.17,2.31.26.06.68.09,1.28.09,1.57,0,2.6-.07,3.12-.21.11-.03.21-.04.3-.04.23,0,.34.12.34.37,0,.41-1.15.61-3.46.61h-1.75v7.9c0,3.99.1,6.48.3,7.49.2,1.01.85,1.52,1.96,1.52.94,0,1.99-.53,3.16-1.58.11-.14.24-.21.38-.21.2,0,.3.07.3.21Z" fill="#1d3557" stroke-width="0"/>
    <path d="M142.57,71.44c.42,5.29,2.7,7.31,5.22,7.19,3.43-.17,5.89-2.64,7.02-6.44l.25.24c-1.13,4.25-3.98,6.35-6.95,6.61-4.3.38-8.87-3.08-8.87-9.39,0-4.8,3.28-9.46,8.09-9.46,3.95,0,6.86,3.13,7.78,6.9l-3,1.04-9.55,3.31ZM152.08,67.67c-.23-3.28-1.18-7.02-4.76-7.02-4.33,0-4.83,5.48-4.83,9,0,.47.02.91.04,1.33l9.55-3.31Z" fill="#1d3557" stroke-width="0"/>
    <path d="M162.8,60.68c-5.2,0-7.88,5.5.35,7.47,11,2.64,5.63,10.93-.31,10.93-2.05,0-3.9-.8-5.35-2.11-.21-.2-.37-.16-.37.14h-.47v-5h.47v1.08c0,2.74,1.75,5.42,5.72,5.42s9.3-4.96-.44-7.3c-10.75-2.59-5.8-11.11.4-11.11,1.81,0,3.48.63,4.85,1.69.3.23.48.29.48-.24h.47v5.23h-.47v-.56c0-3.02-1.38-5.64-5.33-5.64Z" fill="#1d3557" stroke-width="0"/>
  </g>
</svg>