<?xml version="1.0" encoding="UTF-8"?>
<svg id="Layer_1" data-name="Layer 1" xmlns="http://www.w3.org/2000/svg" viewBox="0 0 1458.48 223.68">
  <defs>
    <style>
      .cls-1 {
        fill: #231f20;
      }

      .cls-1, .cls-2, .cls-3 {
        stroke-width: 0px;
      }

      .cls-2 {
        fill: #191011;
      }

      .cls-3 {
        fill: #170d0d;
      }
    </style>
  </defs>
  <path class="cls-1" d="M145.53,106.25l1.06,2.98-26.26-75.39c-4.95-13.64-11.38-27.32-20.29-29.7h47.92c-9.83,2.61-8.54,20.14-3.59,34.39l62.39,178.6,63.41-181.17-.11.26c4.38-12.51,8.01-29.48-1.81-32.08h29.47c-9.52,2.53-19.04,17.08-24.26,31.59l-65.11,185.96h-3.21l.04-.08c-16.89-.68-20.41-7.33-26.3-19.73l-31.71-91.04-38.81,110.84h-3.21l.04-.08c-16.93-.68-20.41-7.33-26.3-19.73L19.73,32.21C14.85,19.1,8.58,6.4,0,4.13h47.96c-9.83,2.61-8.58,20.14-3.59,34.39l62.39,178.6,38.78-110.87Z"/>
  <path class="cls-1" d="M334.45,106.25l1.06,2.98-26.26-75.39c-4.95-13.64-11.38-27.32-20.29-29.7h47.92c-9.83,2.61-8.54,20.14-3.59,34.39l62.39,178.6,63.41-181.17-.11.26c4.38-12.51,8.01-29.48-1.81-32.08h29.47c-9.52,2.53-19.04,17.08-24.26,31.59l-65.11,185.96h-3.21l.04-.08c-16.89-.68-20.41-7.33-26.3-19.73l-31.71-91.04-38.81,110.84h-3.21l.04-.08c-16.93-.68-20.41-7.33-26.3-19.73l-59.14-169.68c-4.88-13.11-11.15-25.81-19.73-28.08h47.96c-9.83,2.61-8.58,20.14-3.59,34.39l62.39,178.6,38.78-110.87Z"/>
  <g>
    <g>
      <path class="cls-2" d="M491.75,7.13l-4.81-2.17v-1.09h41.88v.62l-5.43,2.64,27.92,95.39,17.84-56.61-12.72-38.78-4.81-2.17v-1.09h41.88v.62l-5.43,2.64,27.92,95.39,30.09-95.39-4.03-2.48v-.78h13.96v.78l-3.26,2.48-32.42,105.47h-29.32l-18.3-55.68-17.06,55.68h-29.32L491.75,7.13Z"/>
      <path class="cls-2" d="M725.33,9.93h-27.76v45.91h20.47l6.2-7.76v19.39l-6.2-7.75h-20.47v47.77h31.02l11.48-12.25-2.95,17.68-70.88-.16v-1.24l4.5-3.72V8.38l-4.5-2.95v-1.24h70.88l3.1,18.15-14.89-12.41Z"/>
      <path class="cls-2" d="M849.56,26.68c0,6.67-7.29,15.51-14.27,15.51-4.03,0-7.29-3.26-9.46-9.46-4.65-13.34-11.79-25.13-23.11-25.13-8.69,0-16.29,7.91-16.29,17.99,0,21.4,60.49,24.35,60.49,56.77,0,25.28-29.16,35.21-48.39,35.21-17.99,0-37.85-7.45-45.45-25.28l6.36-4.19c5.27,9,18.92,20.63,36.61,21.4,11.79.47,19.85-9.31,19.85-18.46,0-21.56-59.72-21.09-59.72-55.22,0-24.66,23.58-34.28,42.65-34.28,20.78,0,35.98,5.12,47.15,16.6,2.33,2.48,3.57,5.43,3.57,8.53Z"/>
      <path class="cls-2" d="M876.7,8.22l-20.78,13.34,3.1-17.53h88.26l3.1,17.53-17.99-13.34h-16.29v99.42l4.5,3.88v1.24h-35.83v-1.24l4.5-3.72V9l-1.24-.78h-11.32Z"/>
      <path class="cls-3" d="M973.79,8.22l-20.78,13.34,3.1-17.53h88.26l3.1,17.53-17.99-13.34h-16.29v99.42l4.5,3.88v1.24h-35.83v-1.24l4.5-3.72V9l-1.24-.78h-11.32Z"/>
      <path class="cls-3" d="M1167.05,58.16c0,37.54-29.62,58.01-60.8,58.01s-60.65-20.47-60.65-58.01S1076,0,1107.33,0s59.71,19.08,59.71,58.16ZM1134.01,57.54c0-36.29-13.34-48.08-26.99-48.08s-26.83,13.18-26.83,48.7,13.18,48.86,26.83,48.86,26.99-13.49,26.99-49.48Z"/>
      <path class="cls-3" d="M1177.59,7.13l-4.81-2.17v-1.09h41.88v.62l-5.43,2.64,27.92,95.39,17.84-56.61-12.72-38.78-4.81-2.17v-1.09h41.88v.62l-5.43,2.64,27.92,95.39,30.09-95.39-4.03-2.48v-.78h13.96v.78l-3.26,2.48-32.42,105.47h-29.32l-18.3-55.68-17.06,55.68h-29.32l-34.59-105.47Z"/>
      <path class="cls-3" d="M1440.64,4.19h17.84v.62l-4.65,1.71v106.25h-17.68l-70.57-76v72.74l4.65,2.17v1.09h-17.53v-1.09l4.65-2.17V4.03h17.06l70.88,76.31V6.51l-4.65-1.71v-.62Z"/>
    </g>
    <g>
      <path class="cls-3" d="M759.4,155.92l-2.95-1.33v-.67h25.7v.38l-3.33,1.62,17.13,58.53,10.94-34.74-7.8-23.79-2.95-1.33v-.67h25.7v.38l-3.33,1.62,17.13,58.53,18.46-58.53-2.47-1.52v-.48h8.57v.48l-2,1.52-19.89,64.72h-17.99l-11.23-34.17-10.47,34.17h-17.99l-21.22-64.72Z"/>
      <path class="cls-3" d="M902.72,157.63h-17.04v28.17h12.56l3.81-4.76v11.9l-3.81-4.76h-12.56v29.31h19.03l7.04-7.52-1.81,10.85-43.49-.09v-.76l2.76-2.28v-61l-2.76-1.81v-.76h43.49l1.9,11.13-9.14-7.61Z"/>
      <path class="cls-3" d="M954.87,154.11c10.18,0,19.7,5.71,19.7,17.04,0,7.04-2.47,10.85-7.9,14.94,8.47,2.47,12.85,9.04,12.85,16.08,0,11.23-8.28,18.56-19.13,18.56h-37.59v-.76l2.76-2.28v-61l-2.76-1.81v-.76h32.07ZM949.06,186.09c6.66,0,9.14-7.04,9.14-13.61,0-9.8-3.52-14.85-9.52-14.85h-6.66v28.46h7.04ZM948.78,216.92c7.61,0,12.66-4.38,12.66-12.56,0-9.14-4.28-15.99-13.23-15.99h-6.19v28.55h6.76Z"/>
      <path class="cls-3" d="M1045.75,167.91c0,4.09-4.47,9.52-8.76,9.52-2.47,0-4.47-2-5.81-5.81-2.85-8.18-7.23-15.42-14.18-15.42-5.33,0-9.99,4.85-9.99,11.04,0,13.13,37.12,14.94,37.12,34.83,0,15.51-17.89,21.6-29.69,21.6-11.04,0-23.22-4.57-27.88-15.51l3.9-2.57c3.24,5.52,11.61,12.66,22.46,13.13,7.23.29,12.18-5.71,12.18-11.32,0-13.23-36.64-12.94-36.64-33.88,0-15.13,14.47-21.03,26.17-21.03,12.75,0,22.08,3.14,28.93,10.18,1.43,1.52,2.19,3.33,2.19,5.23Z"/>
      <path class="cls-3" d="M1052.12,154.11h19.22v63.48l2.76,2.38v.76h-21.98v-.76l2.76-2.28v-61l-2.76-1.81v-.76Z"/>
      <path class="cls-3" d="M1091.71,156.59l-12.75,8.18,1.9-10.75h54.15l1.9,10.75-11.04-8.18h-9.99v61l2.76,2.38v.76h-21.98v-.76l2.76-2.28v-60.62l-.76-.48h-6.95Z"/>
      <path class="cls-3" d="M1178.6,157.63h-17.04v28.17h12.56l3.81-4.76v11.9l-3.81-4.76h-12.56v29.31h19.03l7.04-7.52-1.81,10.85-43.49-.09v-.76l2.76-2.28v-61l-2.76-1.81v-.76h43.49l1.9,11.13-9.14-7.61Z"/>
      <path class="cls-3" d="M1254.83,167.91c0,4.09-4.47,9.52-8.76,9.52-2.47,0-4.47-2-5.81-5.81-2.85-8.18-7.23-15.42-14.18-15.42-5.33,0-9.99,4.85-9.99,11.04,0,13.13,37.12,14.94,37.12,34.83,0,15.51-17.89,21.6-29.69,21.6-11.04,0-23.22-4.57-27.88-15.51l3.9-2.57c3.24,5.52,11.61,12.66,22.46,13.13,7.23.29,12.18-5.71,12.18-11.32,0-13.23-36.64-12.94-36.64-33.88,0-15.13,14.47-21.03,26.17-21.03,12.75,0,22.08,3.14,28.93,10.18,1.43,1.52,2.19,3.33,2.19,5.23Z"/>
    </g>
  </g>
</svg>