<?xml version="1.0" encoding="UTF-8"?>
<svg id="Layer_1" data-name="Layer 1" xmlns="http://www.w3.org/2000/svg" xmlns:ns0="http://www.w3.org/2000/svg" version="1.1" viewBox="0 0 804.67 436.26">
  <defs>
    <style>
      .cls-1 {
        fill: #124e66;
        stroke-width: 0px;
      }
    </style>
  </defs>
  <g id="Logo_Shape" data-name="Logo Shape">
    <path class="cls-1" d="M240.65,204.75l1.75,5.99-43.43-151.17C190.78,32.21,180.16,4.78,165.41,0h79.23c-16.25,5.23-14.12,40.39-5.94,68.95l103.17,358.11L446.74,63.81l-.19.53c7.25-25.08,13.25-59.1-3-64.33h48.74c-15.75,5.08-31.49,34.25-40.12,63.35l-107.67,372.89h-5.31l.06-.15c-27.93-1.37-33.74-14.7-43.49-39.55l-52.43-182.54-64.18,222.25h-5.31l.06-.15c-28-1.36-33.74-14.7-43.49-39.55L32.62,56.3C24.56,30.01,14.19,4.55,0,0h79.3c-16.25,5.23-14.19,40.39-5.94,68.95l103.17,358.11,64.12-222.31Z"/>
    <path class="cls-1" d="M553.04,204.75l1.75,5.99-43.43-151.17C503.17,32.21,492.55,4.78,477.8,0h79.23c-16.25,5.23-14.12,40.39-5.94,68.95l103.17,358.11,104.86-363.26-.19.53c7.25-25.08,13.25-59.1-3-64.33h48.74c-15.75,5.08-31.49,34.25-40.12,63.35l-107.67,372.89h-5.31l.06-.15c-27.93-1.37-33.74-14.7-43.49-39.55l-52.43-182.54-64.18,222.25h-5.31l.06-.15c-28-1.36-33.74-14.7-43.49-39.55L345.01,56.3c-8.06-26.3-18.43-51.75-32.62-56.3h79.3c-16.25,5.23-14.19,40.39-5.94,68.95l103.17,358.11,64.12-222.31Z"/>
  </g>
</svg>