<?xml version="1.0" standalone="no"?>
<!DOCTYPE svg PUBLIC "-//W3C//DTD SVG 20010904//EN"
 "http://www.w3.org/TR/2001/REC-SVG-20010904/DTD/svg10.dtd">
<svg version="1.0" xmlns="http://www.w3.org/2000/svg"
 width="976.000000pt" height="976.000000pt" viewBox="0 0 976.000000 976.000000"
 preserveAspectRatio="xMidYMid meet">
<metadata>
Created by potrace 1.14, written by Peter Selinger 2001-2017
</metadata>
<g transform="translate(0.000000,976.000000) scale(0.100000,-0.100000)"
fill="#000000" stroke="none">
<path d="M1379 9756 c-2 -2 -20 -6 -39 -9 -55 -9 -62 -12 -120 -41 -84 -41
-101 -54 -195 -141 -136 -129 -246 -421 -280 -749 -3 -21 -7 -55 -10 -75 -7
-51 -16 -163 -21 -251 -4 -92 -4 -674 1 -785 12 -292 16 -377 20 -435 13 -150
11 -172 -14 -220 -37 -68 -82 -199 -89 -255 -18 -145 -6 -366 29 -516 6 -26
11 -54 13 -63 1 -8 5 -19 9 -22 4 -4 7 -16 7 -26 0 -18 55 -190 81 -253 7 -16
13 -35 15 -42 1 -6 23 -53 48 -105 50 -102 106 -163 266 -294 47 -38 91 -75
98 -82 8 -7 30 -25 50 -40 20 -15 45 -36 57 -47 106 -100 157 -151 200 -200
28 -32 55 -63 60 -69 6 -6 32 -43 58 -82 85 -129 80 -94 78 -584 -1 -239 -3
-482 -5 -540 -3 -111 -21 -212 -43 -245 -7 -11 -13 -27 -13 -37 0 -10 -4 -18
-9 -18 -5 0 -13 -12 -19 -27 -5 -16 -24 -46 -41 -68 -30 -39 -38 -49 -94 -111
-51 -56 -44 -99 28 -177 24 -26 92 -104 121 -139 26 -30 82 -143 89 -178 15
-72 17 -91 17 -157 0 -75 10 -99 60 -144 10 -9 18 -21 18 -26 0 -6 9 -18 19
-27 44 -40 128 -203 221 -426 82 -196 140 -299 233 -414 40 -49 48 -65 46 -95
-2 -20 -5 -40 -8 -46 -3 -5 -6 -16 -7 -25 -20 -152 -23 -242 -10 -350 7 -68
39 -192 57 -224 6 -10 12 -26 14 -36 2 -10 15 -36 29 -59 14 -22 26 -44 26
-49 0 -5 9 -17 20 -27 11 -10 20 -22 20 -27 0 -18 136 -146 202 -191 76 -51
106 -66 193 -95 86 -29 129 -34 315 -37 91 -2 170 -3 175 -4 6 -1 21 -11 35
-23 49 -44 218 -138 250 -138 5 0 18 -4 28 -9 16 -9 106 -34 127 -36 6 -1 21
-4 35 -8 46 -12 158 -27 244 -32 34 -2 61 -4 61 -5 0 -1 45 -3 100 -5 149 -5
196 -13 282 -49 43 -18 81 -34 86 -34 4 -1 17 -4 30 -7 12 -3 36 -8 52 -11 17
-4 98 -8 180 -9 171 -4 233 6 365 59 107 42 126 46 246 51 200 9 279 15 399
32 73 10 93 14 160 30 17 4 32 7 35 8 35 8 126 42 131 48 3 5 9 8 13 7 18 -5
81 29 190 99 l65 43 83 -7 c150 -12 332 0 380 26 10 5 18 7 18 5 0 -7 144 55
187 80 18 11 33 22 33 27 0 4 7 7 15 7 8 0 15 5 15 10 0 6 5 10 10 10 22 0
138 123 185 195 28 42 50 79 51 83 0 4 10 28 22 54 52 117 66 191 67 353 0
123 -4 165 -23 261 -9 42 0 82 21 99 7 6 30 33 52 60 22 28 42 52 46 55 4 4
23 33 66 105 26 43 67 136 65 147 -1 5 2 8 8 8 5 0 10 7 10 15 0 8 4 23 9 33
14 25 24 56 23 64 -1 5 2 8 8 8 5 0 10 7 10 15 0 18 92 219 102 223 5 2 8 8 8
14 0 14 92 128 127 156 15 13 54 39 85 59 l57 35 -4 62 c-2 33 -7 95 -11 136
-9 99 -7 159 6 175 5 6 7 15 3 18 -3 4 -1 7 5 7 6 0 13 8 17 18 3 9 35 49 70
87 112 122 123 169 54 245 -102 112 -145 181 -191 310 -23 65 -23 67 -23 585
l0 520 28 81 c25 76 101 213 157 284 36 46 198 208 254 255 26 22 53 45 59 50
7 6 39 33 72 60 33 28 62 53 63 58 2 4 9 7 15 8 7 0 37 30 67 66 30 36 61 72
68 79 7 8 11 14 7 14 -3 0 3 13 15 30 22 31 59 109 59 124 -1 5 3 12 8 15 8 5
59 156 67 198 2 10 9 36 15 59 18 66 32 144 39 214 9 89 8 354 -2 415 -4 28
-9 59 -11 70 -5 36 -26 109 -53 185 -26 72 -27 83 -26 270 1 107 5 263 9 345
15 279 10 831 -9 990 -3 22 -7 65 -10 95 -7 73 -16 140 -22 168 -2 12 -6 34
-9 50 -44 229 -62 291 -118 412 -59 128 -158 249 -258 317 -55 38 -159 87
-167 79 -3 -3 -12 0 -20 6 -16 13 -216 18 -262 6 -14 -3 -43 -9 -65 -13 -22
-4 -52 -14 -67 -22 -16 -7 -28 -11 -28 -8 0 3 -17 -3 -37 -14 -21 -10 -42 -20
-48 -22 -5 -1 -18 -4 -27 -7 -10 -2 -18 -8 -18 -13 0 -5 -7 -9 -15 -9 -35 0
-405 -248 -405 -272 0 -4 -5 -8 -10 -8 -6 0 -21 -10 -34 -22 -13 -13 -54 -50
-91 -83 -80 -72 -67 -59 -190 -187 -90 -93 -129 -138 -232 -258 -45 -53 -218
-284 -244 -327 -13 -21 -29 -44 -36 -51 -7 -7 -13 -17 -13 -22 0 -5 -6 -15
-13 -22 -7 -7 -42 -62 -79 -123 -58 -96 -85 -143 -132 -230 -6 -11 -17 -28
-25 -37 -8 -10 -11 -18 -7 -18 3 0 -4 -17 -17 -37 -24 -38 -26 -42 -35 -75 -2
-10 -8 -18 -13 -18 -5 0 -9 -4 -9 -9 0 -5 -7 -25 -15 -45 -8 -20 -14 -37 -13
-39 2 -2 -3 -11 -11 -20 -7 -10 -10 -17 -6 -17 4 0 3 -6 -2 -12 -6 -7 -18 -38
-28 -68 -10 -30 -22 -61 -28 -67 -5 -7 -6 -13 -2 -13 4 0 2 -7 -5 -15 -7 -8
-10 -15 -7 -15 10 0 -61 -160 -94 -213 -16 -26 -29 -51 -29 -56 0 -5 -4 -11
-9 -13 -5 -1 -17 -19 -28 -38 -46 -82 -59 -100 -84 -109 -14 -5 -32 -5 -40 -1
-8 5 -27 11 -44 14 -16 3 -60 12 -96 20 -95 21 -121 27 -146 31 -28 4 -97 15
-138 21 -16 3 -55 7 -85 10 -30 3 -73 7 -95 9 -200 19 -456 23 -645 10 -63 -4
-134 -8 -157 -9 -24 0 -43 -3 -43 -6 0 -3 -12 -5 -27 -5 -33 -1 -139 -14 -156
-20 -7 -2 -28 -6 -47 -9 -36 -6 -67 -12 -110 -21 -14 -4 -36 -8 -50 -11 -14
-3 -58 -14 -99 -25 -69 -19 -75 -19 -92 -3 -11 9 -19 21 -19 26 0 5 -5 14 -11
21 -9 10 -28 38 -64 96 -77 122 -106 171 -116 196 -14 35 -13 30 -23 75 -5 19
-12 41 -16 50 -5 8 -23 53 -40 100 -39 102 -116 258 -195 395 -32 55 -65 112
-72 127 -8 15 -19 30 -24 34 -6 3 -14 16 -19 29 -12 31 -219 339 -231 343 -5
2 -9 8 -9 13 0 5 -6 17 -14 26 -8 10 -52 65 -98 123 -133 168 -185 225 -324
364 -153 153 -271 255 -389 337 -27 19 -52 36 -55 40 -3 3 -23 16 -45 29 -22
13 -42 26 -45 29 -6 7 -93 56 -140 79 -19 9 -36 20 -38 25 -2 4 -11 7 -21 7
-9 0 -22 5 -29 12 -7 7 -12 9 -12 5 0 -4 -17 1 -37 11 -33 17 -88 33 -158 48
-30 6 -221 15 -226 10z m5545 -7882 c3 -8 2 -12 -4 -9 -6 3 -10 10 -10 16 0
14 7 11 14 -7z m-4101 -109 c-3 -9 -8 -14 -10 -11 -3 3 -2 9 2 15 9 16 15 13
8 -4z"/>
</g>
</svg>
