<?xml version="1.0" encoding="UTF-8"?>
<svg id="Layer_1" data-name="Layer 1" xmlns="http://www.w3.org/2000/svg" version="1.1" viewBox="0 0 106.24 121.74">
  <defs>
    <style>
      .cls-1 {
        fill: #000;
      }

      .cls-1, .cls-2, .cls-3 {
        stroke-width: 0px;
      }

      .cls-2 {
        fill: #128450;
      }

      .cls-3 {
        fill: #fff;
      }
    </style>
  </defs>
  <rect class="cls-2" y="73.05" width="106.23" height="36.49"/>
  <g id="WuyCAc">
    <g>
      <path class="cls-1" d="M51.58,121.74h.24c.07,0,.13-.01.2-.02-1.35-.09-2.64-.38-3.86-.99-.36-.18-.79-.26-1.19-.31-.49-.07-.99-.06-1.49-.08-1.8-.07-3.6-.19-5.38-.54-2.13-.43-4.14-1.14-5.81-2.6-.1-.09-.27-.14-.41-.14-1.19,0-2.37.06-3.55-.01-1.76-.11-3.41-.65-4.85-1.68-3.03-2.15-4.43-5.18-4.6-8.83-.06-1.37.17-2.71.45-4.04.05-.22.04-.38-.12-.58-.5-.61-1.01-1.22-1.45-1.87-.95-1.43-1.57-3.04-2.23-4.62-.86-2.08-1.8-4.1-3.41-5.74-.21-.21-.28-.48-.26-.78.06-.82,0-1.63-.2-2.44-.3-1.2-.98-2.16-1.79-3.06-.44-.49-.9-.97-1.31-1.48-.42-.52-.38-1.08.05-1.58.13-.15.27-.28.4-.42,1.46-1.56,2.38-3.39,2.42-5.52.08-4.03.07-8.07.07-12.11,0-.43-.11-.91-.32-1.27-.48-.83-1.01-1.64-1.62-2.38-1.57-1.93-3.48-3.51-5.42-5.05-.85-.67-1.66-1.4-2.42-2.17-.79-.81-1.2-1.87-1.62-2.9-.92-2.28-1.62-4.62-1.94-7.07-.05-.46-.1-.94-.16-1.41v-1.89c.07-.5.14-1,.22-1.5.19-1.17.7-2.21,1.24-3.25.08-.15.11-.35.1-.52-.06-1.1-.16-2.2-.21-3.31-.09-1.93-.18-3.87-.21-5.81-.08-4.26-.13-8.52.51-12.75.24-1.6.55-3.19,1.1-4.72.66-1.84,1.64-3.46,3.2-4.68.91-.71,1.91-1.3,3.06-1.49,1.3-.21,2.61-.12,3.89.19,1.79.44,3.4,1.31,4.95,2.28,2.94,1.84,5.5,4.14,7.85,6.69,2.81,3.04,5.25,6.36,7.38,9.91,1.71,2.84,3.38,5.69,4.3,8.92.33,1.17,1.06,2.16,1.7,3.18.43.7.89,1.37,1.33,2.04,2.22-.63,4.41-1.1,6.65-1.35,2.8-.31,5.6-.46,8.41-.3,1.86.1,3.72.26,5.56.52,1.62.23,3.21.64,4.81.99.29.06.45,0,.6-.24.64-1.07,1.32-2.11,1.92-3.21.33-.61.54-1.28.79-1.93.44-1.17.78-2.4,1.32-3.52,2.58-5.33,5.78-10.26,9.78-14.63,2.24-2.45,4.65-4.73,7.4-6.61,1.67-1.14,3.43-2.12,5.4-2.67.64-.16,1.28-.26,1.91-.39h1.46c.05.02.09.04.14.05,2.03.25,3.62,1.28,4.91,2.81,1.18,1.4,1.9,3.03,2.37,4.78.91,3.42,1.22,6.92,1.33,10.44.06,1.93.04,3.87,0,5.81-.03,1.63-.15,3.26-.21,4.89-.05,1.24-.1,2.47-.09,3.71,0,.47.1.98.27,1.42.64,1.62.98,3.3,1.06,5.03.17,3.23-.34,6.35-1.5,9.38-.7,1.82-1.7,3.4-3.25,4.61-.63.49-1.25,1.01-1.86,1.53-1.45,1.23-2.84,2.52-3.96,4.06-1.26,1.72-2.02,3.59-1.98,5.78.05,3.51.03,7.02.03,10.53,0,.46.08.88.24,1.3.37.99.72,1.99,1.38,2.83.38.49.82.93,1.22,1.39.5.57.55,1.03.17,1.69-.08.14-.16.28-.27.4-.47.55-.93,1.1-1.42,1.63-.46.5-.7,1.07-.65,1.74.08,1.14.17,2.28.28,3.42.02.22-.01.35-.23.45-1.45.72-2.54,1.85-3.32,3.24-.49.87-.83,1.82-1.23,2.74s-.77,1.85-1.18,2.76c-.65,1.45-1.65,2.66-2.7,3.84-.08.1-.15.27-.13.39.11.76.32,1.51.38,2.27.11,1.36.13,2.73-.2,4.08-.59,2.35-1.71,4.37-3.64,5.89-2.59,2.03-5.57,2.55-8.76,2.12-.49-.06-.86.01-1.24.3-1.57,1.23-3.39,1.92-5.32,2.33-2.18.47-4.39.59-6.61.67-.79.03-1.59.03-2.33.37-1.18.53-2.38.96-3.69,1.04h.48M33.93,93.52l-.09-.06c.25-.51.49-1.01.74-1.52.83-1.71,1.78-3.34,2.95-4.85,1.51-1.93,3.21-3.68,4.98-5.37,1.27-1.22,2.72-2.18,4.35-2.85,3.42-1.4,6.95-1.64,10.56-.93,2.77.55,5.18,1.82,7.27,3.7,1.17,1.05,2.03,2.34,2.88,3.64,1.05,1.59,2.27,3.03,3.73,4.27,1.02.87,2.01,1.77,2.96,2.71.83.82,1.41,1.81,1.64,2.99.26,1.35-.74,1.75-1.63,1.56-.28-.06-.57-.16-.83-.28-1.13-.51-2.08-1.29-3-2.1-1.61-1.42-3.36-2.63-5.32-3.54-.48-.22-.82-.19-1.24.08-.45.28-.84.56-1.01,1.1-.64,1.95-1.81,3.52-3.61,4.52-1.44.8-2.95,1.47-4.44,2.19-.19.09-.27.18-.26.4.05.79.1,1.58.13,2.37.02.64.3,1.13.83,1.47.45.27.9.56,1.38.76,2.8,1.12,5.24,2.8,7.55,4.71,1.65,1.36,3.29,2.73,4.97,4.06,1.14.91,2.42,1.61,3.85,1.95,1.54.37,3.1.28,4.64-.09,3.33-.8,5.89-3.86,6.05-7.77.05-1.24-.13-2.44-.4-3.65-.19-.84-.26-1.71-.69-2.47-.54-.95-1.07-1.91-1.63-2.85-1.11-1.85-2.07-3.76-2.6-5.86-.51-2.04-.53-4.03.5-5.94.07-.12.1-.26.16-.41-.12-.04-.21-.08-.31-.11-1.46-.42-2.74-1.16-3.84-2.2-.72-.67-1.41-1.37-2.12-2.05-.32-.31-.64-.61-.96-.92-.02.02-.04.03-.06.05.08.14.16.29.25.43.43.7.88,1.39,1.29,2.1,1.3,2.23,2.41,4.54,3.15,7.02.59,1.98,1.19,3.95,1.78,5.93.6,1.99,1.63,3.68,3.39,4.86.28.19.53.41.79.62-.01.02-.03.04-.04.07-.11-.04-.23-.07-.33-.13-.62-.36-1.24-.73-1.86-1.09-1.26-.72-2.1-1.8-2.6-3.14-.61-1.63-1.21-3.26-1.77-4.91-.93-2.72-1.86-5.44-3.29-7.96-1.95-3.43-4.6-6.16-8.06-8.07-2.92-1.6-6.08-2.38-9.38-2.58-3.28-.2-6.5.14-9.63,1.15-3.51,1.13-6.47,3.09-8.88,5.88-1.68,1.95-2.92,4.16-3.91,6.51-.95,2.25-1.63,4.6-2.31,6.94-.81,2.79-1.88,5.46-3.5,7.88-.28.41-.58.81-.87,1.22-.02-.01-.05-.03-.07-.04.03-.07.06-.14.09-.22.61-1.56,1.3-3.1,1.82-4.7.64-1.94,1.14-3.92,1.7-5.89.06-.22.07-.45.1-.68-.03,0-.07-.02-.1-.03-.13.25-.27.49-.38.75-.9,2.06-1.86,4.1-3.11,5.97-.62.93-1.29,1.82-1.93,2.73-.15.21-.32.45-.36.69-.28,1.48-.62,2.95-.65,4.47-.07,2.95,1,5.36,3.36,7.15,1.11.84,2.37,1.41,3.8,1.45.78.02,1.56,0,2.34.03,1.03.04,1.98-.21,2.91-.64,1.35-.62,2.54-1.48,3.69-2.39,1.99-1.57,3.96-3.16,5.96-4.72,1.77-1.38,3.73-2.46,5.83-3.25.63-.24,1.15-.58,1.61-1.05.07-.08.14-.21.13-.31-.04-.81-.1-1.62-.14-2.43-.03-.7-.28-1.23-.99-1.48-.17-.06-.33-.16-.49-.24-1.27-.6-2.57-1.15-3.82-1.8-1.23-.64-2.27-1.53-3.05-2.69-.35-.52-.52-1.09-.4-1.7.09-.44-.09-.66-.42-.91-.57-.43-1.12-.89-1.65-1.38-.75-.71-1.09-1.61-1.13-2.64-.02-.64-.09-1.28-.13-1.92-2.9,2.3-4.89,5.33-6.78,8.43h-.04ZM49.37,34.54c0,.1,0,.21-.05.31-.1.32-.19.64-.34.94-.97,2.03-1.94,4.05-2.94,6.06-.82,1.64-1.92,3.1-3.18,4.43-.56.6-1.11,1.21-1.62,1.86-1.02,1.29-1.34,2.77-1.02,4.38.24,1.22.71,2.36,1.22,3.49,1.11,2.44,2.36,4.82,3.26,7.35.24.67.51,1.37.57,2.07.1,1.19.06,2.39.06,3.59,0,.22-.04.45-.09.66-.37,1.38-.97,2.66-1.79,3.83-.12.17-.21.34-.32.52.02.03.04.06.05.08,5.76-2.19,11.64-2.34,17.64-.99.02-.21.04-.39.04-.57.04-1.67-.16-3.32-.38-4.97-.25-1.88-.15-3.74.35-5.57.48-1.75.98-3.51,1.45-5.26.45-1.69.55-3.4.09-5.11-.39-1.43-1.22-2.61-2.18-3.72-1.53-1.75-3.09-3.47-4.57-5.25-1.52-1.82-2.51-3.85-2.25-6.32.06-.57.15-1.12.49-1.6.13-.18.24-.26.46-.25,2.46.16,4.92.31,7.37.48.42.03.85.08,1.27.13v-.1c-6.38-1.16-12.76-1.36-19.14.04v.09c1.83-.2,3.66-.4,5.52-.6h.03ZM22.58,35.44s.03-.05.04-.08c.15,0,.3,0,.45.04.49.1.97.19,1.45.31.22.05.3,0,.35-.22.32-1.38.69-2.75.98-4.13.21-1.01.37-2.03.46-3.06.1-1.15-.31-2.21-.72-3.27-1.16-3.01-2.69-5.83-4.39-8.55-1.22-1.95-2.56-3.8-4.27-5.36-.97-.88-2-1.67-3.26-2.14-.91-.34-1.72-.19-2.43.44-.31.27-.62.58-.81.94-.45.85-.89,1.71-1.23,2.6-.72,1.85-.95,3.8-1.16,5.76-.28,2.61-.55,5.22-.82,7.83-.22,2.17-.11,4.32.42,6.43.39,1.57.85,3.12,1.27,4.68.04.16.07.34.1.5-.05.03-.09.07-.14.1-.11-.16-.21-.33-.34-.46-.43-.45-.86-.89-1.3-1.32-.12-.12-.3-.18-.45-.26-.05.17-.13.34-.14.51-.06,1.1.07,2.18.33,3.25.49,2.05,1.37,3.93,2.37,5.77.45.83.9,1.66,1.57,2.34.5.5.98,1.03,1.5,1.52.55.51,1.12.99,1.69,1.48.17.15.32.15.49-.04.56-.62,1.14-1.23,1.72-1.85.07-.07.14-.15.27-.29-.25.04-.4.08-.54.08-.15,0-.31-.03-.47-.04.03-.16.02-.35.11-.48.22-.33.46-.65.73-.93,1.31-1.37,2.8-2.53,4.3-3.66.69-.52.72-.53.39-1.34-.32-.77-.73-1.51-1.1-2.26-.1-.2-.21-.39-.35-.66,1.73.12,3.19.82,4.75,1.41.17-.79.34-1.52.49-2.25.02-.08-.04-.2-.09-.27-.53-.75-1.06-1.5-1.6-2.25-.2-.28-.41-.54-.62-.82ZM97.59,38.22s-.05-.03-.08-.05c.02-.11.03-.22.05-.33.32-1.33.65-2.65.97-3.98.41-1.69.83-3.38.74-5.12-.09-1.76-.25-3.52-.43-5.27-.21-2.12-.47-4.23-.71-6.34-.19-1.65-.56-3.25-1.21-4.78-.44-1.05-.95-2.07-1.81-2.85-.67-.61-1.43-.87-2.35-.57-1.19.38-2.16,1.11-3.06,1.93-1.75,1.6-3.17,3.47-4.43,5.46-1.98,3.1-3.59,6.39-4.82,9.86-.36,1.01-.5,2.03-.28,3.08.27,1.3.57,2.59.89,3.87.21.8.49,1.58.74,2.38.08.25.2.35.49.25.4-.13.82-.22,1.24-.3.27-.05.55-.07.82-.1.02.03.03.06.05.08-.13.16-.26.32-.4.48-.76.85-1.46,1.74-1.97,2.76-.13.25-.14.59-.12.88.03.35.15.69.24,1.03.12.43.13.44.55.28.71-.27,1.4-.58,2.12-.83.74-.26,1.51-.43,2.33-.25-.04.06-.06.1-.09.14-.77.85-1.14,1.9-1.51,2.95-.17.48-.15.51.27.79,1.28.86,2.49,1.82,3.58,2.91.63.63,1.19,1.32,1.77,2,.07.08.1.25.06.33-.04.07-.21.09-.32.08-.31-.02-.61-.07-.9-.11.64.64,1.34,1.22,1.89,1.92.55.69.96,1.5,1.45,2.29.33-.37.67-.77,1.08-1.24-.2-.03-.3-.03-.4-.06-.38-.1-.75-.21-1.13-.33-.07-.02-.13-.13-.14-.21,0-.05.08-.12.15-.17.19-.13.41-.23.57-.38,1.06-1.01,2.06-2.09,2.83-3.33,1.78-2.85,3.13-5.88,3.51-9.26.06-.54.06-1.09.03-1.64-.02-.33-.16-.37-.41-.14-.36.34-.71.7-1.06,1.05-.27.27-.53.55-.79.83h0ZM38.25,116.41c1.59.83,3.26,1.26,5.01,1.37,1.39.09,2.78.1,4.16.13.56.01,1.08.12,1.57.4.36.2.74.37,1.13.52,1.17.44,2.4.45,3.63.4,1.08-.04,2.14-.24,3.09-.78.72-.41,1.48-.56,2.3-.55,1.63.02,3.27.02,4.89-.24,1.5-.25,2.98-.62,4.37-1.24,1.02-.45.81-.54.21-1.11-1.6-1.51-3.44-2.63-5.59-3.19-1.94-.5-3.88-.98-5.82-1.49-1.74-.45-3.45-1-5.27-1.11-2.73-.17-5.22.42-7.51,1.91-2.21,1.44-4.06,3.32-6.15,4.96l-.02.02ZM79.6,78.77c1.65.1,3.24-.62,4.43-2.2,1.46-1.94,2-4.18,2.08-6.55,0-.21-.14-.48-.31-.63-1.48-1.29-3.2-2.01-5.17-2.06-1.4-.03-2.66.49-3.8,1.28-1.33.92-2.23,2.2-2.94,3.62-.43.85-.47,1.71-.12,2.59.42,1.09.98,2.09,1.91,2.84,1.04.84,2.27,1.11,3.91,1.1h0ZM27.65,78.72v.07c.69-.09,1.41-.08,2.06-.28,1.09-.34,1.95-1.06,2.6-2,.6-.87.94-1.86,1.27-2.84.03-.1,0-.24-.05-.34-.55-1.34-1.31-2.57-2.32-3.61-1.62-1.66-3.57-2.65-5.96-2.31-1.5.21-2.81.91-4,1.85-.4.32-.51.65-.47,1.16.17,1.86.59,3.63,1.49,5.28.67,1.22,1.56,2.22,2.89,2.74.79.31,1.63.29,2.46.28h.03ZM15.94,4l-.04.07c.08.06.15.13.24.19.63.44,1.28.86,1.89,1.33,2.33,1.83,4.42,3.91,6.33,6.16,2.03,2.39,3.83,4.96,5.42,7.66,1.37,2.33,2.74,4.67,3.95,7.08.9,1.79,1.54,3.72,2.3,5.58.36.89.73,1.78,1.1,2.66.03.02.06.04.1.07.12-.15.22-.32.35-.46.23-.24.29-.49.13-.8-.15-.29-.29-.58-.43-.87-.95-1.94-2.03-3.8-2.83-5.81-.55-1.38-1.26-2.7-1.96-4.01-2.9-5.39-6.44-10.31-10.93-14.51-1.59-1.48-3.22-2.91-5.08-4.05-.18-.11-.36-.21-.54-.31v.02ZM69.48,34.73c.05-.13.08-.22.11-.31.72-1.95,1.36-3.92,2.16-5.84,2.45-5.88,5.71-11.29,9.68-16.27,1.78-2.23,3.76-4.29,6-6.07.94-.75,1.95-1.42,2.92-2.13.07-.05.14-.12.21-.18-.18.03-.31.09-.44.18-.91.63-1.84,1.23-2.72,1.9-3.23,2.46-5.92,5.44-8.34,8.68-2.42,3.24-4.49,6.69-6.31,10.3-.39.78-.69,1.61-1.01,2.43-.17.44-.24.92-.45,1.34-.72,1.44-1.49,2.86-2.23,4.28-.43.82-.41.94.27,1.56.04.03.08.07.15.13ZM17.69,89.16c-.03-.07-.05-.14-.1-.19-.36-.46-.5-1.01-.6-1.57-.32-1.79-1.09-3.36-2.31-4.71-.28-.31-.58-.6-.85-.91-.27-.32-.26-.48.11-.66.34-.17.72-.25,1.08-.39.11-.04.31-.15.3-.2-.09-.44.24-.61.48-.85.08-.08.15-.26.11-.34-.26-.5-.09-.97.06-1.44.3-.93.53-1.88.53-2.86,0-1.06-.02-2.13-.08-3.19-.17-2.67-.11-5.33.05-8,.04-.63,0-1.26,0-1.9-.07.32-.1.65-.12.98-.12,1.63-.27,3.25-.33,4.88-.08,2.2-.09,4.4-.12,6.6-.02,1.83-.59,3.5-1.46,5.08-.31.56-.72,1.08-1.06,1.63-.23.37-.19.51.15.77.1.08.21.16.3.26.88.92,1.55,1.97,2.01,3.16.33.83.46,1.7.54,2.58.06.64.67,1.24,1.32,1.27h0ZM90.66,62h-.06c.06.83.12,1.66.17,2.48.19,2.96.19,5.92-.03,8.88-.07.94-.02,1.91.09,2.85.09.75.37,1.47.55,2.2.06.24.12.52.04.73-.12.33-.03.5.2.7.13.12.28.31.28.46,0,.28.12.36.34.4.6.09,1.05.43,1.49.85-.09.11-.17.21-.26.31-.66.73-1.24,1.52-1.75,2.36-.61,1.01-.67,2.09-.46,3.2.1.52.06.96-.35,1.33v.06c.27-.07.54-.14.82-.21.39-.09.42-.14.37-.54-.07-.64-.15-1.29-.19-1.93-.09-1.66.4-3.07,1.84-4.06.54-.37.54-.5.11-1-1.15-1.34-1.81-2.92-2.24-4.6-.35-1.37-.32-2.78-.33-4.17-.03-2.75,0-5.5-.34-8.23-.09-.69-.19-1.38-.28-2.07h0ZM63.01,83.16l.04-.04s0-.06-.03-.08c-.05-.08-.1-.15-.15-.23-.62-.86-1.45-1.47-2.37-1.97-1.72-.94-3.56-1.44-5.52-1.63-2.33-.22-4.59.07-6.77.89-1.46.55-2.73,1.41-3.73,2.63-.07.09-.12.2-.19.3.15-.04.24-.11.33-.2.77-.73,1.66-1.3,2.6-1.77,1.43-.72,2.95-1.08,4.55-1.17,1.71-.09,3.42-.16,5.12.19,1.89.39,3.65,1.06,5.18,2.26.32.25.61.53.91.79l.03.03ZM31.38,79.18c1.5-.42,2.9-1.01,4.19-1.92-.4-.73-.78-1.42-1.16-2.11-.04,0-.07,0-.11.01-.56,1.64-1.47,3.02-2.91,4.01h-.01ZM75.53,79.19c-1.42-1.06-2.27-2.51-2.86-4.23-.41.83-.78,1.55-1.15,2.31,1.25.88,2.58,1.49,4.02,1.92h0ZM88.32,74.91s-.05-.03-.07-.05c-.09.19-.17.39-.26.57-.39.8-.75,1.62-1.18,2.39-1.11,1.99-2.82,3.23-5.06,3.55-1.36.19-2.77.08-4.16.08-.5,0-1.01-.08-1.51-.13.22.14.45.24.69.29,1.4.28,2.81.31,4.24.25,1.42-.06,2.7-.52,3.83-1.36,1.89-1.41,2.74-3.48,3.48-5.6h0ZM19.14,75.73s-.03.01-.04.02c.02.06.03.13.06.19.31.67.6,1.35.95,2,1.04,1.95,2.6,3.3,4.79,3.76,2.2.46,4.39.27,6.54-.42.06-.02.11-.06.25-.14-.17,0-.25,0-.33.02-.59.08-1.18.2-1.77.25-1.43.13-2.88.21-4.31-.03-.91-.15-1.82-.37-2.57-.93-1.07-.8-1.98-1.76-2.62-2.96-.31-.59-.63-1.17-.94-1.75h-.01ZM85.96,66.76c-.04-.08-.05-.11-.06-.12-.06-.04-.12-.08-.18-.12-1.53-.78-3.09-1.41-4.84-1.44-1.84-.04-3.54.36-5,1.54-1.3,1.05-2.28,2.38-3.16,3.79-.04.07-.07.16-.1.24.16-.1.26-.23.37-.36.65-.81,1.25-1.69,1.98-2.42,1.95-1.96,4.34-2.71,7.07-2.39,1.16.13,2.24.52,3.29,1.01.19.09.38.16.63.27ZM4.13,33.16h-.09c-.02.12-.04.24-.07.35-.26.77-.51,1.54-.78,2.3-.75,2.06-.94,4.16-.44,6.3.37,1.59.93,3.1,1.82,4.48.11.17.26.37-.09.47.27.57,1.57,1.97,1.97,2.09-.18-.25-.36-.44-.48-.67-.66-1.19-1.34-2.38-1.96-3.6-.48-.94-.97-1.89-1.09-2.95-.11-.95-.1-1.92-.11-2.88,0-1.04.17-2.06.52-3.04.24-.68.49-1.35.71-2.03.08-.25.07-.54.09-.81h0ZM34.1,70.5s.04-.03.05-.05c-.05-.09-.09-.17-.14-.26-.7-1.15-1.55-2.18-2.55-3.08-1.48-1.33-3.16-2.08-5.2-2.06-1.66.02-3.16.53-4.61,1.26-.06.03-.11.08-.17.12.16,0,.3-.04.44-.1.32-.13.63-.28.96-.38,1.64-.52,3.3-.79,5.02-.36,1.97.5,3.52,1.66,4.82,3.18.48.56.93,1.15,1.39,1.73h0ZM55.9,85.44s-.08-.03-.11-.05c-.11.2-.26.39-.33.61-.42,1.19-.49,2.42-.28,3.66.12.73.42,1.39,1.08,1.79.87.54,1.85.74,2.86.82.12,0,.24-.08.36-.13v-.12c-.15-.04-.29-.1-.44-.11-.87-.02-1.62-.33-2.3-.85-.63-.48-1.06-1.08-1.15-1.89-.11-1.07-.07-2.12.19-3.17.05-.19.08-.38.12-.57h0ZM100.98,49.85c-.73.57-1.4,1.06-2.03,1.59-.63.54-1.25,1.1-1.84,1.68-.59.57-1.18,1.14-1.62,1.84,1.92-1.97,4.06-3.68,6.25-5.38h-1.79c.75-.95,1.46-1.85,2.19-2.78-.17-.05-.26-.07-.37-.1.14-.35.27-.68.4-1.01-.04-.02-.07-.04-.11-.05-.73,1.51-1.56,2.96-2.75,4.21h1.68-.01ZM50.88,85.25l-.08.04c.06.14.12.29.17.43.12.41.31.82.34,1.24.05.75.02,1.5,0,2.25,0,.73-.34,1.32-.88,1.8-.62.55-1.37.8-2.16.96-.21.04-.41.12-.62.18,0,.03,0,.06,0,.09.09,0,.19.03.28.03.76-.05,1.51-.19,2.19-.55.79-.42,1.43-1,1.61-1.91.21-1.06.19-2.14-.08-3.19-.13-.51-.4-.98-.78-1.36h0ZM101.89,12.65c0-.18.03-.37,0-.54-.33-1.4-.62-2.81-1.03-4.18-.46-1.51-1.27-2.82-2.54-3.81-.14-.11-.29-.21-.44-.32l-.09.09c1.16,1.19,2.1,2.52,2.73,4.05.62,1.52.96,3.12,1.38,4.7h-.01ZM5.15,49.76c2.07,1.5,3.98,3.15,5.88,4.81-1.52-1.71-3.26-3.17-5.07-4.56l.06-.11h1.04c-.15-.21-.27-.38-.41-.59-.33.54-1,.12-1.49.45h-.01ZM4.69,10.61c.46-1.12.92-2.35,1.45-3.54.54-1.21,1.41-2.21,2.26-3.21-1.47.51-3.72,4.71-3.71,6.75ZM24.39,61.88s.03.07.05.1c.18-.09.35-.18.53-.27,1.07-.52,2.14-1.04,3.21-1.57,1.28-.63,2.64-.72,4.03-.56.34.04.68.09,1.02.13-.1-.1-.22-.15-.34-.19-1.03-.34-2.08-.37-3.14-.15-1.41.29-2.66.94-3.9,1.63-.49.27-.97.58-1.45.88h-.01ZM74,59.63c.07,0,.1,0,.13,0,1.62-.27,3.2-.11,4.71.53,1.13.48,2.21,1.09,3.32,1.64.13.06.26.12.39.17-.15-.19-.32-.34-.51-.44-1.03-.54-2.06-1.09-3.1-1.59-.87-.42-1.81-.65-2.78-.69-.72-.03-1.43.04-2.14.37h-.02ZM90.2,90.37s-.03-.05-.04-.07c-.11.08-.24.15-.34.25-.5.5-.92,1.05-1.18,1.71-.52,1.33-1.03,2.66-1.54,3.99-.05.12-.08.25-.11.37.11-.08.18-.18.23-.28.32-.74.62-1.5.94-2.24.57-1.3,1.1-2.63,2.04-3.73ZM13.56,53.23c.25-.57.47-1.1.7-1.63-.03-.03-.06-.06-.09-.09-.56.15-1.11.29-1.71.45.37.43.72.83,1.1,1.26h0ZM102.36,30.23h-.09c-.02.06-.05.11-.05.17-.13,1.12-.21,2.24.08,3.35.39,1.43.79,2.86,1.16,4.21v-.15c-.08-.99-.35-1.93-.67-2.86-.24-.69-.43-1.39-.43-2.13v-2.58h0ZM3.87,29.56s.05.02.08.03v-1.64h-.08s0,1.61,0,1.61ZM18.08,91.72s.07-.06.11-.08c-.25-.38-.51-.77-.76-1.15-.04.02-.07.05-.11.07.25.39.51.77.76,1.16ZM63.47,88.46s.09.08.13.12l.52-.55s-.04-.04-.07-.06c-.19.16-.39.33-.58.49ZM102.61,21.34h-.03v1.42h.03v-1.42ZM43.34,87.85s-.08.06-.11.09c.16.19.31.37.47.56l.07-.06c-.14-.2-.29-.4-.43-.59Z"/>
      <path class="cls-3" d="M33.93,93.52c1.89-3.1,3.88-6.13,6.78-8.43.04.64.11,1.28.13,1.92.04,1.03.38,1.93,1.13,2.64.52.49,1.08.95,1.65,1.38.32.24.5.46.42.91-.12.61.05,1.19.4,1.7.78,1.16,1.82,2.06,3.05,2.69,1.25.65,2.54,1.2,3.82,1.8.17.08.32.18.49.24.71.24.95.78.99,1.48.04.81.1,1.62.14,2.43,0,.1-.06.23-.13.31-.46.47-.98.81-1.61,1.05-2.1.79-4.05,1.87-5.83,3.25-2,1.56-3.97,3.15-5.96,4.72-1.16.91-2.34,1.77-3.69,2.39-.93.43-1.88.67-2.91.64-.78-.03-1.56,0-2.34-.03-1.43-.05-2.69-.61-3.8-1.45-2.36-1.79-3.44-4.2-3.36-7.15.04-1.52.37-2.99.65-4.47.05-.25.22-.48.36-.69.64-.91,1.31-1.8,1.93-2.73,1.25-1.88,2.21-3.91,3.11-5.97.11-.26.25-.5.38-.75.03,0,.07.02.1.03-.03.23-.04.46-.1.68-.55,1.97-1.06,3.95-1.7,5.89-.52,1.59-1.21,3.13-1.82,4.7-.03.07-.06.15-.09.22.02.01.05.03.07.04.29-.41.59-.8.87-1.22,1.62-2.42,2.69-5.09,3.5-7.88.68-2.34,1.36-4.69,2.31-6.94.99-2.36,2.24-4.56,3.91-6.51,2.41-2.8,5.37-4.75,8.88-5.88,3.13-1.01,6.36-1.35,9.63-1.15,3.3.2,6.47.98,9.38,2.58,3.47,1.9,6.11,4.63,8.06,8.07,1.43,2.52,2.37,5.23,3.29,7.96.56,1.65,1.16,3.28,1.77,4.91.5,1.34,1.34,2.42,2.6,3.14.62.36,1.24.73,1.86,1.09.1.06.22.09.33.13.01-.02.03-.04.04-.07-.26-.21-.51-.44-.79-.62-1.76-1.18-2.79-2.87-3.39-4.86-.59-1.98-1.19-3.95-1.78-5.93-.74-2.48-1.85-4.79-3.15-7.02-.41-.71-.86-1.4-1.29-2.1-.09-.14-.17-.29-.25-.43.02-.02.04-.03.06-.05.32.31.64.61.96.92.71.68,1.4,1.38,2.12,2.05,1.11,1.04,2.39,1.77,3.84,2.2.09.03.19.07.31.11-.06.15-.09.29-.16.41-1.03,1.91-1.01,3.9-.5,5.94.53,2.1,1.49,4.01,2.6,5.86.56.94,1.09,1.89,1.63,2.85.43.77.51,1.64.69,2.47.27,1.2.45,2.41.4,3.65-.16,3.91-2.72,6.97-6.05,7.77-1.54.37-3.1.46-4.64.09-1.43-.34-2.71-1.04-3.85-1.95-1.67-1.33-3.32-2.7-4.97-4.06-2.31-1.91-4.75-3.59-7.55-4.71-.48-.19-.94-.48-1.38-.76-.54-.33-.81-.82-.83-1.47-.03-.79-.07-1.58-.13-2.37-.02-.22.07-.31.26-.4,1.49-.71,3-1.39,4.44-2.19,1.8-1,2.98-2.57,3.61-4.52.18-.55.57-.82,1.01-1.1.42-.26.76-.3,1.24-.08,1.96.91,3.71,2.12,5.32,3.54.92.81,1.87,1.59,3,2.1.27.12.55.22.83.28.89.2,1.89-.21,1.63-1.56-.23-1.18-.8-2.17-1.64-2.99-.95-.94-1.95-1.84-2.96-2.71-1.46-1.24-2.67-2.68-3.73-4.27-.85-1.29-1.72-2.58-2.88-3.64-2.09-1.89-4.5-3.15-7.27-3.7-3.61-.72-7.14-.47-10.56.93-1.63.67-3.07,1.62-4.35,2.85-1.76,1.69-3.47,3.44-4.98,5.37-1.17,1.5-2.11,3.14-2.95,4.85-.25.51-.49,1.01-.74,1.52l.09.06h.04ZM71.38,99.22c-.12.11-.26.22-.36.35-.14.17-.15.38.01.53.58.55,1.16,1.09,1.76,1.62.19.17.4.08.54-.13.16-.24.06-.47-.1-.64-.5-.54-1.03-1.05-1.56-1.57-.06-.06-.16-.08-.3-.15h0ZM37.48,99.35s-.13.02-.21.07c-.72.39-1.24.99-1.67,1.67-.03.05-.06.12-.05.17.06.18.1.39.21.53.04.05.32-.05.44-.15.47-.39.93-.81,1.38-1.23.14-.13.26-.29.34-.46.13-.28-.09-.6-.44-.6ZM77.97,107.34s0-.06-.02-.09c-.36-.7-.89-1.22-1.59-1.55-.2-.09-.42-.01-.56.19-.13.19-.07.38.06.53.28.32.56.63.88.92.2.18.43.33.68.44.31.14.56-.07.56-.43h-.01ZM33.12,106.16c0-.4-.39-.62-.72-.44-.63.34-1.11.85-1.44,1.48-.19.35.02.63.42.6.14-.01.31-.07.41-.17.41-.39.81-.79,1.2-1.2.08-.08.11-.21.13-.27ZM36.04,106.41s.13-.02.18-.07c.52-.46,1.04-.93,1.55-1.4.06-.05.08-.2.05-.27-.16-.43-.54-.52-.89-.24-.03.02-.07.05-.1.07-.4.41-.83.8-1.19,1.25-.23.28,0,.66.4.67h0ZM71.59,104.33c-.42.01-.57.31-.38.65.34.63.89,1.06,1.48,1.44.16.1.32.06.44-.12.18-.27.18-.55-.08-.83-.32-.34-.67-.64-1.02-.94-.14-.12-.34-.17-.43-.21h-.01ZM76.94,101.75s-.03-.14-.08-.2c-.26-.29-.52-.59-.8-.86-.19-.18-.41-.2-.63,0-.21.19-.29.44-.12.65.26.32.56.63.9.87.29.21.73-.06.74-.45h0ZM32.39,102.28s.13-.01.2-.05c.45-.21.76-.58.98-1.01.05-.09-.04-.33-.14-.41-.14-.12-.39-.26-.51-.21-.45.21-.81.55-.98,1.03-.11.3.13.64.45.64h0Z"/>
      <path class="cls-3" d="M49.37,34.54c-1.86.2-3.69.4-5.51.6v-.09c6.37-1.4,12.75-1.2,19.13-.04v.1c-.42-.04-.84-.1-1.27-.13-2.46-.16-4.92-.31-7.37-.48-.22,0-.34.07-.46.25-.34.49-.43,1.03-.49,1.6-.26,2.47.73,4.5,2.25,6.32,1.49,1.78,3.04,3.51,4.57,5.25.96,1.1,1.79,2.29,2.18,3.72.47,1.7.37,3.41-.09,5.11-.47,1.76-.97,3.51-1.45,5.26-.51,1.83-.6,3.69-.35,5.57.22,1.65.42,3.3.38,4.97,0,.18-.02.35-.04.57-6-1.36-11.88-1.2-17.64.99-.02-.03-.04-.06-.05-.08.11-.17.2-.35.32-.52.82-1.17,1.41-2.45,1.79-3.83.06-.21.1-.44.09-.66,0-1.2.04-2.4-.06-3.59-.06-.7-.33-1.39-.57-2.07-.9-2.53-2.16-4.91-3.26-7.35-.51-1.13-.98-2.27-1.22-3.49-.31-1.61,0-3.09,1.02-4.38.51-.64,1.06-1.26,1.62-1.86,1.26-1.34,2.36-2.79,3.18-4.43,1-2.01,1.97-4.04,2.94-6.06.14-.3.23-.63.34-.94.03-.1.03-.21.05-.31h-.03Z"/>
      <path class="cls-3" d="M22.58,35.44c.21.27.42.54.62.82.54.75,1.07,1.5,1.6,2.25.05.08.11.19.09.27-.15.73-.31,1.46-.49,2.25-1.56-.6-3.02-1.29-4.75-1.41.14.27.25.46.35.66.37.75.77,1.49,1.1,2.26.34.81.3.82-.39,1.34-1.51,1.14-3,2.29-4.3,3.66-.27.28-.51.6-.73.93-.08.13-.07.32-.11.48.16.02.31.05.47.04.15,0,.3-.04.54-.08-.13.14-.2.21-.27.29-.57.62-1.15,1.22-1.72,1.85-.17.19-.33.19-.49.04-.57-.49-1.15-.97-1.69-1.48-.52-.49-1-1.01-1.5-1.52-.68-.68-1.12-1.51-1.57-2.34-1.01-1.83-1.88-3.72-2.37-5.77-.26-1.07-.39-2.15-.33-3.25,0-.17.09-.34.14-.51.15.09.33.14.45.26.44.43.87.87,1.3,1.32.13.14.23.31.34.46.05-.03.09-.07.14-.1-.03-.17-.06-.34-.1-.5-.42-1.56-.88-3.12-1.27-4.68-.53-2.11-.64-4.26-.42-6.43.27-2.61.53-5.22.82-7.83.21-1.95.44-3.91,1.16-5.76.35-.89.78-1.75,1.23-2.6.19-.36.5-.67.81-.94.71-.62,1.52-.77,2.43-.44,1.25.46,2.28,1.25,3.26,2.14,1.71,1.56,3.05,3.41,4.27,5.36,1.71,2.73,3.23,5.54,4.39,8.55.4,1.05.82,2.12.72,3.27-.09,1.02-.25,2.05-.46,3.06-.29,1.39-.66,2.75-.98,4.13-.05.23-.13.27-.35.22-.48-.12-.97-.21-1.45-.31-.15-.03-.3-.03-.45-.04-.01.03-.03.05-.04.08ZM24.88,30.24s.09.01.14.02c.06-.13.15-.25.17-.39.09-.66.2-1.32.23-1.99.04-.83,0-1.66-.26-2.47-.68-2.06-1.89-3.77-3.37-5.32-.96-.99-2.03-1.83-3.28-2.42-.14-.07-.3-.11-.45-.17-.02.03-.04.06-.05.09.06.07.12.15.19.2.53.43,1.08.82,1.58,1.27,2.81,2.56,4.47,5.72,4.84,9.52.05.55.18,1.09.27,1.64v.02Z"/>
      <path class="cls-3" d="M97.59,38.22c.26-.28.52-.56.79-.83.35-.35.69-.71,1.06-1.05.24-.23.39-.19.41.14.03.54.03,1.1-.03,1.64-.39,3.38-1.73,6.42-3.51,9.26-.77,1.24-1.78,2.32-2.83,3.33-.16.16-.38.25-.57.38-.06.04-.15.12-.15.17,0,.07.07.18.14.21.37.12.75.23,1.13.33.09.03.19.03.4.06-.4.46-.75.86-1.08,1.24-.49-.79-.9-1.6-1.45-2.29-.55-.7-1.25-1.28-1.89-1.92.29.04.59.09.9.11.11,0,.28,0,.32-.08.04-.08,0-.25-.06-.33-.58-.68-1.14-1.37-1.77-2-1.09-1.09-2.3-2.05-3.58-2.91-.42-.28-.44-.32-.27-.79.37-1.05.74-2.1,1.51-2.95.03-.04.05-.08.09-.14-.82-.18-1.59,0-2.33.25-.72.25-1.41.56-2.12.83-.42.16-.43.15-.55-.28-.09-.34-.21-.68-.24-1.03-.02-.29,0-.63.12-.88.51-1.02,1.21-1.92,1.97-2.76.14-.15.27-.32.4-.48-.02-.03-.03-.06-.05-.08-.27.03-.55.05-.82.1-.42.08-.84.16-1.24.3-.29.1-.41,0-.49-.25-.25-.79-.53-1.57-.74-2.38-.33-1.28-.63-2.57-.89-3.87-.22-1.05-.07-2.07.28-3.08,1.23-3.47,2.84-6.76,4.82-9.86,1.27-1.99,2.69-3.86,4.43-5.46.9-.82,1.87-1.55,3.06-1.93.92-.3,1.68-.03,2.35.57.86.78,1.37,1.8,1.81,2.85.65,1.53,1.02,3.14,1.21,4.78.24,2.11.5,4.23.71,6.34.18,1.75.35,3.51.43,5.27.08,1.75-.34,3.44-.74,5.12-.32,1.33-.65,2.65-.97,3.98-.03.11-.04.22-.05.33.03.02.05.03.08.05h0ZM81.38,30.43h.09c.03-.1.08-.2.1-.3.19-.98.35-1.97.55-2.95.52-2.48,1.64-4.62,3.67-6.19.94-.73,1.98-1.33,2.98-1.99.09-.06.18-.12.27-.19-.15-.03-.27,0-.38.03-.97.31-1.87.76-2.72,1.33-1.53,1.02-2.91,2.22-3.85,3.82-.71,1.21-1.24,2.49-1.12,3.94.06.69.16,1.37.26,2.05.02.16.1.31.16.46h-.01Z"/>
      <path class="cls-3" d="M38.25,116.41c2.09-1.64,3.94-3.52,6.15-4.96,2.29-1.5,4.78-2.09,7.51-1.91,1.82.12,3.53.66,5.27,1.11,1.94.5,3.88.98,5.82,1.49,2.15.56,3.99,1.67,5.59,3.19.6.57.81.65-.21,1.11-1.39.62-2.87,1-4.37,1.24-1.62.26-3.25.26-4.89.24-.82,0-1.58.14-2.3.55-.95.54-2.01.74-3.09.78-1.23.04-2.46.03-3.63-.4-.39-.14-.77-.31-1.13-.52-.49-.28-1.01-.39-1.57-.4-1.39-.03-2.78-.04-4.16-.13-1.74-.11-3.41-.54-5.01-1.37l.02-.02Z"/>
      <path class="cls-3" d="M79.6,78.77c-1.63,0-2.86-.26-3.91-1.1-.93-.75-1.48-1.75-1.91-2.84-.34-.88-.3-1.74.12-2.59.71-1.42,1.61-2.7,2.94-3.62,1.14-.79,2.39-1.31,3.8-1.28,1.96.05,3.69.76,5.17,2.06.16.14.31.42.31.63-.09,2.37-.62,4.61-2.08,6.55-1.19,1.58-2.78,2.3-4.43,2.2h0ZM83.88,72.84c.15-1.08-.34-2.03-1.09-2.86-.29-.32-.63-.6-.99-.85-1.84-1.28-4.41-.97-5.93.67-1.11,1.2-1.38,2.61-1.13,4.18.43,2.65,2.93,4.31,5.54,3.71,1.91-.44,3.77-2.39,3.58-4.85h.02Z"/>
      <path class="cls-3" d="M27.65,78.72c-.83,0-1.67.03-2.46-.28-1.33-.52-2.22-1.52-2.89-2.74-.9-1.64-1.33-3.42-1.49-5.28-.05-.51.07-.84.47-1.16,1.19-.95,2.5-1.64,4-1.85,2.39-.34,4.34.65,5.96,2.31,1.01,1.04,1.76,2.27,2.32,3.61.04.1.08.24.05.34-.34.99-.67,1.97-1.27,2.84-.66.95-1.52,1.66-2.6,2-.65.21-1.37.2-2.06.28v-.07h-.03ZM27.8,77.75c2.16.18,4.4-1.9,4.49-4.53.1-2.98-2.51-4.85-4.95-4.87-2.48-.02-4.31,2.4-4.34,4.12-.06,3.19,1.9,5.33,4.8,5.28Z"/>
      <path class="cls-3" d="M15.94,4c.18.1.36.2.54.31,1.86,1.14,3.49,2.57,5.08,4.05,4.49,4.2,8.03,9.11,10.93,14.51.7,1.31,1.41,2.63,1.96,4.01.8,2.01,1.88,3.88,2.83,5.81.14.29.28.58.43.87.16.3.1.56-.13.8-.13.14-.24.3-.35.46-.03-.02-.06-.04-.1-.07-.37-.89-.74-1.77-1.1-2.66-.76-1.86-1.4-3.79-2.3-5.58-1.21-2.41-2.58-4.75-3.95-7.08-1.59-2.7-3.39-5.27-5.42-7.66-1.91-2.26-4-4.34-6.33-6.16-.6-.48-1.26-.89-1.89-1.33-.08-.06-.16-.12-.24-.19l.04-.07v-.02Z"/>
      <path class="cls-3" d="M69.48,34.73c-.08-.07-.12-.1-.15-.13-.67-.62-.69-.73-.27-1.56.74-1.43,1.51-2.85,2.23-4.28.21-.42.28-.9.45-1.34.32-.82.62-1.65,1.01-2.43,1.82-3.61,3.89-7.06,6.31-10.3,2.42-3.24,5.11-6.22,8.34-8.68.88-.67,1.81-1.27,2.72-1.9.12-.09.26-.15.44-.18-.07.06-.14.12-.21.18-.97.71-1.98,1.38-2.92,2.13-2.24,1.78-4.22,3.84-6,6.07-3.97,4.98-7.23,10.39-9.68,16.27-.8,1.91-1.44,3.89-2.16,5.84-.03.09-.07.18-.11.31Z"/>
      <path class="cls-3" d="M17.69,89.16c-.66-.03-1.26-.63-1.32-1.27-.08-.88-.21-1.75-.54-2.58-.47-1.18-1.13-2.24-2.01-3.16-.09-.09-.19-.18-.3-.26-.34-.26-.38-.4-.15-.77.35-.55.75-1.06,1.06-1.63.88-1.58,1.44-3.25,1.46-5.08.03-2.2.04-4.4.12-6.6.06-1.63.22-3.26.33-4.88.02-.33.05-.66.12-.98,0,.63.03,1.27,0,1.9-.16,2.67-.21,5.33-.05,8,.07,1.06.09,2.13.08,3.19,0,.98-.23,1.93-.53,2.86-.15.47-.32.94-.06,1.44.04.08-.03.26-.11.34-.24.24-.57.41-.48.85,0,.05-.18.16-.3.2-.36.14-.74.22-1.08.39-.37.18-.39.34-.11.66.27.32.57.61.85.91,1.22,1.35,1.99,2.92,2.31,4.71.1.56.24,1.11.6,1.57.04.05.06.12.1.19h0Z"/>
      <path class="cls-3" d="M90.66,62c.09.69.19,1.38.28,2.07.34,2.73.31,5.48.34,8.23.02,1.4-.01,2.8.33,4.17.43,1.69,1.09,3.26,2.24,4.6.43.5.43.63-.11,1-1.43.99-1.92,2.4-1.84,4.06.03.65.11,1.29.19,1.93.05.4.02.45-.37.54-.27.06-.54.14-.82.21,0-.03-.01-.05,0-.06.41-.37.45-.81.35-1.33-.21-1.11-.15-2.19.46-3.2.51-.85,1.1-1.63,1.75-2.36.09-.1.17-.2.26-.31-.43-.42-.89-.76-1.49-.85-.22-.03-.34-.12-.34-.4,0-.16-.15-.35-.28-.46-.23-.2-.32-.38-.2-.7.08-.21.01-.49-.04-.73-.18-.74-.46-1.46-.55-2.2-.11-.94-.16-1.9-.09-2.85.21-2.96.22-5.92.03-8.88-.05-.83-.11-1.66-.17-2.48h.07Z"/>
      <path class="cls-3" d="M63.01,83.16c-.3-.27-.6-.55-.91-.79-1.53-1.2-3.3-1.87-5.18-2.26-1.69-.35-3.4-.28-5.12-.19-1.6.08-3.12.45-4.55,1.17-.95.48-1.83,1.04-2.6,1.77-.09.08-.18.15-.33.2.06-.1.11-.21.19-.3,1-1.22,2.27-2.08,3.73-2.63,2.18-.82,4.43-1.11,6.77-.89,1.96.18,3.8.69,5.52,1.63.91.5,1.74,1.11,2.37,1.97.05.07.1.15.15.23,0,.02.02.05.03.08,0,.01-.03.03-.04.04l-.03-.03Z"/>
      <path class="cls-3" d="M31.38,79.18c1.45-1,2.35-2.38,2.91-4.01.04,0,.07,0,.11-.01.38.69.76,1.38,1.16,2.11-1.29.91-2.69,1.5-4.19,1.92h0Z"/>
      <path class="cls-3" d="M75.53,79.19c-1.44-.43-2.77-1.04-4.02-1.92.38-.76.74-1.49,1.15-2.31.6,1.72,1.44,3.17,2.86,4.23h0Z"/>
      <path class="cls-3" d="M88.32,74.91c-.74,2.13-1.59,4.19-3.48,5.6-1.13.85-2.41,1.3-3.83,1.36s-2.84.02-4.24-.25c-.24-.05-.47-.14-.69-.29.5.04,1.01.13,1.51.13,1.39,0,2.79.11,4.16-.08,2.24-.32,3.95-1.56,5.06-3.55.43-.78.79-1.59,1.18-2.39.09-.19.17-.38.26-.57.02.02.05.03.07.05h0Z"/>
      <path class="cls-3" d="M19.14,75.73c.31.58.63,1.17.94,1.75.64,1.2,1.55,2.16,2.62,2.96.75.56,1.66.78,2.57.93,1.43.24,2.87.16,4.31.03.59-.05,1.18-.17,1.77-.25.08-.01.16,0,.33-.02-.13.07-.19.12-.25.14-2.14.69-4.33.88-6.54.42-2.19-.46-3.74-1.81-4.79-3.76-.35-.65-.63-1.33-.95-2-.03-.06-.04-.13-.06-.19.01,0,.03-.01.04-.02h.01Z"/>
      <path class="cls-3" d="M85.96,66.76c-.24-.1-.44-.18-.63-.27-1.05-.49-2.13-.88-3.29-1.01-2.73-.32-5.13.43-7.07,2.39-.73.74-1.32,1.61-1.98,2.42-.11.13-.21.26-.37.36.03-.08.06-.16.1-.24.88-1.41,1.85-2.74,3.16-3.79,1.46-1.18,3.16-1.58,5-1.54,1.75.04,3.32.67,4.84,1.44.06.03.12.07.18.12.01,0,.02.03.06.12Z"/>
      <path class="cls-3" d="M4.13,33.16c-.03.27-.01.55-.09.81-.21.69-.47,1.36-.71,2.03-.35.98-.53,2-.52,3.04,0,.96,0,1.93.11,2.88.12,1.06.61,2.01,1.09,2.95.62,1.21,1.3,2.4,1.96,3.6.12.22.3.42.48.67-.39-.12-1.7-1.52-1.97-2.09.35-.09.2-.29.09-.47-.89-1.38-1.45-2.89-1.82-4.48-.5-2.14-.31-4.24.44-6.3.28-.76.53-1.53.78-2.3.04-.11.05-.23.07-.35h.09Z"/>
      <path class="cls-3" d="M34.1,70.5c-.46-.58-.91-1.17-1.39-1.73-1.3-1.52-2.84-2.67-4.82-3.18-1.71-.44-3.38-.16-5.02.36-.33.1-.64.26-.96.38-.14.05-.28.1-.44.1.05-.04.1-.09.17-.12,1.45-.72,2.94-1.24,4.61-1.26,2.04-.02,3.72.73,5.2,2.06,1,.9,1.85,1.93,2.55,3.08.05.08.09.17.14.26-.02.02-.04.03-.05.05h0Z"/>
      <path class="cls-3" d="M55.9,85.44c-.04.19-.07.38-.12.57-.27,1.04-.31,2.1-.19,3.17.08.81.52,1.42,1.15,1.89.68.51,1.43.83,2.3.85.15,0,.29.07.44.11v.12c-.12.04-.24.14-.36.13-1.01-.08-1.99-.29-2.86-.82-.66-.41-.96-1.06-1.08-1.79-.2-1.24-.13-2.47.28-3.66.08-.21.22-.41.33-.61.04.02.08.03.11.05h0Z"/>
      <path class="cls-3" d="M100.98,49.85h-1.68c1.19-1.25,2.02-2.7,2.75-4.21.04.02.07.04.11.05-.13.33-.26.66-.4,1.01.12.03.2.05.37.1-.73.93-1.45,1.84-2.19,2.78h1.79c-2.19,1.7-4.33,3.41-6.25,5.38.45-.69,1.04-1.27,1.62-1.84.6-.58,1.21-1.14,1.84-1.68s1.31-1.03,2.03-1.59h.01Z"/>
      <path class="cls-3" d="M50.88,85.25c.39.38.65.85.78,1.36.28,1.05.3,2.13.08,3.19-.18.91-.82,1.49-1.61,1.91-.68.36-1.43.51-2.19.55-.09,0-.19-.02-.28-.03,0-.03,0-.06,0-.09.21-.06.41-.13.62-.18.79-.16,1.54-.42,2.16-.96.54-.48.87-1.07.88-1.8,0-.75.05-1.5,0-2.25-.03-.42-.21-.83-.34-1.24-.04-.15-.11-.29-.17-.43l.08-.04h0Z"/>
      <path class="cls-3" d="M101.89,12.65c-.42-1.58-.76-3.18-1.38-4.7-.63-1.54-1.57-2.87-2.73-4.05l.09-.09c.15.11.3.21.44.32,1.26.99,2.08,2.3,2.54,3.81.41,1.37.7,2.78,1.03,4.18.04.17,0,.36,0,.54h.01Z"/>
      <path class="cls-3" d="M5.15,49.76c.49-.33,1.16.09,1.49-.45.15.21.27.38.41.59h-1.04l-.06.11c1.81,1.39,3.55,2.85,5.07,4.56-1.9-1.66-3.81-3.31-5.88-4.81h0Z"/>
      <path class="cls-3" d="M4.69,10.61c0-2.04,2.24-6.25,3.71-6.75-.85,1-1.73,2-2.26,3.21-.53,1.2-.99,2.42-1.45,3.54Z"/>
      <path class="cls-3" d="M24.39,61.88c.48-.29.95-.61,1.45-.88,1.24-.68,2.5-1.33,3.9-1.63,1.06-.22,2.11-.2,3.14.15.12.04.24.09.34.19-.34-.04-.68-.09-1.02-.13-1.39-.16-2.75-.07-4.03.56-1.07.53-2.14,1.05-3.21,1.57-.18.09-.35.18-.53.27-.02-.03-.03-.07-.05-.1h.01Z"/>
      <path class="cls-3" d="M74,59.63c.71-.33,1.42-.39,2.14-.37.97.03,1.91.26,2.78.69,1.05.51,2.07,1.05,3.1,1.59.19.1.36.25.51.44-.13-.06-.26-.11-.39-.17-1.1-.55-2.18-1.15-3.32-1.64-1.5-.64-3.09-.8-4.71-.53h-.13.02Z"/>
      <path class="cls-3" d="M90.2,90.37c-.95,1.1-1.47,2.43-2.04,3.73-.33.74-.63,1.49-.94,2.24-.05.11-.11.2-.23.28.04-.12.07-.25.11-.37.51-1.33,1.02-2.66,1.54-3.99.26-.66.68-1.22,1.18-1.71.1-.1.23-.17.34-.25.01.02.03.05.04.07Z"/>
      <path class="cls-3" d="M13.56,53.23c-.38-.44-.73-.83-1.1-1.26.6-.16,1.16-.3,1.71-.45.03.03.06.06.09.09-.23.53-.46,1.06-.7,1.63h0Z"/>
      <path class="cls-3" d="M102.36,30.23v2.58c0,.74.19,1.44.43,2.13.32.93.59,1.87.67,2.86,0,.08,0,.16,0,.15-.37-1.35-.78-2.78-1.16-4.21-.3-1.11-.22-2.23-.08-3.35,0-.06.03-.11.05-.17h.09Z"/>
      <path class="cls-3" d="M3.87,29.56v-1.61h.08v1.64s-.05-.02-.08-.03Z"/>
      <path class="cls-3" d="M18.08,91.72c-.25-.39-.51-.77-.76-1.16.04-.02.07-.05.11-.07.25.38.51.77.76,1.15-.04.03-.07.06-.11.08Z"/>
      <path class="cls-3" d="M63.47,88.46c.19-.16.39-.33.58-.49.02.02.04.04.07.06l-.52.55s-.09-.08-.13-.12Z"/>
      <path class="cls-3" d="M102.61,21.34v1.42h-.03v-1.42h.03Z"/>
      <path class="cls-3" d="M43.34,87.85c.14.2.29.4.43.59l-.07.06c-.16-.19-.31-.37-.47-.56.04-.03.08-.06.11-.09Z"/>
      <path class="cls-1" d="M71.38,99.22c.14.07.24.09.3.15.52.52,1.05,1.04,1.56,1.57.16.17.26.4.1.64-.14.21-.35.3-.54.13-.6-.52-1.19-1.07-1.76-1.62-.16-.15-.15-.36-.01-.53.11-.13.25-.24.36-.35h0Z"/>
      <path class="cls-1" d="M37.48,99.35c.35,0,.57.32.44.6-.08.17-.2.33-.34.46-.45.42-.91.84-1.38,1.23-.12.1-.4.19-.44.15-.12-.14-.16-.35-.21-.53,0-.05,0-.12.05-.17.43-.69.94-1.28,1.67-1.67.08-.04.17-.05.21-.07Z"/>
      <path class="cls-1" d="M77.97,107.34c0,.37-.25.57-.56.43-.25-.11-.48-.26-.68-.44-.31-.28-.6-.6-.88-.92-.13-.15-.19-.34-.06-.53.14-.2.35-.28.56-.19.71.33,1.24.85,1.59,1.55.02.03.02.08.02.09h.01Z"/>
      <path class="cls-1" d="M33.12,106.16c-.03.05-.05.18-.13.27-.39.41-.79.81-1.2,1.2-.1.1-.27.16-.41.17-.4.03-.61-.24-.42-.6.33-.63.82-1.13,1.44-1.48.33-.18.72.04.72.44Z"/>
      <path class="cls-1" d="M36.04,106.41c-.4,0-.63-.39-.4-.67.36-.45.79-.83,1.19-1.25.03-.03.06-.05.1-.07.36-.28.73-.19.89.24.03.08,0,.22-.05.27-.51.48-1.03.94-1.55,1.4-.06.05-.15.06-.18.07h0Z"/>
      <path class="cls-1" d="M71.59,104.33c.09.04.29.09.43.21.36.29.71.6,1.02.94.26.28.26.56.08.83-.12.18-.28.22-.44.12-.59-.38-1.14-.81-1.48-1.44-.18-.34-.03-.64.38-.65h.01Z"/>
      <path class="cls-1" d="M76.94,101.75c0,.39-.44.66-.74.45-.34-.24-.63-.55-.9-.87-.17-.21-.09-.46.12-.65s.44-.17.63,0c.28.27.54.56.8.86.06.06.07.16.08.2h0Z"/>
      <path class="cls-1" d="M32.39,102.28c-.32,0-.56-.34-.45-.64.17-.48.53-.82.98-1.03.12-.05.37.09.51.21.1.08.19.32.14.41-.22.43-.52.79-.98,1.01-.07.03-.16.04-.2.05h0Z"/>
      <path class="cls-1" d="M24.88,30.24c-.09-.55-.22-1.09-.27-1.64-.37-3.81-2.03-6.96-4.84-9.52-.5-.45-1.05-.85-1.58-1.27-.07-.06-.13-.14-.19-.2.02-.03.04-.06.05-.09.15.06.31.1.45.17,1.25.6,2.33,1.43,3.28,2.42,1.48,1.54,2.7,3.26,3.37,5.32.26.8.3,1.64.26,2.47-.03.66-.14,1.33-.23,1.99-.02.14-.11.26-.17.39-.05,0-.09-.01-.14-.02v-.02Z"/>
      <path class="cls-1" d="M81.38,30.43c-.05-.15-.14-.3-.16-.46-.1-.68-.2-1.36-.26-2.05-.12-1.45.41-2.73,1.12-3.94.94-1.61,2.32-2.8,3.85-3.82.85-.57,1.75-1.02,2.72-1.33.11-.04.23-.06.38-.03-.09.06-.18.13-.27.19-1,.66-2.04,1.26-2.98,1.99-2.03,1.57-3.15,3.71-3.67,6.19-.2.98-.37,1.97-.55,2.95-.02.1-.06.2-.1.3h-.09.01Z"/>
      <path class="cls-1" d="M83.88,72.84c.18,2.47-1.68,4.42-3.58,4.85-2.61.6-5.11-1.06-5.54-3.71-.26-1.56.02-2.98,1.13-4.18,1.52-1.65,4.08-1.95,5.93-.67.35.25.7.53.99.85.75.83,1.24,1.78,1.09,2.86h-.02ZM81.35,70.79c-.65,0-1.19.51-1.18,1.13,0,.66.52,1.2,1.13,1.19.67,0,1.23-.51,1.23-1.13s-.57-1.19-1.18-1.19Z"/>
      <path class="cls-1" d="M27.8,77.75c-2.91.05-4.86-2.09-4.8-5.28.03-1.72,1.87-4.15,4.34-4.12,2.44.02,5.05,1.89,4.95,4.87-.09,2.63-2.33,4.71-4.49,4.53ZM29.89,73.12c.68,0,1.22-.52,1.21-1.17,0-.53-.65-1.18-1.19-1.2-.48-.01-1.23.69-1.24,1.16-.01.6.6,1.2,1.21,1.21h.01Z"/>
      <path class="cls-3" d="M81.35,70.79c.61,0,1.18.58,1.18,1.19s-.56,1.12-1.23,1.13c-.61,0-1.12-.53-1.13-1.19,0-.62.53-1.13,1.18-1.13Z"/>
      <path class="cls-3" d="M29.89,73.12c-.62,0-1.23-.61-1.21-1.21.01-.47.76-1.18,1.24-1.16.54.01,1.18.67,1.19,1.2,0,.65-.54,1.17-1.21,1.17h-.01Z"/>
    </g>
  </g>
</svg>