<?xml version="1.0" encoding="UTF-8"?>
<svg id="Layer_1" data-name="Layer 1" xmlns="http://www.w3.org/2000/svg" viewBox="0 0 384.01 43.19">
  <g>
    <path d="M28.22,19.8l.21.58-5.09-14.62C22.37,3.11,21.12.46,19.4,0h9.29c-1.9.5-1.66,3.9-.7,6.67l12.1,34.63L52.38,6.17l-.02.05c.85-2.42,1.55-5.71-.35-6.22h5.71c-1.85.49-3.69,3.31-4.7,6.13l-12.62,36.06h-.62,0c-3.28-.15-3.96-1.44-5.1-3.84l-6.15-17.65-7.52,21.49h-.62v-.02c-3.28-.13-3.95-1.42-5.09-3.82L3.83,5.44C2.88,2.9,1.66.44,0,0h9.3c-1.91.5-1.66,3.91-.7,6.67l12.1,34.63,7.52-21.5Z" fill="#fff" stroke-width="0"/>
    <path d="M54.77,32.81c.56,7.05,3.6,9.75,6.95,9.58,4.57-.23,7.85-3.52,9.36-8.58l.34.32c-1.51,5.67-5.3,8.47-9.27,8.81-5.74.5-11.82-4.1-11.82-12.52,0-6.4,4.37-12.62,10.79-12.62,5.26,0,9.14,4.17,10.38,9.2l-3.99,1.38-12.73,4.42ZM67.46,27.79c-.3-4.37-1.57-9.36-6.34-9.36-5.77,0-6.44,7.31-6.44,11.99,0,.62.02,1.22.05,1.78l12.73-4.42Z" fill="#fff" stroke-width="0"/>
    <path d="M81.75,18.46c-6.93,0-10.5,7.33.46,9.96,14.66,3.52,7.51,14.57-.41,14.57-2.73,0-5.2-1.07-7.13-2.81-.29-.26-.5-.21-.5.18h-.62v-6.67h.62v1.44c0,3.66,2.34,7.22,7.63,7.22s12.4-6.62-.59-9.74c-14.33-3.45-7.73-14.81.54-14.81,2.42,0,4.64.84,6.46,2.26.4.3.64.38.64-.32h.62v6.97h-.62v-.75c0-4.02-1.84-7.53-7.1-7.53Z" fill="#fff" stroke-width="0"/>
    <path d="M108.49,38.85c0,.34-.47.94-1.41,1.81-1.62,1.47-3.54,2.2-5.76,2.2-2.07,0-3.64-.53-4.69-1.58-.6-.6-.9-2.37-.9-5.3v-16.8c-.04-.38-.25-.58-.62-.62h-2.15c-.83,0-1.24-.13-1.24-.4s.21-.41.62-.45c2.92-.27,5.2-1.71,6.85-4.34.22-.34.5-.51.84-.51.26,0,.39.13.39.4v1.19c0,1.58.08,2.6.23,3.05.34.08.9.11,1.7.11,2.07,0,3.45-.09,4.12-.28.15-.04.28-.06.4-.06.3,0,.45.16.45.49,0,.54-1.53.81-4.58.81h-2.32v10.45c0,5.27.13,8.58.4,9.92.26,1.34,1.13,2.01,2.6,2.01,1.24,0,2.64-.7,4.18-2.09.15-.19.32-.28.51-.28.26,0,.4.09.4.28Z" fill="#fff" stroke-width="0"/>
    <path d="M124.54,38.85c0,.34-.47.94-1.41,1.81-1.62,1.47-3.54,2.2-5.76,2.2-2.07,0-3.64-.53-4.69-1.58-.6-.6-.9-2.37-.9-5.3v-16.8c-.04-.38-.25-.58-.62-.62h-2.15c-.83,0-1.24-.13-1.24-.4s.21-.41.62-.45c2.92-.27,5.2-1.71,6.85-4.34.22-.34.5-.51.84-.51.26,0,.39.13.39.4v1.19c0,1.58.08,2.6.23,3.05.34.08.9.11,1.7.11,2.07,0,3.45-.09,4.12-.28.15-.04.28-.06.4-.06.3,0,.45.16.45.49,0,.54-1.53.81-4.58.81h-2.32v10.45c0,5.27.13,8.58.4,9.92.26,1.34,1.13,2.01,2.6,2.01,1.24,0,2.64-.7,4.18-2.09.15-.19.32-.28.51-.28.26,0,.4.09.4.28Z" fill="#fff" stroke-width="0"/>
    <path d="M146.75,30.43c0,6.4-4.59,12.62-11.34,12.62s-11.33-6.22-11.33-12.62,4.59-12.62,11.33-12.62,11.34,6.22,11.34,12.62ZM128.41,30.43c0,4.68.93,11.99,7,11.99s7-7.3,7-11.99-.92-11.99-7-11.99-7,7.31-7,11.99Z" fill="#fff" stroke-width="0"/>
    <path d="M151.04,18.68h3.25c-1.85.49-1.95,3.71-1.29,6.36l4.95,16.11,2.99-10.62-2.25-7.32c-.78-2.04-1.99-4.15-3.39-4.53h9.49c-1.62.43-1.9,2.95-1.5,5.33l5.28,17.13,4.82-17.11c.36-2.26-.01-4.92-1.68-5.36h6.34c-1.84.49-3.59,3.85-4.29,6.23l-4.86,17.28h-.62c-2.58-.09-4.01-.81-4.87-3.71l-2.13-6.9-2.99,10.61h-.62c-2.58-.09-4-.81-4.87-3.71l-4.07-13.24v.03c-.66-2.39-2.18-6.08-4.08-6.59h6.41Z" fill="#fff" stroke-width="0"/>
    <path d="M177.66,42.18c1.91-.51,2.48-3.94,2.48-6.59h0s0-4.89,0-4.89h0v-3.42c0-2.65-.58-6.08-2.48-6.59,2.38,0,5.08.48,6.4-2.02h.42v6.72c1.83-5.37,5.6-7.55,8.67-7.52,3.36.03,6.32,1.96,6.32,6.08v11.69c0,2.64.58,6.04,2.48,6.54h-2.79c-2.02-.13-4.03-1.46-4.03-4v-14.43c0-7.84-10.57-2.78-10.65,4.04v7.8c0,2.65.57,6.08,2.48,6.59h-9.3Z" fill="#fff" stroke-width="0"/>
  </g>
  <g>
    <path d="M230.77,20.13l.2.57-5.05-14.5c-.95-2.62-2.19-5.25-3.9-5.71h9.21c-1.89.5-1.64,3.87-.69,6.61l12,34.34,12.19-34.84-.02.05c.84-2.41,1.54-5.67-.35-6.17h5.67c-1.83.49-3.66,3.28-4.67,6.08l-12.52,35.76h-.62v-.02c-3.24-.13-3.92-1.41-5.05-3.79l-6.1-17.51-7.46,21.31h-.62,0c-3.26-.14-3.92-1.42-5.06-3.81l-11.37-32.63c-.94-2.52-2.14-4.96-3.79-5.4h9.22c-1.89.5-1.65,3.87-.69,6.61l12,34.34,7.46-21.32Z" fill="#fff" stroke-width="0"/>
    <path d="M257.09,33.04c.55,6.99,3.58,9.66,6.9,9.5,4.53-.22,7.79-3.5,9.28-8.51l.33.32c-1.5,5.62-5.26,8.4-9.19,8.74-5.69.5-11.72-4.07-11.72-12.42,0-6.34,4.33-12.51,10.7-12.51,5.22,0,9.07,4.13,10.29,9.12l-3.96,1.37-12.62,4.38ZM269.68,28.06c-.3-4.34-1.56-9.28-6.29-9.28-5.72,0-6.39,7.25-6.39,11.9,0,.62.02,1.21.05,1.77l12.63-4.38Z" fill="#fff" stroke-width="0"/>
    <path d="M286.9,43.19c-3.72,0-5.81-1.98-6.94-4.83,0,3.61-3.52,3.98-6.77,3.98,1.88-.5,2.46-3.87,2.46-6.49V9.03c0-2.62-.57-6.03-2.46-6.53,2.36,0,5.04.47,6.35-2.01h.42v22.23c1.13-2.73,3.22-4.56,6.94-4.56,6.69,0,11.24,6.17,11.24,12.51s-4.56,12.51-11.24,12.51ZM286.9,42.57c6.02,0,6.93-7.25,6.93-11.9s-.92-11.89-6.93-11.89-6.94,7.24-6.94,11.89.92,11.9,6.94,11.9Z" fill="#fff" stroke-width="0"/>
    <path d="M308.42,18.81c-6.88,0-10.41,7.27.46,9.88,14.54,3.5,7.45,14.45-.41,14.45-2.71,0-5.16-1.06-7.07-2.78-.28-.26-.49-.21-.49.18h-.62v-6.61h.62v1.43c0,3.63,2.32,7.16,7.57,7.16s12.3-6.56-.58-9.66c-14.21-3.42-7.67-14.69.53-14.69,2.4,0,4.61.84,6.41,2.24.39.3.63.38.63-.32h.62v6.92h-.62v-.74c0-3.99-1.82-7.46-7.04-7.46Z" fill="#fff" stroke-width="0"/>
    <path d="M317.9,42.33c1.88-.5,2.45-3.87,2.46-6.49v-8.31c0-2.62-.57-6.01-2.46-6.51,2.36,0,5.04.47,6.35-2.01h.42v16.78c0,2.62.57,6.03,2.46,6.53h-9.23ZM322.52,16.45c-1.29,0-2.34-1.13-2.34-2.53s1.05-2.53,2.34-2.53,2.34,1.13,2.34,2.53-1.05,2.53-2.34,2.53Z" fill="#fff" stroke-width="0"/>
    <path d="M344.38,39c0,.34-.47.94-1.41,1.81-1.62,1.47-3.54,2.2-5.76,2.2-2.07,0-3.63-.53-4.68-1.58-.6-.6-.9-2.36-.9-5.29v-16.78c-.04-.37-.25-.58-.62-.62h-2.14c-.83,0-1.24-.13-1.24-.4s.21-.41.62-.45c2.92-.27,5.2-1.71,6.84-4.34.22-.34.5-.52.84-.52.26,0,.39.13.39.4v1.19c0,1.58.07,2.6.23,3.05.34.08.9.11,1.69.11,2.07,0,3.44-.09,4.12-.28.15-.04.28-.06.4-.06.3,0,.45.16.45.49,0,.54-1.52.81-4.57.81h-2.31v10.44c0,5.27.13,8.57.4,9.91.26,1.34,1.13,2,2.6,2,1.24,0,2.63-.7,4.18-2.09.15-.19.32-.28.51-.28.26,0,.4.09.4.28Z" fill="#fff" stroke-width="0"/>
    <path d="M348.37,33.04c.55,6.99,3.58,9.66,6.9,9.5,4.53-.22,7.79-3.5,9.28-8.51l.33.32c-1.5,5.62-5.26,8.4-9.19,8.74-5.69.5-11.72-4.07-11.72-12.42,0-6.34,4.33-12.51,10.7-12.51,5.22,0,9.07,4.13,10.29,9.12l-3.96,1.37-12.62,4.38ZM360.96,28.06c-.3-4.34-1.56-9.28-6.29-9.28-5.72,0-6.39,7.25-6.39,11.9,0,.62.02,1.21.05,1.77l12.63-4.38Z" fill="#fff" stroke-width="0"/>
    <path d="M375.13,18.81c-6.88,0-10.41,7.27.46,9.88,14.54,3.5,7.45,14.45-.41,14.45-2.71,0-5.16-1.06-7.07-2.78-.28-.26-.49-.21-.49.18h-.62v-6.61h.62v1.43c0,3.63,2.32,7.16,7.57,7.16s12.3-6.56-.58-9.66c-14.21-3.42-7.67-14.69.53-14.69,2.4,0,4.61.84,6.41,2.24.39.3.63.38.63-.32h.62v6.92h-.62v-.74c0-3.99-1.82-7.46-7.04-7.46Z" fill="#fff" stroke-width="0"/>
  </g>
</svg>