<?xml version="1.0" encoding="UTF-8"?>
<svg xmlns="http://www.w3.org/2000/svg" xmlns:xlink="http://www.w3.org/1999/xlink" version="1.1" viewBox="0 0 1489 900">
  <!-- Generator: Adobe Illustrator 29.0.1, SVG Export Plug-In . SVG Version: 2.1.0 Build 192)  -->
  <defs>
    <style>
      .st0 {
        mask: url(#mask);
      }

      .st1 {
        fill: #586dff;
      }

      .st1, .st2, .st3, .st4, .st5, .st6, .st7, .st8, .st9, .st10, .st11, .st12, .st13, .st14, .st15, .st16, .st17, .st18, .st19, .st20, .st21, .st22, .st23, .st24, .st25, .st26, .st27, .st28, .st29, .st30, .st31, .st32, .st33, .st34, .st35, .st36, .st37, .st38, .st39, .st40, .st41, .st42, .st43, .st44 {
        fill-rule: evenodd;
      }

      .st2 {
        fill: url(#linear-gradient21);
      }

      .st3 {
        fill: url(#linear-gradient20);
      }

      .st4 {
        fill: url(#linear-gradient22);
      }

      .st5 {
        fill: url(#linear-gradient23);
      }

      .st6 {
        fill: url(#linear-gradient19);
      }

      .st7 {
        fill: url(#linear-gradient14);
      }

      .st8 {
        fill: url(#linear-gradient11);
      }

      .st9 {
        fill: url(#linear-gradient16);
      }

      .st10 {
        fill: url(#linear-gradient17);
      }

      .st11 {
        fill: url(#linear-gradient12);
      }

      .st12 {
        fill: url(#linear-gradient13);
      }

      .st13 {
        fill: url(#linear-gradient18);
      }

      .st14 {
        fill: #c7dcff;
      }

      .st45 {
        fill: #3f699d;
      }

      .st15 {
        fill: #528be1;
      }

      .st16 {
        fill: #dae8ff;
      }

      .st17, .st46 {
        fill: #fff;
      }

      .st47 {
        fill: url(#linear-gradient9);
      }

      .st48 {
        fill: url(#linear-gradient6);
      }

      .st49 {
        fill: url(#linear-gradient8);
      }

      .st50, .st43 {
        fill: #092965;
      }

      .st18 {
        fill: #b8d1f8;
      }

      .st19, .st25, .st51, .st52, .st30, .st31, .st53, .st39, .st54 {
        isolation: isolate;
      }

      .st19, .st25, .st52, .st30, .st31, .st39 {
        mix-blend-mode: multiply;
      }

      .st19, .st39 {
        fill: #a9aac4;
      }

      .st55 {
        fill: url(#linear-gradient10);
      }

      .st20 {
        fill: #dce9ff;
      }

      .st56 {
        fill: #adccff;
      }

      .st21 {
        fill: #051b4d;
      }

      .st22 {
        fill: #528ce2;
      }

      .st23 {
        fill: #91b2f0;
      }

      .st24 {
        fill: #2c3652;
      }

      .st25 {
        fill: url(#linear-gradient15);
      }

      .st57 {
        stroke: #dde7f9;
        stroke-width: 1.1px;
      }

      .st57, .st52, .st58, .st59, .st60 {
        fill: none;
      }

      .st61 {
        mask: url(#mask-2);
      }

      .st62 {
        mask: url(#mask-3);
      }

      .st63 {
        mask: url(#mask-4);
      }

      .st64 {
        mask: url(#mask-5);
      }

      .st65 {
        mask: url(#mask-7);
      }

      .st66 {
        mask: url(#mask-1);
      }

      .st67 {
        mask: url(#mask-8);
      }

      .st26 {
        fill: #ffbbb0;
      }

      .st27 {
        fill: #30334f;
      }

      .st28 {
        fill: #ac6a5a;
      }

      .st52 {
        stroke: #d8d8d8;
      }

      .st52, .st59, .st60 {
        stroke-width: .7px;
      }

      .st29 {
        fill: #bdcce6;
      }

      .st58 {
        stroke-miterlimit: 4;
        stroke-width: .7px;
      }

      .st58, .st59 {
        stroke: #30334f;
      }

      .st68, .st53, .st44 {
        fill: #80b1ff;
      }

      .st30 {
        fill: #828eb7;
      }

      .st31 {
        fill: #0d3677;
      }

      .st53 {
        opacity: .5;
      }

      .st32 {
        fill: url(#linear-gradient);
      }

      .st33 {
        fill: url(#linear-gradient1);
      }

      .st34 {
        fill: url(#linear-gradient2);
      }

      .st35 {
        fill: url(#linear-gradient4);
      }

      .st36 {
        fill: url(#linear-gradient5);
      }

      .st37 {
        fill: url(#linear-gradient3);
      }

      .st38 {
        fill: #477fcc;
      }

      .st39 {
        opacity: .2;
      }

      .st54 {
        fill: url(#linear-gradient7);
        opacity: .2;
      }

      .st40 {
        fill: #181e36;
      }

      .st41 {
        fill: #c47770;
      }

      .st42 {
        fill: #4a5cd8;
      }

      .st69 {
        mask: url(#mask-91);
      }

      .st70 {
        mask: url(#mask-61);
      }

      .st71 {
        mask: url(#mask-10);
      }

      .st72 {
        mask: url(#mask-11);
      }

      .st60 {
        stroke: #1c478a;
      }
    </style>
    <linearGradient id="linear-gradient" x1="478" y1="659.4" x2="478.3" y2="658.6" gradientTransform="translate(24551.3 43476.5) rotate(-180) scale(48.7 65.4)" gradientUnits="userSpaceOnUse">
      <stop offset="0" stop-color="#15539e"/>
      <stop offset="1" stop-color="#092965"/>
    </linearGradient>
    <mask id="mask" x="1282" y="323.8" width="37.5" height="46.6" maskUnits="userSpaceOnUse">
      <g id="mask-6">
        <path id="path-51" data-name="path-5" class="st17" d="M1308.1,327.5c-1.6-1-6.7-1.7-11.5-2.6-1.6-.3-3.2-.9-4.6-1-2.2-.3-4.7.6-6.4,1.8-1.7,1.2,0,2.4-.9,7.4-.8,5-2.6,10.8-1.5,13.9.7,2.1,1.9,3.5,3.5,4.4,0,5.7.6,9.4,2,11.2,2.1,2.7,13.9,7.6,19.5,4.5,5.6-3.1-.5-8.7,1.9-16.7,2.4-8,7.1-12.4,6.3-16.1-.7-3.8-5.7-5.1-8.2-6.8Z"/>
      </g>
    </mask>
    <linearGradient id="linear-gradient1" x1="474.3" y1="659.5" x2="475" y2="659.2" gradientTransform="translate(39921.9 33636.6) rotate(-180) scale(81.4 50.4)" gradientUnits="userSpaceOnUse">
      <stop offset="0" stop-color="#15539e"/>
      <stop offset="1" stop-color="#092965"/>
    </linearGradient>
    <mask id="mask-1" x="1290.5" y="310.6" width="15.9" height="27.7" maskUnits="userSpaceOnUse">
      <g id="mask-9">
        <path id="path-81" data-name="path-8" class="st17" d="M1295.7,321.6c0,1.7-.1,2.8-.4,3.2-1.1-.4-2.2.3-3.2,2.1-1.5,2.8-2,5.8-1.2,8.5.9,2.8,5.3,3.9,9.3,1.6,5.5-3.2,5.5-9.8,5-10.4s-2.8-.5.6-11.8c2.2-7.5-1.1-5.3-10,6.7Z"/>
      </g>
    </mask>
    <linearGradient id="linear-gradient2" x1="471.3" y1="657.8" x2="470.6" y2="657.7" gradientTransform="translate(129942.6 247976.1) rotate(-180) scale(273.8 376.5)" gradientUnits="userSpaceOnUse">
      <stop offset="0" stop-color="#4f6fce"/>
      <stop offset="1" stop-color="#3b3b5d"/>
    </linearGradient>
    <mask id="mask-2" x="784.1" y="158.2" width="333.1" height="450.4" maskUnits="userSpaceOnUse">
      <g id="mask-12">
        <path id="path-111" data-name="path-11" class="st17" d="M1081.6,159.6l-254.6,149.3c-5.3,3.1-9.6,10.3-9.6,16.1v203.3c0,5.8,4.3,8,9.6,4.9l254.6-149.3c5.3-3.1,9.6-10.3,9.6-16.1v-203.3c0-5.8-4.3-8-9.6-4.9Z"/>
      </g>
    </mask>
    <linearGradient id="linear-gradient3" x1="471.2" y1="658" x2="470.3" y2="657.7" gradientTransform="translate(157783.7 192151.2) rotate(-180) scale(333.1 291.4)" gradientUnits="userSpaceOnUse">
      <stop offset="0" stop-color="#c0e1ff"/>
      <stop offset="1" stop-color="#fff"/>
    </linearGradient>
    <mask id="mask-3" x="817.3" y="158.2" width="273.8" height="376.5" maskUnits="userSpaceOnUse">
      <g id="mask-121" data-name="mask-12">
        <path id="path-112" data-name="path-11" class="st17" d="M1081.6,159.6l-254.6,149.3c-5.3,3.1-9.6,10.3-9.6,16.1v203.3c0,5.8,4.3,8,9.6,4.9l254.6-149.3c5.3-3.1,9.6-10.3,9.6-16.1v-203.3c0-5.8-4.3-8-9.6-4.9Z"/>
      </g>
    </mask>
    <linearGradient id="linear-gradient4" x1="485.3" y1="657.3" x2="485.5" y2="656.8" gradientTransform="translate(5793.8 32714.6) rotate(-165) scale(27 45.7)" gradientUnits="userSpaceOnUse">
      <stop offset="0" stop-color="#56a1ff"/>
      <stop offset="1" stop-color="#5187dc"/>
    </linearGradient>
    <linearGradient id="linear-gradient5" x1="485.3" y1="657.3" x2="485.5" y2="656.8" gradientTransform="translate(5884.3 32662) rotate(-165) scale(27 45.7)" gradientUnits="userSpaceOnUse">
      <stop offset="0" stop-color="#56a1ff"/>
      <stop offset="1" stop-color="#5187dc"/>
    </linearGradient>
    <linearGradient id="linear-gradient6" x1="410.3" y1="654.2" x2="409.9" y2="654" gradientTransform="translate(-7278.9 -2523.3) rotate(90) scale(7.2 -12.6)" gradientUnits="userSpaceOnUse">
      <stop offset="0" stop-color="#4f6fce"/>
      <stop offset="1" stop-color="#3b3b5d"/>
    </linearGradient>
    <linearGradient id="linear-gradient7" x1="475.2" y1="659.6" x2="474.6" y2="659.4" gradientTransform="translate(39268.8 31829.3) rotate(-180) scale(80.4 47.4)" gradientUnits="userSpaceOnUse">
      <stop offset="0" stop-color="#364d83" stop-opacity=".6"/>
      <stop offset="1" stop-color="#b2c4ff"/>
    </linearGradient>
    <linearGradient id="linear-gradient8" x1="483.2" y1="677.7" x2="481.9" y2="677.7" gradientTransform="translate(13815.9 8902.1) rotate(-180) scale(26.4 12.6)" gradientUnits="userSpaceOnUse">
      <stop offset="0" stop-color="#4f6fce"/>
      <stop offset="1" stop-color="#3b3b5d"/>
    </linearGradient>
    <linearGradient id="linear-gradient9" x1="465.6" y1="657.7" x2="464.8" y2="657.6" gradientTransform="translate(-86561.5 -47182.1) rotate(90) scale(102 -133.2)" gradientUnits="userSpaceOnUse">
      <stop offset="0" stop-color="#4f6fce"/>
      <stop offset="1" stop-color="#3b3b5d"/>
    </linearGradient>
    <mask id="mask-4" x="961.6" y="122" width="168.2" height="219.7" maskUnits="userSpaceOnUse">
      <g id="mask-21">
        <ellipse id="path-201" data-name="path-20" class="st46" cx="1052.5" cy="277.4" rx="43.2" ry="56.4"/>
      </g>
    </mask>
    <linearGradient id="linear-gradient10" x1="466.3" y1="658" x2="465.5" y2="657.7" gradientTransform="translate(-82253.9 -55354.8) rotate(90) scale(119.4 -126.6)" gradientUnits="userSpaceOnUse">
      <stop offset="0" stop-color="#c0e1ff"/>
      <stop offset="1" stop-color="#fff"/>
    </linearGradient>
    <mask id="mask-5" x="969.2" y="212.2" width="119.4" height="126.6" maskUnits="userSpaceOnUse">
      <g id="mask-24">
        <ellipse id="path-231" data-name="path-23" class="st46" cx="1028.9" cy="275.5" rx="59.7" ry="63.3"/>
      </g>
    </mask>
    <linearGradient id="linear-gradient11" x1="463.1" y1="658.6" x2="462.7" y2="658.2" gradientTransform="translate(-28194.9 71154.9) scale(63.2 -107.7)" gradientUnits="userSpaceOnUse">
      <stop offset="0" stop-color="#c0e1ff"/>
      <stop offset="1" stop-color="#fff"/>
    </linearGradient>
    <mask id="mask-61" data-name="mask-6" x="961.6" y="212.2" width="127" height="126.6" maskUnits="userSpaceOnUse">
      <g id="mask-241" data-name="mask-24">
        <ellipse id="path-232" data-name="path-23" class="st46" cx="1028.9" cy="275.5" rx="59.7" ry="63.3"/>
      </g>
    </mask>
    <linearGradient id="linear-gradient12" x1="485.7" y1="657.3" x2="485.9" y2="656.8" gradientTransform="translate(5827.1 31727.9) rotate(-165) scale(26.3 44.4)" gradientUnits="userSpaceOnUse">
      <stop offset="0" stop-color="#56a1ff"/>
      <stop offset="1" stop-color="#5187dc"/>
    </linearGradient>
    <mask id="mask-7" x="1010.1" y="236.1" width="28.2" height="45.3" maskUnits="userSpaceOnUse">
      <g id="mask-28">
        <ellipse id="path-271" data-name="path-27" class="st46" cx="1024.9" cy="257.9" rx="13.2" ry="21.9" transform="translate(-21.3 108.5) rotate(-6)"/>
      </g>
    </mask>
    <mask id="mask-8" x="969.2" y="122" width="160.5" height="219.7" maskUnits="userSpaceOnUse">
      <g id="mask-242" data-name="mask-24">
        <ellipse id="path-233" data-name="path-23" class="st46" cx="1028.9" cy="275.5" rx="59.7" ry="63.3"/>
      </g>
    </mask>
    <mask id="mask-91" data-name="mask-9" x="875" y="221" width="220.7" height="196.2" maskUnits="userSpaceOnUse">
      <g id="mask-211" data-name="mask-21">
        <ellipse id="path-202" data-name="path-20" class="st46" cx="1052.5" cy="277.4" rx="43.2" ry="56.4"/>
      </g>
    </mask>
    <linearGradient id="linear-gradient13" x1="479.3" y1="658.7" x2="479.4" y2="657.9" gradientTransform="translate(21461.6 82515.6) rotate(-180) scale(42.5 124.6)" gradientUnits="userSpaceOnUse">
      <stop offset="0" stop-color="#15539e"/>
      <stop offset="1" stop-color="#092965"/>
    </linearGradient>
    <mask id="mask-10" x="1069.3" y="402.4" width="50.4" height="53.9" maskUnits="userSpaceOnUse">
      <g id="mask-31">
        <path id="path-301" data-name="path-30" class="st17" d="M1091.3,414.9c-1.7-1.1-2.8-1.8-3.4-2.1-1.6-.7-9.3-10.6-9.9-10.3-1.9.9-7.4,3.3-8.6,9.4,6.3,7.9,11.2,14.1,14.9,18.7,2.4,3.2.5,15.2,0,18.5-.3,2.2.4,4,2.2,5.5,6.4,2.6,14.3,2.4,23.5-.6,4.1-1.6,6.6-3.8,7.7-6.5.7-1.6.7-5.2,0-11,1.2-8.5.8-19.2-1.2-23.7-2-4.5-5.9-6-9.8-4.3-.6.3-1-.3-1.1-1.7l-14.3,8.1Z"/>
      </g>
    </mask>
    <mask id="mask-11" x="1087.4" y="376.1" width="26.3" height="30.7" maskUnits="userSpaceOnUse">
      <g id="mask-33">
        <path id="path-321" data-name="path-32" class="st17" d="M1099.1,395.6c1.1,0,3,.2,1.5,4-1.5,3.7,2.7,5.9,4,5.4,1.3-.5,5.7-7.1,8-8.9,1.5-1.2,1.4-3.4-.3-6.8,1.3-3.5.4-6-2.7-7.5-4.7-2.3-12.3-6.4-15.5-5.5-2.2.6-3,1.4-2.4,2.4-3.5,1.6-4.3,3.3-2.5,5.1,1.8,1.8,4.4,3,7.6,3.6-2.2,1.2-3.1,2.6-2.7,4.1.6,2.2,1.2,4.9,0,6.7-1.2,1.9-5.8,1.7-6.2,0-.6,1.3-.4,5.3-.2,6.3.2.9-.6,2.4,3.7,2.4s2.6-4.2,3.9-7.2c1.3-3,2.8-4,3.9-4Z"/>
      </g>
    </mask>
    <linearGradient id="linear-gradient14" x1="509.4" y1="662.6" x2="509.3" y2="662.9" gradientTransform="translate(6463.6 12499.2) rotate(-180) scale(10.5 18.3)" gradientUnits="userSpaceOnUse">
      <stop offset="0" stop-color="#30334f"/>
      <stop offset="1" stop-color="#181e36"/>
    </linearGradient>
    <linearGradient id="linear-gradient15" x1="650" y1="683.2" x2="649.6" y2="683.3" gradientTransform="translate(2611.5 2824.8) rotate(-180) scale(2.3 3.6)" gradientUnits="userSpaceOnUse">
      <stop offset="0" stop-color="#fff"/>
      <stop offset="1" stop-color="#e6e6e6"/>
    </linearGradient>
    <linearGradient id="linear-gradient16" x1="461.5" y1="649.7" x2="461.7" y2="651.3" gradientTransform="translate(-32123.3 463.6) rotate(60) scale(36.4 -44.4)" gradientUnits="userSpaceOnUse">
      <stop offset="0" stop-color="#bfd5ff"/>
      <stop offset="1" stop-color="#8493f2"/>
    </linearGradient>
    <linearGradient id="linear-gradient17" x1="460.9" y1="653.4" x2="460.9" y2="652.4" gradientTransform="translate(-45183.5 9554.3) rotate(60) scale(33.4 -68.5)" gradientUnits="userSpaceOnUse">
      <stop offset="0" stop-color="#6f49e5"/>
      <stop offset="1" stop-color="#a265e9"/>
    </linearGradient>
    <linearGradient id="linear-gradient18" x1="464.1" y1="653.6" x2="463.8" y2="653.8" gradientTransform="translate(-57705.4 6871.2) rotate(60) scale(51.7 -83)" gradientUnits="userSpaceOnUse">
      <stop offset="0" stop-color="#334a98"/>
      <stop offset="1" stop-color="#2f76ff"/>
    </linearGradient>
    <linearGradient id="linear-gradient19" x1="461" y1="653.1" x2="460.6" y2="652.5" gradientTransform="translate(-45183.4 9525.6) rotate(60) scale(33.4 -68.5)" gradientUnits="userSpaceOnUse">
      <stop offset="0" stop-color="#334a98"/>
      <stop offset="1" stop-color="#2f76ff"/>
    </linearGradient>
    <linearGradient id="linear-gradient20" x1="462.9" y1="647.1" x2="463.3" y2="647.9" gradientTransform="translate(-26615 -7140.5) rotate(60) scale(44.5 -31.4)" gradientUnits="userSpaceOnUse">
      <stop offset="0" stop-color="#bfd5ff"/>
      <stop offset="1" stop-color="#8493f2"/>
    </linearGradient>
    <linearGradient id="linear-gradient21" x1="459.4" y1="649.4" x2="458.8" y2="648.4" gradientTransform="translate(-25736.1 1320.8) rotate(60) scale(27.9 -36.7)" gradientUnits="userSpaceOnUse">
      <stop offset="0" stop-color="#e1e9fe"/>
      <stop offset="1" stop-color="#c5d5fd"/>
    </linearGradient>
    <linearGradient id="linear-gradient22" x1="465" y1="652.2" x2="465.4" y2="653.8" gradientTransform="translate(-52744.7 -4343.7) rotate(60) scale(67.2 -67.9)" gradientUnits="userSpaceOnUse">
      <stop offset="0" stop-color="#bfd5ff"/>
      <stop offset="1" stop-color="#8493f2"/>
    </linearGradient>
    <linearGradient id="linear-gradient23" x1="464" y1="651.9" x2="463.7" y2="652.2" gradientTransform="translate(-43285.1 -756.9) rotate(60) scale(50.5 -58.1)" gradientUnits="userSpaceOnUse">
      <stop offset="0" stop-color="#e1e9fe"/>
      <stop offset="1" stop-color="#c5d5fd"/>
    </linearGradient>
  </defs>
  <g class="st51">
    <g id="Layer_1">
      <g id="SEO-Optimization-Prebuild">
        <rect id="Rectangle" class="st46" width="1440" height="900"/>
        <path id="Path-245" class="st24" d="M1489,557.5V128l-762.7,365.9c-14.4,6.9-20.5,24.2-13.6,38.7,2.5,5.3,6.6,9.6,11.6,12.6l323.9,187.2c29.4,17,65.5,17.9,95.7,2.4l345-177.2h0Z"/>
        <g id="SEO-Optimization">
          <g id="graphic-1">
            <g id="Group-75-Copy-4">
              <polygon id="Path-232" class="st38" points="1203.5 389.2 1167.9 409.3 1167.9 241.4 1203.5 220.5 1203.5 389.2"/>
              <polygon id="Path-233" class="st22" points="1167.9 409.3 1133.9 389.1 1133.9 221.9 1167.9 241.4 1167.9 409.3"/>
              <polygon id="Path-234" class="st44" points="1167.9 241.4 1203.5 220.5 1170.1 201.2 1133.9 221.9 1167.9 241.4"/>
            </g>
            <g id="Group-75-Copy-2">
              <polygon id="Path-2321" data-name="Path-232" class="st38" points="1264.2 424.6 1228.5 444.6 1228.5 311 1264.2 290 1264.2 424.6"/>
              <polygon id="Path-2331" data-name="Path-233" class="st22" points="1228.5 444.6 1194.5 424.4 1194.5 291.4 1228.5 311 1228.5 444.6"/>
              <polygon id="Path-2341" data-name="Path-234" class="st44" points="1228.5 311 1264.2 290 1230.8 270.8 1194.5 291.4 1228.5 311"/>
            </g>
            <g id="Group-75-Copy">
              <polygon id="Path-2322" data-name="Path-232" class="st38" points="1327.4 461.9 1291.8 481.9 1291.8 400.7 1327.4 379.8 1327.4 461.9"/>
              <polygon id="Path-2332" data-name="Path-233" class="st22" points="1291.8 481.9 1257.7 461.7 1257.7 381.2 1291.8 400.7 1291.8 481.9"/>
              <polygon id="Path-2342" data-name="Path-234" class="st44" points="1291.8 400.7 1327.4 379.8 1294 360.5 1257.7 381.2 1291.8 400.7"/>
            </g>
            <g id="Group-75">
              <polygon id="Path-2323" data-name="Path-232" class="st38" points="1391.1 499.2 1355.5 519.2 1355.5 416.4 1391.1 395.4 1391.1 499.2"/>
              <polygon id="Path-2333" data-name="Path-233" class="st22" points="1355.5 519.2 1321.5 499 1321.5 396.8 1355.5 416.4 1355.5 519.2"/>
              <polygon id="Path-2343" data-name="Path-234" class="st44" points="1355.5 416.4 1391.1 395.4 1357.8 376.2 1321.5 396.8 1355.5 416.4"/>
            </g>
          </g>
          <g id="woman-sit-with-laptop">
            <g id="Group">
              <path id="Path-91" class="st21" d="M1254.3,437.1c.9,1.6,0,4.4-2.5,8.4-3.8,6-7.4,8.1-11.3,8.6-4,.5-1.1-6.2,1.8-9.2,2-2,3.7-5.2,5.2-9.7l6.8,1.8Z"/>
              <path id="Path-72" class="st26" d="M1249.5,421.8l-2.6,14.8c-2.6,5.3-4.6,8.6-6,10.1-2,2.3,2.9,4,6,1.9,2-1.4,4.3-4.6,7-9.8l4.2-14.9-8.6-2.2Z"/>
              <path id="Path-94" class="st21" d="M1233.8,420.1c0,2.2-1,4-3.2,5.6-3.3,2.4-6,1.6-8.9,3.1-2.9,1.5-11.5.4-12.2-2.7-.7-3.1,9.9-3.9,10.6-4.3.5-.2,5-.8,13.7-1.8Z"/>
              <path id="Path-72-Copy" class="st26" d="M1235,407.3l-7.5,9.6c-1.2,1.5-2.8,2.7-4.6,3.4-3,1.1-5.3,1.9-7,2.2-3.2.6-2.6,3.3,1.8,4.4,2.5.6,6,.1,10.6-1.5,1.6-.6,3.1-1.5,4.2-2.7l.7-.7h0l8.4-8.7-6.6-5.9Z"/>
              <path id="Path-54" class="st27" d="M1291,306.5c-4.5-.8-4.1-10.4,2.7-9.4,5.3,0,9.2-3.9,14,1.3,4.8,5.2,3.3,16.5,3.9,23.3.6,6.7-1,6.6-5.2,8.3-4.2,1.7-21.7,1.6-18-7.5,3.7-9.1,1.9-11.9,2.5-16Z"/>
              <path id="Path-65" class="st32" d="M1288.7,361.5c-16.1,6.1-25.9,12.4-29.3,18.9s-7,20.5-10.6,42.2c3,4.1,6.8,5.3,11.5,3.5l14.5-44.1,22.6-13.2-8.7-7.3Z"/>
              <path id="Path-65-Copy" class="st19" d="M1288.7,361.5c-16.1,6.1-25.9,12.4-29.3,18.9s-7,20.5-10.6,42.2c3,4.1,6.8,5.3,11.5,3.5l14.5-44.1,22.6-13.2-8.7-7.3Z"/>
              <g id="Path-52">
                <g id="Mask">
                  <path id="path-5" class="st1" d="M1308.1,327.5c-1.6-1-6.7-1.7-11.5-2.6-1.6-.3-3.2-.9-4.6-1-2.2-.3-4.7.6-6.4,1.8-1.7,1.2,0,2.4-.9,7.4-.8,5-2.6,10.8-1.5,13.9.7,2.1,1.9,3.5,3.5,4.4,0,5.7.6,9.4,2,11.2,2.1,2.7,13.9,7.6,19.5,4.5,5.6-3.1-.5-8.7,1.9-16.7,2.4-8,7.1-12.4,6.3-16.1-.7-3.8-5.7-5.1-8.2-6.8Z"/>
                </g>
                <g class="st0">
                  <path class="st19" d="M1318.2,334c-4.9,2.9-8.1,6.9-9.4,12-2,7.6-5.7,7.8-10,7-4.3-.8-7.8-2.2-13.7-1.6-5.9.6-2.2,2.7,2.1,2.2,4.3-.5,6.6,0,10.7,1.7,4.1,1.6,7.7,1.6,10.1-.9-.7,4.5,0,7.5-9,9-9,1.5,11.6,14.6,17.2.9,3.7-9.1,4.4-19.2,2.1-30.3Z"/>
                </g>
              </g>
              <path id="Path-64" class="st33" d="M1313.5,366.6c1.3,8.4-.2,14.8-4.6,19.4-4.3,4.5-19.2,7.2-44.7,7.8l-20.4,21.1c-3.2,1.2-7-.3-11.3-4.5,10.7-15.1,18.6-24.7,23.8-28.9,5.2-4.1,18.9-9.7,41.1-16.7l16,1.8Z"/>
              <path id="Path-77" class="st31" d="M1299.3,363.3c-2.2.8-2.9,2.9-1.9,6.3,1.4,5.2,2.7,5.1,3.7,3.8,1-1.3,1.9-5.9.5-8-.9-1.4-1.7-2.1-2.3-2.1Z"/>
              <g id="Group-8">
                <g id="Path-97">
                  <g id="Mask1" data-name="Mask">
                    <path id="path-8" class="st26" d="M1295.7,321.6c0,1.7-.1,2.8-.4,3.2-1.1-.4-2.2.3-3.2,2.1-1.5,2.8-2,5.8-1.2,8.5.9,2.8,5.3,3.9,9.3,1.6,5.5-3.2,5.5-9.8,5-10.4s-2.8-.5.6-11.8c2.2-7.5-1.1-5.3-10,6.7Z"/>
                  </g>
                  <g class="st66">
                    <path class="st39" d="M1303.7,316.5s-1.6,8.7-8.5,8.3c-6.9-.4-1.6-4.5-.8-5.1.8-.7,9.3-3.2,9.3-3.2Z"/>
                  </g>
                </g>
                <path id="Path-38" class="st26" d="M1292.1,302.8c-.8,1.1-1.2,3.4-1.2,6.9,0,5.3-.5,12.5,3.7,12.7,4.2.1,6.8-1,9-3.8,1.5-1.9,2.2-3.1,2.2-3.6,1.3-.3,2.1-.9,2.3-1.9.3-1.4-.5-2.8-2.5-2.8s-8.6.9-11.2-7c-.5.2-.9.2-1.2.2-.4,0-.7-.3-1-.6Z"/>
              </g>
              <g id="Group-35">
                <path id="Path-157-Copy" class="st43" d="M1267.7,360.2l33.9,19.6c.6.3.8,1.1.4,1.6-.1.2-.3.3-.4.4l-20,11.6c-.9.5-2,.5-3,0l-34-19.5c-.6-.3-.8-1.1-.4-1.6.1-.2.3-.3.4-.4l20.1-11.6c.9-.5,2.1-.5,3,0Z"/>
                <path id="Path-157" class="st17" d="M1267.7,359l33.9,19.6c.6.3.8,1.1.4,1.6-.1.2-.3.3-.4.4l-20,11.6c-.9.5-2,.5-3,0l-34-19.5c-.6-.3-.8-1.1-.4-1.6.1-.2.3-.3.4-.4l20.1-11.6c.9-.5,2.1-.5,3,0Z"/>
                <path id="Path-158-Copy" class="st18" d="M1280.8,392.6l-6.7-23.5c-.3-1.1-1-2-2-2.5l-31.8-17.9c-.2-.1-.5,0-.7,0l-.4.3c-.4.3-.5.8-.4,1.2l5.8,21.7h0l35.4,21.1.7-.4Z"/>
                <path id="Path-158" class="st20" d="M1280.1,393l-6.6-23.4c-.3-1.1-1-2-2-2.5l-31.9-17.9c-.3-.2-.6,0-.8.2,0,.1,0,.3,0,.4l5.3,22.6h0l36,20.5Z"/>
                <ellipse id="Oval" class="st50" cx="1257.4" cy="371.6" rx="1.2" ry="1.8" transform="translate(-5.8 722.8) rotate(-32)"/>
              </g>
              <path id="Path-62" class="st26" d="M1299.3,363.4c-8.7,1.8-13.9,2.7-15.4,2.7s-7.6.5-10.2,2l2.4,8c1.5-.3,3.1-1.3,4.6-2.8,1.1-1.2,2.2-1.9,3.2-1.9h19.2c.3-2.9,0-5-.5-6.3-.6-1.3-1.7-1.8-3.3-1.6Z"/>
              <g id="Group-36">
                <g id="Group-37">
                  <path id="Path-6" class="st31" d="M1273.3,356.9c-.3,3.4.2,4.9,1.3,4.6s1.8-1.7,1.9-4.2l-3.2-.3Z"/>
                  <path id="Path-2" class="st26" d="M1271.5,352.2l-13.1,6.6,5.8,3.2,11.1-2.4c2-2,2.2-3.8.4-5.5-1.8-1.7-3.1-2.4-4.2-1.9Z"/>
                  <path id="Path-60" class="st1" d="M1287.2,325c-.9.1-1.8.7-2.7,1.7-1,1.1-3,9.2-6,24.2l-7.6,1.6c3.5,2,4.8,5,3.8,9,4.5-.7,7.3-1.5,8.4-2.6.8-.8,5-10,6.1-22.3.2-2.7-.4-6.6-2-11.5Z"/>
                </g>
              </g>
              <path id="Path-57" class="st1" d="M1314.3,330.9c3.4,2.8,5.2,6.2,5.2,10.2,0,6-2.9,24.7-4.1,26.3-.8,1.1-5.7,3.3-14.6,6.6,1.9-3.4,1.4-7-1.3-10.7,2-.7,5-1.7,9.1-3,.7-7.6,1.4-14.2,2.1-19.8.7-5.5,1.9-8.8,3.8-9.7Z"/>
            </g>
            <g id="graphic-3">
              <path id="Path-98" class="st14" d="M1243.7,307.3v30.2c0,1.6.8,3,2.2,3.8l36.4,21.1c.7.4,1.6.2,2-.5.1-.2.2-.5.2-.7v-30.1c0-1.6-.8-3-2.2-3.8l-36.4-21.2c-.7-.4-1.6-.2-2,.5-.1.2-.2.5-.2.7Z"/>
              <polygon id="Rectangle-Copy-16" class="st15" points="1247.1 313 1251.2 315.3 1251.2 336.4 1247.1 334.1 1247.1 313"/>
              <polygon id="Rectangle-Copy-15" class="st15" points="1254.5 317.4 1258.6 319.7 1258.6 340.5 1254.5 338.1 1254.5 317.4"/>
              <polygon id="Rectangle-Copy-14" class="st15" points="1261.8 321.2 1265.9 323.5 1265.9 344.6 1261.8 342.2 1261.8 321.2"/>
              <polygon id="Rectangle-Copy-13" class="st15" points="1269.1 325.3 1273.2 327.6 1273.2 348.7 1269.1 346.3 1269.1 325.3"/>
              <polygon id="Rectangle-Copy-12" class="st15" points="1276.4 329.1 1280.5 331.4 1280.5 351.9 1276.4 349.6 1276.4 329.1"/>
              <polygon id="Rectangle1" data-name="Rectangle" class="st17" points="1247.1 325.9 1251.2 328.2 1251.2 339.9 1247.1 337.6 1247.1 325.9"/>
              <polygon id="Rectangle-Copy-8" class="st17" points="1254.5 335.8 1258.6 338.1 1258.6 344 1254.5 341.7 1254.5 335.8"/>
              <polygon id="Rectangle-Copy-10" class="st17" points="1261.8 334.1 1265.9 336.4 1265.9 348.1 1261.8 345.8 1261.8 334.1"/>
              <polygon id="Rectangle-Copy-9" class="st17" points="1269.1 334.6 1273.2 337 1273.2 352.2 1269.1 349.9 1269.1 334.6"/>
              <polygon id="Rectangle-Copy-11" class="st17" points="1276.4 332.6 1280.5 334.9 1280.5 355.4 1276.4 353.1 1276.4 332.6"/>
            </g>
          </g>
          <g id="mac">
            <g>
              <path id="Path-521" data-name="Path-52" class="st44" d="M903.3,455.6l-9.4,29c-4.5,14,1.3,29.2,14,36.6l46.7,27.2c5.6,3.3,12.6,3.3,18.3,0l49.2-28.5c3.7-2.2,5-6.9,2.8-10.7-.7-1.2-1.6-2.1-2.8-2.8l-45.9-27.1c-12.5-7.4-18.2-22.4-13.9-36.2l6.9-22.1h0l-65.8,34.4Z"/>
              <g id="Path-53">
                <path id="Mask2" data-name="Mask" class="st20" d="M905.8,455.2l-9.4,28.2c-4.7,14.1,1.2,29.6,14.2,37l44.6,25.4c5.6,3.2,12.4,3.2,17.9,0l50.1-28.3c3.7-2.1,5.1-6.9,3-10.6-.7-1.2-1.7-2.2-2.9-2.9l-43.4-25.1c-12.7-7.3-18.6-22.6-14.1-36.5l6.8-21.3h0l-66.8,34.1Z"/>
                <path id="Combined-Shape" class="st29" d="M972.6,421.1l-4.5,2.3-64.1,37-7.7,23.1c-2.4,7.3-2,15,.8,21.7l69.9-40.3c-3.1-6.9-3.7-14.8-1.3-22.4l6.8-21.3Z"/>
              </g>
              <g id="Group-3-Copy">
                <path id="Path-2-Copy" class="st24" d="M1077.6,154.7l5.9,2.9c3.3,1.6,5.3,5.1,5.1,8.8l-13.7,189.5c-.7,9.3-5.6,17.7-13.4,22.8l-232.4,152.5c-3.8,2.5-8.6,2.8-12.6.9l-4.9-2.3c-2.7-1.3-4.5-4-4.5-7.1v-198.4c0-10.7,5.7-20.5,14.9-25.9l248.3-143.5c2.2-1.3,5-1.4,7.3-.3Z"/>
                <path id="Path-2-Copy-4" class="st17" d="M1089,164.9l-.3,198c0,10.6-5.7,20.4-14.9,25.8l-247.4,143.9c-3.7,2.2-8.5.9-10.7-2.8-.7-1.2-1.1-2.5-1.1-3.9v-197.1c0-10.6,5.6-20.4,14.8-25.8l247.7-144.8c3.7-2.2,8.5-.9,10.7,2.8.7,1.2,1.1,2.6,1.1,3.9Z"/>
              </g>
            </g>
            <g id="Rectangle2" data-name="Rectangle">
              <g id="Mask3" data-name="Mask">
                <path id="path-11" class="st34" d="M1081.6,159.6l-254.6,149.3c-5.3,3.1-9.6,10.3-9.6,16.1v203.3c0,5.8,4.3,8,9.6,4.9l254.6-149.3c5.3-3.1,9.6-10.3,9.6-16.1v-203.3c0-5.8-4.3-8-9.6-4.9Z"/>
              </g>
              <g class="st61">
                <polygon class="st37" points="1117.2 317.2 784.1 510.4 784.1 608.6 1117.2 415.4 1117.2 317.2"/>
              </g>
              <g class="st62">
                <polygon id="Path-21" class="st16" points="1037.3 201.2 1082.4 174.4 1082.4 325.3 1037.3 350.2 1037.3 201.2"/>
              </g>
            </g>
            <polygon id="Path-103" class="st17" points="834.8 319.4 1082.4 174.4 1082.4 324.9 834.8 465.8 834.8 319.4"/>
            <path id="Combined-Shape1" data-name="Combined-Shape" class="st23" d="M1082.4,174.4l-30.4,17.8v149.6s.8,0,.8,0l29.6-16.8v-150.5Z"/>
            <g id="Graphic">
              <path id="Path-981" data-name="Path-98" class="st24" d="M932.8,279.6v61.2c0,3.2-1.7,6.1-4.4,7.7l-73.7,42.8c-1.4.8-3.2.3-4.1-1.1-.3-.5-.4-1-.4-1.5v-61c0-3.2,1.7-6.1,4.4-7.7l73.7-43c1.4-.8,3.2-.3,4.1,1.1.3.5.4,1,.4,1.5Z"/>
              <path id="Path-152" class="st46" d="M869.6,330.6l19.9-11.4v-2s-19.8,11.4-19.8,11.4v2.1ZM866.9,329.4v9.1l-6.7,3.9v-9.2l6.7-3.8ZM887.3,325.5v2c-.1,0-17.7,10.1-17.7,10.1v-2c0,0,17.7-10.1,17.7-10.1Z"/>
              <path id="Path-152-Copy-4" class="st46" d="M869.6,347.8l19.9-11.4v-2s-19.8,11.4-19.8,11.4v2.1ZM866.9,346.6v9.1l-6.7,3.9v-9.2l6.7-3.8ZM887.3,342.7v2c-.1,0-17.7,10.1-17.7,10.1v-2c0,0,17.7-10.1,17.7-10.1Z"/>
              <path id="Path-152-Copy-5" class="st46" d="M869.6,363.9l19.9-11.4v-2s-19.8,11.4-19.8,11.4v2.1ZM866.9,362.6v9.1l-6.7,3.9v-9.2l6.7-3.8ZM887.3,358.8v2c-.1,0-17.7,10.1-17.7,10.1v-2c0,0,17.7-10.1,17.7-10.1Z"/>
              <g id="Group-42">
                <path id="Oval-Copy-17" class="st35" d="M903,343.7c-7.2-1.9-10.4-13.3-7.2-25.3,3.2-12,11.6-20.2,18.8-18.2,1.2.3,3.3.7,6.4,1,2.2,10.1,2.5,18.2.9,24.3-1.4,5.4-4.8,11.9-10.1,19.5-4.3-.4-7.2-.9-8.7-1.3Z"/>
                <g id="Path-236">
                  <ellipse id="Mask4" data-name="Mask" class="st56" cx="916.2" cy="323.2" rx="22.5" ry="13.2" transform="translate(381 1134) rotate(-76)"/>
                  <path id="Path-237" class="st46" d="M920,322.3l-5,22.6c-5.2,1.1-9.1-1.5-11.7-7.8-1.8-4.7-1.8-10.5,0-17.5l16.7,2.6Z"/>
                </g>
              </g>
            </g>
            <g id="Graphic1" data-name="Graphic">
              <path id="Path-982" data-name="Path-98" class="st24" d="M1023.4,227v61.2c0,3.2-1.7,6.1-4.4,7.7l-73.7,42.8c-1.4.8-3.2.3-4.1-1.1-.3-.5-.4-1-.4-1.5v-61c0-3.2,1.7-6.1,4.4-7.7l73.7-43c1.4-.8,3.2-.3,4.1,1.1.3.5.4,1,.4,1.5Z"/>
              <path id="Path-1521" data-name="Path-152" class="st46" d="M960.1,278l19.9-11.4v-2s-19.8,11.4-19.8,11.4v2.1ZM957.4,276.8v9.1l-6.7,3.9v-9.2l6.7-3.8ZM977.8,272.9v2c-.1,0-17.7,10.1-17.7,10.1v-2c0,0,17.7-10.1,17.7-10.1Z"/>
              <path id="Path-152-Copy-41" data-name="Path-152-Copy-4" class="st46" d="M960.1,295.2l19.9-11.4v-2s-19.8,11.4-19.8,11.4v2.1ZM957.4,294v9.1l-6.7,3.9v-9.2l6.7-3.8ZM977.8,290.2v2c-.1,0-17.7,10.1-17.7,10.1v-2c0,0,17.7-10.1,17.7-10.1Z"/>
              <path id="Path-152-Copy-51" data-name="Path-152-Copy-5" class="st46" d="M960.1,311.3l19.9-11.4v-2s-19.8,11.4-19.8,11.4v2.1ZM957.4,310v9.1l-6.7,3.9v-9.2l6.7-3.8ZM977.8,306.2v2c-.1,0-17.7,10.1-17.7,10.1v-2c0,0,17.7-10.1,17.7-10.1Z"/>
              <g id="Group-421" data-name="Group-42">
                <path id="Oval-Copy-171" data-name="Oval-Copy-17" class="st36" d="M993.5,291.1c-7.2-1.9-10.4-13.3-7.2-25.3,3.2-12,11.6-20.2,18.8-18.2,1.2.3,3.3.7,6.4,1,2.2,10.1,2.5,18.2.9,24.3-1.4,5.4-4.8,11.9-10.1,19.5-4.3-.4-7.2-.9-8.7-1.3Z"/>
                <g id="Path-2361" data-name="Path-236">
                  <ellipse id="Mask5" data-name="Mask" class="st56" cx="1006.7" cy="270.6" rx="22.5" ry="13.2" transform="translate(500.6 1181.9) rotate(-76)"/>
                  <path id="Path-2371" data-name="Path-237" class="st46" d="M1010.5,269.8l-5,22.6c-5.2,1.1-9.1-1.5-11.7-7.8-1.8-4.7-1.8-10.5,0-17.5l16.7,2.6Z"/>
                </g>
              </g>
            </g>
            <path id="Path-22" class="st57" d="M853,443.8l172.9-97.7c1.9-1.1,3.1-3.2,3-5.4l-.8-31.4c0-1-.9-1.8-1.8-1.8-.3,0-.6,0-.9.2l-172.1,101c-1.8,1.1-3,3-3,5.2v28.3c0,1,.8,1.8,1.8,1.8s.6,0,.9-.2Z"/>
            <ellipse id="Oval1" data-name="Oval" class="st48" cx="963" cy="429.5" rx="6.3" ry="3.6" transform="translate(256.9 1212.6) rotate(-72)"/>
          </g>
          <g id="web-development-copy">
            <g id="man-with-lup">
              <ellipse id="Oval-Copy-24" class="st54" cx="1101" cy="571.1" rx="40.2" ry="23.7"/>
              <path id="Path-229" class="st44" d="M1131.1,490.3l-44.3-132.5c-.2-.6-.9-1-1.5-.8,0,0,0,0,0,0l-22.1,9.4c-.6.2-.9.9-.7,1.5l43.3,139.2h0c3.6,7.6,9.9,9.4,18.7,5.7,8.8-3.8,11-11.2,6.7-22.4Z"/>
              <ellipse id="Oval2" data-name="Oval" class="st49" cx="1074.5" cy="363.1" rx="13.2" ry="6.3" transform="translate(-54.8 468.4) rotate(-24)"/>
              <g id="Group1" data-name="Group">
                <g id="Oval3" data-name="Oval">
                  <path id="Mask6" data-name="Mask" class="st20" d="M1052.4,329.3l15.8-5.7,11.9,32.7c1.2,3.4-.5,7.2-3.9,8.5l-3.4,1.2c-3.4,1.2-7.2-.5-8.5-3.9l-11.9-32.7h0Z"/>
                  <path id="Path-23" class="st19" d="M1055.9,338.9l2.9,8c3.3,0,6.3-.7,9.1-1.9,2.8-1.3,4.8-3.3,5.9-6.1l-2.1-5.6-15.8,5.6Z"/>
                </g>
                <ellipse id="Oval-Copy" class="st47" cx="1038.6" cy="277.4" rx="66.6" ry="51" transform="translate(585 1252.1) rotate(-80)"/>
                <ellipse id="Oval4" data-name="Oval" class="st68" cx="1052.4" cy="276.8" rx="66.6" ry="51" transform="translate(597 1265.2) rotate(-80)"/>
                <g id="Oval-Copy-3">
                  <g id="Mask7" data-name="Mask">
                    <ellipse id="path-20" class="st45" cx="1052.5" cy="277.4" rx="56.4" ry="43.2" transform="translate(596.5 1265.8) rotate(-80)"/>
                  </g>
                  <g class="st63">
                    <g id="Rectangle3" data-name="Rectangle">
                      <g>
                        <g id="Mask8" data-name="Mask">
                          <ellipse id="path-23" class="st55" cx="1028.9" cy="275.5" rx="63.3" ry="59.7" transform="translate(630 1263.2) rotate(-83)"/>
                        </g>
                        <g class="st64">
                          <path id="Combined-Shape2" data-name="Combined-Shape" class="st8" d="M1057.3,223c20.8,6.8,33.2,33.3,28.2,61.9-3.9,22-17,39.2-32.8,45.7-20.8-6.8-33.2-33.3-28.2-61.9,3.8-21.8,16.8-38.9,32.3-45.6l.4-.2Z"/>
                        </g>
                        <g class="st70">
                          <g id="Group-47-Copy">
                            <g>
                              <path id="Path-983" data-name="Path-98" class="st44" d="M1042.2,215.8v59.3c0,3.1-1.7,6-4.3,7.5l-72,41.5c-1.4.8-3.2.3-3.9-1.1-.3-.4-.4-.9-.4-1.4v-59.1c0-3.1,1.6-6,4.3-7.5l72-41.7c1.4-.8,3.2-.3,4,1.1.3.4.4.9.4,1.4Z"/>
                              <path id="Path-1522" data-name="Path-152" class="st46" d="M980.4,265.3l19.4-11.1v-1.9s-19.3,11-19.3,11v2ZM977.8,264.1v8.9l-6.5,3.7v-8.9l6.5-3.7ZM997.7,260.4v1.9c-.1,0-17.3,9.8-17.3,9.8v-1.9c0,0,17.3-9.8,17.3-9.8Z"/>
                              <path id="Path-152-Copy-42" data-name="Path-152-Copy-4" class="st46" d="M980.4,282l19.4-11.1v-1.9s-19.3,11-19.3,11v2ZM977.8,280.8v8.9l-6.5,3.7v-8.9l6.5-3.7ZM997.7,277.1v1.9c-.1,0-17.3,9.8-17.3,9.8v-1.9c0,0,17.3-9.8,17.3-9.8Z"/>
                              <path id="Path-152-Copy-52" data-name="Path-152-Copy-5" class="st46" d="M980.4,297.6l19.4-11.1v-1.9s-19.3,11-19.3,11v2ZM977.8,296.4v8.9l-6.5,3.7v-8.9l6.5-3.7ZM997.7,292.6v1.9c-.1,0-17.3,9.8-17.3,9.8v-1.9c0,0,17.3-9.8,17.3-9.8Z"/>
                              <g id="Group-422" data-name="Group-42">
                                <path id="Oval-Copy-172" data-name="Oval-Copy-17" class="st11" d="M1013.1,278c-7-1.9-10.2-12.9-7.1-24.5,3.1-11.7,11.4-19.6,18.4-17.7,1.2.3,3.2.6,6.2,1,2.1,9.8,2.4,17.7.8,23.5-1.4,5.3-4.7,11.6-9.9,18.9-4.2-.4-7-.8-8.5-1.2Z"/>
                                <g id="Path-160">
                                  <g id="Mask9" data-name="Mask">
                                    <ellipse id="path-27" class="st56" cx="1024.9" cy="257.9" rx="21.9" ry="13.2" transform="translate(510.6 1181.1) rotate(-75)"/>
                                  </g>
                                  <g class="st65">
                                    <path class="st17" d="M1012.6,248.8l14.6,9.6-9.7,23c-5-3.3-7.5-8.7-7.5-16.3,0-7.6.9-13,2.5-16.3Z"/>
                                  </g>
                                </g>
                              </g>
                            </g>
                          </g>
                        </g>
                        <g class="st67">
                          <rect id="Rectangle4" data-name="Rectangle" class="st53" x="1052" y="122" width="77.7" height="219.7"/>
                        </g>
                      </g>
                    </g>
                  </g>
                  <g class="st69">
                    <path id="Path-217" class="st57" d="M1041.5,294.1l-.2,27.5c0,1.5-.8,3-2.2,3.7l-161.2,91.3c-.8.4-1.8.2-2.2-.6-.1-.2-.2-.5-.2-.8v-25.3c0-1.5.8-3,2.2-3.7l161.4-93.4c.8-.4,1.8-.2,2.2.6.1.3.2.5.2.8Z"/>
                  </g>
                </g>
              </g>
              <g id="man-1-copy-2">
                <path id="Path-11" class="st27" d="M1125.9,565.5c.2,1.3.3,2.2.3,2.9,0,1-1.7,2.5-5,2.3-3.4-.3-6.2-3.4-6.5-3.7-.3-.3.3-2.9-1.7-3.6-2-.7-2.4.7-5.6-1.4-3.3-2.1-3.1-7.6-1.3-8.9,1.2-.9,7.9,3.3,19.9,12.5Z"/>
                <path id="Path-12" class="st27" d="M1102.2,580.5c.4,1,.5,2,.5,3.1,0,1.6-3.2,2.5-7.1,2.5s-2.4-1.6-5-2.1c-2.6-.5-2.3,1.2-6.1,1.2s-9-.8-9.8-4.7c-.5-2.6,8.6-2.6,27.3,0Z"/>
                <path id="Path-10" class="st40" d="M1124.9,554.8c.7,1.5,1.1,5,1.3,10.6-.5,2.3-2.3,3.3-5.3,2.9-4.6-.6-3.7-2.7-10.5-6.2-6.9-3.5-6.4-8.1-4.6-9.2,1.8-1.1,4.1-1.8,9.8-.2,3.8,1.1,7,1.8,9.4,2.1Z"/>
                <path id="Path-9" class="st40" d="M1088.9,569.3c-.9,2.3-3.2,3.8-6.9,4.4-5.5.9-8.4,3.2-7.9,5.5.5,2.3,3.3,5,9.4,4.4,6.1-.6,7.4,0,10.5.3,3.1.3,6.8.3,8.3-2.2.4-2,.4-4.4,0-7.4-.6-4.4-1.5-4.8-1.5-6.3s-4-.6-12,1.2Z"/>
                <path id="Path-15" class="st41" d="M1088.7,392.3c-.6,1.3-1.1,2.2-1.6,2.6-.7.7.1,1.6.9,1.6s.8-1.4.8-4.2Z"/>
                <path id="Path-8" class="st12" d="M1084.7,456.6c-1.7,2.7-1.2,9.5-1.4,15.5-.4,13.7.9,30,.9,33.2,0,4.6,2.1,37.6,2.1,45.2s.3,11.2.8,18.4c6.1,3,11.2,2.9,15.3-.3-.9-41.6-1.3-63.7-1.3-66.2s.2-4.5.5-5.9c3.5,15.5,5.2,24.3,5.2,26.4s1.8,12.9,5.5,32.4c2.2,2,4.7,2.7,7.5,2.2,2.7-.5,4.7-1.6,6-3.1-.8-19.3-2.4-31.3-4.5-35.9-.5-9-2.8-33.3-2.8-39.3s2.8-17.4-.7-27.6c-3.5-10.2-27.4-4-32.9,4.8Z"/>
                <path id="Path-17" class="st60" d="M1087.8,455.5c-1.8,1.5-.7,52.4-.7,62.6s1.1,23.6,3.3,50.4"/>
                <ellipse id="Oval5" data-name="Oval" class="st58" cx="1088.1" cy="391.2" rx="3" ry="2" transform="translate(379.8 1305.2) rotate(-72)"/>
                <path id="Path-7" class="st43" d="M1116.6,446.2c.6,0,.9.8.9,2.3,0,2.2-2.4,5-4.9,6.7-2.4,1.6-9.6,3.5-20.9,2.4-3.8-.7-5.9-2.8-6.4-6.2l31.3-5.1Z"/>
                <path id="Rectangle5" data-name="Rectangle" class="st27" d="M1091.9,387.6h-2.3c-.3,0-.6.3-.6.6h0c0,.3.3.6.6.6h2.3c.3,0,.6-.3.6-.6h0c0-.3-.3-.6-.6-.6Z"/>
                <path id="Path-3" class="st28" d="M1092,382.8c-1.9,3.6-2.8,6.1-2.8,7.5,0,2.2-1.4,2.1-1.4,5s-.2,8.8,1.4,10.2c1,.9,2.9,1.2,5.7.7.4,3,.4,4.9,0,5.6s-1,1.3-1.7,1.7c5.5-.4,9-.9,10.6-1.7s2.1-2.2,1.8-4.2c-.6,0-.9-.1-.9-.6v-5.6c.6-8.3-.1-13.6-2.1-15.9-2-2.3-5.5-3.1-10.6-2.6Z"/>
                <path id="Path" class="st28" d="M1077.3,404.8c0-1.6-3.5-8.6-10.5-21.1-.4,13.8.8,22.7,3.7,26.7,4.5-2.1,6.8-4,6.8-5.6Z"/>
                <path id="Path-231" class="st28" d="M1122.7,431.1c.7,7.4-.8,12.4-4.8,15.2l-2.3-15.9,7.1.7Z"/>
                <path id="Path-230" class="st1" d="M1115.4,410.4c3.1,4,5.9,10.6,8.2,19.8-.7,2.4-2.7,3.6-6.1,3.6l-2.1-23.4Z"/>
                <g id="Path-40">
                  <g id="Mask10" data-name="Mask">
                    <path id="path-30" class="st1" d="M1091.3,414.9c-1.7-1.1-2.8-1.8-3.4-2.1-1.6-.7-9.3-10.6-9.9-10.3-1.9.9-7.4,3.3-8.6,9.4,6.3,7.9,11.2,14.1,14.9,18.7,2.4,3.2.5,15.2,0,18.5-.3,2.2.4,4,2.2,5.5,6.4,2.6,14.3,2.4,23.5-.6,4.1-1.6,6.6-3.8,7.7-6.5.7-1.6.7-5.2,0-11,1.2-8.5.8-19.2-1.2-23.7-2-4.5-5.9-6-9.8-4.3-.6.3-1-.3-1.1-1.7l-14.3,8.1Z"/>
                  </g>
                  <g class="st71">
                    <path id="Path-20" class="st52" d="M1119.5,415.5c-6.2,8.9-17.7,14.1-34.8,15.6"/>
                  </g>
                </g>
                <g id="Path-19">
                  <g id="Mask11" data-name="Mask">
                    <path id="path-32" class="st27" d="M1099.1,395.6c1.1,0,3,.2,1.5,4-1.5,3.7,2.7,5.9,4,5.4,1.3-.5,5.7-7.1,8-8.9,1.5-1.2,1.4-3.4-.3-6.8,1.3-3.5.4-6-2.7-7.5-4.7-2.3-12.3-6.4-15.5-5.5-2.2.6-3,1.4-2.4,2.4-3.5,1.6-4.3,3.3-2.5,5.1,1.8,1.8,4.4,3,7.6,3.6-2.2,1.2-3.1,2.6-2.7,4.1.6,2.2,1.2,4.9,0,6.7-1.2,1.9-5.8,1.7-6.2,0-.6,1.3-.4,5.3-.2,6.3.2.9-.6,2.4,3.7,2.4s2.6-4.2,3.9-7.2c1.3-3,2.8-4,3.9-4Z"/>
                  </g>
                  <g class="st72">
                    <path class="st7" d="M1096.7,387.3c7.2,1,8.4,5.3,3.9,13-6.9,11.5-2.6-2.3-6.1-3.8-2.3-.9-2.3-4.3,0-10l2.2.7Z"/>
                  </g>
                </g>
                <path id="Path-5" class="st42" d="M1104.8,406c.2.8-1,1.5-3.6,2.1-3.8,1-7,2.2-8.6,4.6l-1.6,2.1c8.3-2.1,13.2-3.7,14.6-4.9,2.1-1.7.5-2.7.5-2.7,0,0-.4-.4-1.3-1.3Z"/>
                <path id="Path-13" class="st30" d="M1103.2,465.8v3c-3.9,1.3-8,1.4-12.2.6v-2.6c2.9.1,5.1.1,6.5,0,1.4-.1,3.3-.4,5.7-1Z"/>
                <path id="Path-14" class="st30" d="M1101.5,496.5l.9-15.9c1.5-.3,2.8-.7,3.7-1.3,1-.6,2.2-1.6,3.5-3.1.3,5.8-.1,10.9-1.2,15.4-1.7,6.7-4.6,13.7-4.2,17.4l-2.8-12.5Z"/>
                <line id="Path-16" class="st59" x1="1086.5" y1="389.7" x2="1098.3" y2="395.1"/>
                <line id="Path-18" class="st60" x1="1104.5" y1="494.6" x2="1113.8" y2="556.5"/>
                <path id="Path-4" class="st60" d="M1110.3,460.8c2.2,10.4.6,16.8-4.9,19.3"/>
                <path id="Path-42" class="st28" d="M1097.2,396.5c1.2-1.4,2.3-1.9,3.1-1.4,1.3.7,1.8,2.6,0,5-1.2,1.6-2.4,1.8-3.6.5l.5-4.1Z"/>
                <path id="Path-42-Copy" class="st25" d="M1097.4,397.4c.6-.8,1.1-1,1.5-.8.6.4.9,1.4,0,2.7-.6.9-1.2,1-1.8.3l.2-2.2Z"/>
              </g>
            </g>
          </g>
          <g id="graphic-2">
            <g id="Group-72">
              <path id="Combined-Shape3" data-name="Combined-Shape" class="st9" d="M1292,543.9l4.6-8.4v28c.3,5-2.2,10.1-7.5,14.3l-32.8-23.1,32.7-13.4c1.1.9,2,1.8,2.9,2.7Z"/>
              <path id="Combined-Shape4" data-name="Combined-Shape" class="st10" d="M1256.5,554.6l-40-2.5c.8-5.2,4.6-10.2,11.4-14.2,15.6-9,41-8.9,56.8.1,1.7,1,3.2,2,4.5,3.1l-32.7,13.4Z"/>
              <polygon id="Combined-Shape-Copy-14" class="st13" points="1256.5 554.6 1216.4 552.2 1216.5 523.4 1289.3 512.5 1289.2 541.2 1256.5 554.6"/>
              <path id="Combined-Shape-Copy-8" class="st6" d="M1256.6,525.9l-40-2.5c.8-5.2,4.6-10.2,11.4-14.2,15.6-9,41-8.9,56.8.1,1.7,1,3.2,2,4.5,3.1l-32.7,13.4Z"/>
              <polygon id="Combined-Shape-Copy-9" class="st3" points="1289.3 548.8 1289.3 568 1256.5 554.6 1256.5 535.5 1289.3 548.8"/>
              <path id="Combined-Shape-Copy-7" class="st2" d="M1289.3,522c9.9,8,10,18.8,0,26.8l-32.8-13.3,32.7-13.4Z"/>
              <path id="Combined-Shape5" data-name="Combined-Shape" class="st4" d="M1218.6,552.3l37.8,2.3,22.9,9.3c2-.8,4-1.7,5.8-2.8s2.9-1.8,4.1-2.8v19.3c-1.3,1-2.7,1.9-4.2,2.8-15.6,9-41,8.9-56.8-.1-8.9-5.1-12.8-11.9-11.9-18.5v-19.3c-.4,3.3.3,6.6,2.2,9.7Z"/>
              <path id="Combined-Shape-Copy-6" class="st5" d="M1216.5,542.6l40,2.5,32.8,13.3c-1.2,1-2.6,1.9-4.1,2.8-15.6,9-41,8.9-56.8-.1-8.9-5.1-12.8-11.9-11.9-18.5Z"/>
            </g>
          </g>
        </g>
      </g>
    </g>
  </g>
</svg>